%TF.GenerationSoftware,KiCad,Pcbnew,10.0.1*%
%TF.CreationDate,2026-04-18T08:52:42+02:00*%
%TF.ProjectId,MMS3_hat_GPIO_board_basic,4d4d5333-5f68-4617-945f-4750494f5f62,R0*%
%TF.SameCoordinates,Original*%
%TF.FileFunction,Soldermask,Bot*%
%TF.FilePolarity,Negative*%
%FSLAX46Y46*%
G04 Gerber Fmt 4.6, Leading zero omitted, Abs format (unit mm)*
G04 Created by KiCad (PCBNEW 10.0.1) date 2026-04-18 08:52:42*
%MOMM*%
%LPD*%
G01*
G04 APERTURE LIST*
G04 Aperture macros list*
%AMRoundRect*
0 Rectangle with rounded corners*
0 $1 Rounding radius*
0 $2 $3 $4 $5 $6 $7 $8 $9 X,Y pos of 4 corners*
0 Add a 4 corners polygon primitive as box body*
4,1,4,$2,$3,$4,$5,$6,$7,$8,$9,$2,$3,0*
0 Add four circle primitives for the rounded corners*
1,1,$1+$1,$2,$3*
1,1,$1+$1,$4,$5*
1,1,$1+$1,$6,$7*
1,1,$1+$1,$8,$9*
0 Add four rect primitives between the rounded corners*
20,1,$1+$1,$2,$3,$4,$5,0*
20,1,$1+$1,$4,$5,$6,$7,0*
20,1,$1+$1,$6,$7,$8,$9,0*
20,1,$1+$1,$8,$9,$2,$3,0*%
G04 Aperture macros list end*
%ADD10C,3.100000*%
%ADD11RoundRect,0.250000X-0.725000X0.600000X-0.725000X-0.600000X0.725000X-0.600000X0.725000X0.600000X0*%
%ADD12O,1.950000X1.700000*%
%ADD13RoundRect,0.250000X0.725000X-0.600000X0.725000X0.600000X-0.725000X0.600000X-0.725000X-0.600000X0*%
%ADD14RoundRect,0.250000X-0.600000X-0.725000X0.600000X-0.725000X0.600000X0.725000X-0.600000X0.725000X0*%
%ADD15O,1.700000X1.950000*%
%ADD16C,1.296000*%
%ADD17R,1.700000X1.700000*%
%ADD18C,1.700000*%
%ADD19C,2.700000*%
%ADD20R,1.000000X3.150000*%
G04 APERTURE END LIST*
D10*
%TO.C,H1*%
X82000000Y-92000000D03*
%TD*%
D11*
%TO.C,J6*%
X82445000Y-122400000D03*
D12*
X82445000Y-124900000D03*
X82445000Y-127400000D03*
%TD*%
D13*
%TO.C,J14*%
X174555000Y-127400000D03*
D12*
X174555000Y-124900000D03*
X174555000Y-122400000D03*
%TD*%
D14*
%TO.C,J11*%
X137650000Y-133555000D03*
D15*
X140150000Y-133555000D03*
X142650000Y-133555000D03*
%TD*%
D11*
%TO.C,J4*%
X82645000Y-98500000D03*
D12*
X82645000Y-101000000D03*
X82645000Y-103500000D03*
%TD*%
D16*
%TO.C,H8*%
X169700000Y-90300000D03*
%TD*%
D17*
%TO.C,J3*%
X151170000Y-100000000D03*
D18*
X153710000Y-100000000D03*
X156250000Y-100000000D03*
X158790000Y-100000000D03*
%TD*%
D16*
%TO.C,H7*%
X79000000Y-137000000D03*
%TD*%
D14*
%TO.C,J13*%
X161550000Y-133555000D03*
D15*
X164050000Y-133555000D03*
X166550000Y-133555000D03*
%TD*%
D19*
%TO.C,H6*%
X153000000Y-94000000D03*
%TD*%
D13*
%TO.C,J15*%
X174555000Y-115450000D03*
D12*
X174555000Y-112950000D03*
X174555000Y-110450000D03*
%TD*%
D19*
%TO.C,H5*%
X103000000Y-94000000D03*
%TD*%
D14*
%TO.C,J12*%
X149600000Y-133555000D03*
D15*
X152100000Y-133555000D03*
X154600000Y-133555000D03*
%TD*%
D19*
%TO.C,H2*%
X174000000Y-134000000D03*
%TD*%
%TO.C,H4*%
X174000000Y-92000000D03*
%TD*%
D14*
%TO.C,J7*%
X89550000Y-133555000D03*
D15*
X92050000Y-133555000D03*
X94550000Y-133555000D03*
%TD*%
D14*
%TO.C,J9*%
X113750000Y-133555000D03*
D15*
X116250000Y-133555000D03*
X118750000Y-133555000D03*
%TD*%
D14*
%TO.C,J10*%
X125700000Y-133555000D03*
D15*
X128200000Y-133555000D03*
X130700000Y-133555000D03*
%TD*%
D16*
%TO.C,H9*%
X85337849Y-89057177D03*
%TD*%
D11*
%TO.C,J5*%
X82445000Y-110450000D03*
D12*
X82445000Y-112950000D03*
X82445000Y-115450000D03*
%TD*%
D19*
%TO.C,H3*%
X82000000Y-134000000D03*
%TD*%
D14*
%TO.C,J8*%
X101500000Y-133555000D03*
D15*
X104000000Y-133555000D03*
X106500000Y-133555000D03*
%TD*%
D13*
%TO.C,J16*%
X174555000Y-103500000D03*
D12*
X174555000Y-101000000D03*
X174555000Y-98500000D03*
%TD*%
D20*
%TO.C,J1*%
X108940000Y-93013272D03*
X108940000Y-98063272D03*
X111480000Y-93013272D03*
X111480000Y-98063272D03*
X114020000Y-93013272D03*
X114020000Y-98063272D03*
X116560000Y-93013272D03*
X116560000Y-98063272D03*
X119100000Y-93013272D03*
X119100000Y-98063272D03*
X121640000Y-93013272D03*
X121640000Y-98063272D03*
X124180000Y-93013272D03*
X124180000Y-98063272D03*
X126720000Y-93013272D03*
X126720000Y-98063272D03*
X129260000Y-93013272D03*
X129260000Y-98063272D03*
X131800000Y-93013272D03*
X131800000Y-98063272D03*
X134340000Y-93013272D03*
X134340000Y-98063272D03*
X136880000Y-93013272D03*
X136880000Y-98063272D03*
X139420000Y-93013272D03*
X139420000Y-98063272D03*
X141960000Y-93013272D03*
X141960000Y-98063272D03*
X144500000Y-93013272D03*
X144500000Y-98063272D03*
X147040000Y-93013272D03*
X147040000Y-98063272D03*
%TD*%
M02*
