%TF.GenerationSoftware,KiCad,Pcbnew,9.0.2*%
%TF.CreationDate,2026-03-01T22:58:04+01:00*%
%TF.ProjectId,MMS3_hat_GPIO_board_basic,4d4d5333-5f68-4617-945f-4750494f5f62,R0*%
%TF.SameCoordinates,Original*%
%TF.FileFunction,Copper,L2,Bot*%
%TF.FilePolarity,Positive*%
%FSLAX46Y46*%
G04 Gerber Fmt 4.6, Leading zero omitted, Abs format (unit mm)*
G04 Created by KiCad (PCBNEW 9.0.2) date 2026-03-01 22:58:04*
%MOMM*%
%LPD*%
G01*
G04 APERTURE LIST*
G04 Aperture macros list*
%AMRoundRect*
0 Rectangle with rounded corners*
0 $1 Rounding radius*
0 $2 $3 $4 $5 $6 $7 $8 $9 X,Y pos of 4 corners*
0 Add a 4 corners polygon primitive as box body*
4,1,4,$2,$3,$4,$5,$6,$7,$8,$9,$2,$3,0*
0 Add four circle primitives for the rounded corners*
1,1,$1+$1,$2,$3*
1,1,$1+$1,$4,$5*
1,1,$1+$1,$6,$7*
1,1,$1+$1,$8,$9*
0 Add four rect primitives between the rounded corners*
20,1,$1+$1,$2,$3,$4,$5,0*
20,1,$1+$1,$4,$5,$6,$7,0*
20,1,$1+$1,$6,$7,$8,$9,0*
20,1,$1+$1,$8,$9,$2,$3,0*%
G04 Aperture macros list end*
%TA.AperFunction,ComponentPad*%
%ADD10RoundRect,0.250000X-0.725000X0.600000X-0.725000X-0.600000X0.725000X-0.600000X0.725000X0.600000X0*%
%TD*%
%TA.AperFunction,ComponentPad*%
%ADD11O,1.950000X1.700000*%
%TD*%
%TA.AperFunction,ComponentPad*%
%ADD12C,3.100000*%
%TD*%
%TA.AperFunction,ComponentPad*%
%ADD13RoundRect,0.250000X0.725000X-0.600000X0.725000X0.600000X-0.725000X0.600000X-0.725000X-0.600000X0*%
%TD*%
%TA.AperFunction,ComponentPad*%
%ADD14RoundRect,0.250000X-0.600000X-0.725000X0.600000X-0.725000X0.600000X0.725000X-0.600000X0.725000X0*%
%TD*%
%TA.AperFunction,ComponentPad*%
%ADD15O,1.700000X1.950000*%
%TD*%
%TA.AperFunction,ComponentPad*%
%ADD16R,1.700000X1.700000*%
%TD*%
%TA.AperFunction,ComponentPad*%
%ADD17C,1.700000*%
%TD*%
%TA.AperFunction,ComponentPad*%
%ADD18C,0.500000*%
%TD*%
%TA.AperFunction,SMDPad,CuDef*%
%ADD19RoundRect,0.250000X-0.920000X-1.550000X0.920000X-1.550000X0.920000X1.550000X-0.920000X1.550000X0*%
%TD*%
%TA.AperFunction,SMDPad,CuDef*%
%ADD20R,1.000000X3.150000*%
%TD*%
%TA.AperFunction,ViaPad*%
%ADD21C,0.500000*%
%TD*%
%TA.AperFunction,Conductor*%
%ADD22C,0.200000*%
%TD*%
%TA.AperFunction,Conductor*%
%ADD23C,0.300000*%
%TD*%
G04 APERTURE END LIST*
D10*
%TO.P,J4,1,Pin_1*%
%TO.N,GND*%
X82645000Y-98500000D03*
D11*
%TO.P,J4,2,Pin_2*%
%TO.N,/GPIO_Expander/P00*%
X82645000Y-101000000D03*
%TO.P,J4,3,Pin_3*%
%TO.N,+3V3*%
X82645000Y-103500000D03*
%TD*%
D12*
%TO.P,H1,1,1*%
%TO.N,GND*%
X82000000Y-92000000D03*
%TD*%
D10*
%TO.P,J6,1,Pin_1*%
%TO.N,GND*%
X82445000Y-122400000D03*
D11*
%TO.P,J6,2,Pin_2*%
%TO.N,/GPIO_Expander/P02*%
X82445000Y-124900000D03*
%TO.P,J6,3,Pin_3*%
%TO.N,+3V3*%
X82445000Y-127400000D03*
%TD*%
D13*
%TO.P,J14,1,Pin_1*%
%TO.N,GND*%
X174555000Y-127400000D03*
D11*
%TO.P,J14,2,Pin_2*%
%TO.N,/GPIO_Expander/P12*%
X174555000Y-124900000D03*
%TO.P,J14,3,Pin_3*%
%TO.N,+3V3*%
X174555000Y-122400000D03*
%TD*%
D14*
%TO.P,J11,1,Pin_1*%
%TO.N,GND*%
X137650000Y-133555000D03*
D15*
%TO.P,J11,2,Pin_2*%
%TO.N,/GPIO_Expander/P07*%
X140150000Y-133555000D03*
%TO.P,J11,3,Pin_3*%
%TO.N,+3V3*%
X142650000Y-133555000D03*
%TD*%
D16*
%TO.P,J3,1,Pin_1*%
%TO.N,/Bus_switch/Chainbus.SDA*%
X151170000Y-100000000D03*
D17*
%TO.P,J3,2,Pin_2*%
%TO.N,/Bus_switch/Chainbus.SCL*%
X153710000Y-100000000D03*
%TO.P,J3,3,Pin_3*%
%TO.N,GND*%
X156250000Y-100000000D03*
%TO.P,J3,4,Pin_4*%
%TO.N,+3V3*%
X158790000Y-100000000D03*
%TD*%
D14*
%TO.P,J13,1,Pin_1*%
%TO.N,GND*%
X161550000Y-133555000D03*
D15*
%TO.P,J13,2,Pin_2*%
%TO.N,/GPIO_Expander/P11*%
X164050000Y-133555000D03*
%TO.P,J13,3,Pin_3*%
%TO.N,+3V3*%
X166550000Y-133555000D03*
%TD*%
D13*
%TO.P,J15,1,Pin_1*%
%TO.N,GND*%
X174555000Y-115450000D03*
D11*
%TO.P,J15,2,Pin_2*%
%TO.N,/GPIO_Expander/P13*%
X174555000Y-112950000D03*
%TO.P,J15,3,Pin_3*%
%TO.N,+3V3*%
X174555000Y-110450000D03*
%TD*%
D18*
%TO.P,U3,4,VOUT*%
%TO.N,+3V3*%
X100000000Y-109000000D03*
X100000000Y-110000000D03*
D19*
X100000000Y-110000000D03*
D18*
X100000000Y-111000000D03*
%TD*%
D14*
%TO.P,J12,1,Pin_1*%
%TO.N,GND*%
X149600000Y-133555000D03*
D15*
%TO.P,J12,2,Pin_2*%
%TO.N,/GPIO_Expander/P10*%
X152100000Y-133555000D03*
%TO.P,J12,3,Pin_3*%
%TO.N,+3V3*%
X154600000Y-133555000D03*
%TD*%
D14*
%TO.P,J7,1,Pin_1*%
%TO.N,GND*%
X89550000Y-133555000D03*
D15*
%TO.P,J7,2,Pin_2*%
%TO.N,/GPIO_Expander/ADC*%
X92050000Y-133555000D03*
%TO.P,J7,3,Pin_3*%
%TO.N,+3V3*%
X94550000Y-133555000D03*
%TD*%
D14*
%TO.P,J9,1,Pin_1*%
%TO.N,GND*%
X113750000Y-133555000D03*
D15*
%TO.P,J9,2,Pin_2*%
%TO.N,/GPIO_Expander/P05*%
X116250000Y-133555000D03*
%TO.P,J9,3,Pin_3*%
%TO.N,+3V3*%
X118750000Y-133555000D03*
%TD*%
D14*
%TO.P,J10,1,Pin_1*%
%TO.N,GND*%
X125700000Y-133555000D03*
D15*
%TO.P,J10,2,Pin_2*%
%TO.N,/GPIO_Expander/P06*%
X128200000Y-133555000D03*
%TO.P,J10,3,Pin_3*%
%TO.N,+3V3*%
X130700000Y-133555000D03*
%TD*%
D10*
%TO.P,J5,1,Pin_1*%
%TO.N,GND*%
X82445000Y-110450000D03*
D11*
%TO.P,J5,2,Pin_2*%
%TO.N,/GPIO_Expander/P01*%
X82445000Y-112950000D03*
%TO.P,J5,3,Pin_3*%
%TO.N,+3V3*%
X82445000Y-115450000D03*
%TD*%
D14*
%TO.P,J8,1,Pin_1*%
%TO.N,GND*%
X101500000Y-133555000D03*
D15*
%TO.P,J8,2,Pin_2*%
%TO.N,/GPIO_Expander/P04*%
X104000000Y-133555000D03*
%TO.P,J8,3,Pin_3*%
%TO.N,+3V3*%
X106500000Y-133555000D03*
%TD*%
D13*
%TO.P,J16,1,Pin_1*%
%TO.N,GND*%
X174555000Y-103500000D03*
D11*
%TO.P,J16,2,Pin_2*%
%TO.N,/GPIO_Expander/P14*%
X174555000Y-101000000D03*
%TO.P,J16,3,Pin_3*%
%TO.N,+3V3*%
X174555000Y-98500000D03*
%TD*%
D20*
%TO.P,J1,1,Pin_1*%
%TO.N,GND*%
X108940000Y-93013272D03*
%TO.P,J1,2,Pin_2*%
%TO.N,/Bus_switch/SEL1*%
X108940000Y-98063272D03*
%TO.P,J1,3,Pin_3*%
%TO.N,+5V*%
X111480000Y-93013272D03*
%TO.P,J1,4,Pin_4*%
%TO.N,/Interboard_connector/SEL2*%
X111480000Y-98063272D03*
%TO.P,J1,5,Pin_5*%
%TO.N,+5V*%
X114020000Y-93013272D03*
%TO.P,J1,6,Pin_6*%
%TO.N,/Interboard_connector/SEL3*%
X114020000Y-98063272D03*
%TO.P,J1,7,Pin_7*%
%TO.N,GND*%
X116560000Y-93013272D03*
%TO.P,J1,8,Pin_8*%
%TO.N,/Interboard_connector/SEL4*%
X116560000Y-98063272D03*
%TO.P,J1,9,Pin_9*%
%TO.N,BRD_VIN*%
X119100000Y-93013272D03*
%TO.P,J1,10,Pin_10*%
%TO.N,/Interboard_connector/SEL5*%
X119100000Y-98063272D03*
%TO.P,J1,11,Pin_11*%
%TO.N,BRD_VIN*%
X121640000Y-93013272D03*
%TO.P,J1,12,Pin_12*%
%TO.N,/Interboard_connector/SEL6*%
X121640000Y-98063272D03*
%TO.P,J1,13,Pin_13*%
%TO.N,BRD_VIN*%
X124180000Y-93013272D03*
%TO.P,J1,14,Pin_14*%
%TO.N,/Interboard_connector/SEL7*%
X124180000Y-98063272D03*
%TO.P,J1,15,Pin_15*%
%TO.N,BRD_VIN*%
X126720000Y-93013272D03*
%TO.P,J1,16,Pin_16*%
%TO.N,/Interboard_connector/SEL8*%
X126720000Y-98063272D03*
%TO.P,J1,17,Pin_17*%
%TO.N,GND*%
X129260000Y-93013272D03*
%TO.P,J1,18,Pin_18*%
%TO.N,/Bus_switch/Chainbus_In.SDA*%
X129260000Y-98063272D03*
%TO.P,J1,19,Pin_19*%
%TO.N,GND*%
X131800000Y-93013272D03*
%TO.P,J1,20,Pin_20*%
%TO.N,/Bus_switch/Chainbus_In.SCL*%
X131800000Y-98063272D03*
%TO.P,J1,21,Pin_21*%
%TO.N,GND*%
X134340000Y-93013272D03*
%TO.P,J1,22,Pin_22*%
%TO.N,/Bus_switch/Chainbus_In.CS*%
X134340000Y-98063272D03*
%TO.P,J1,23,Pin_23*%
%TO.N,GND*%
X136880000Y-93013272D03*
%TO.P,J1,24,Pin_24*%
%TO.N,/Bus_switch/Chainbus_In.SCK*%
X136880000Y-98063272D03*
%TO.P,J1,25,Pin_25*%
%TO.N,unconnected-(J1-Pin_25-Pad25)*%
X139420000Y-93013272D03*
%TO.P,J1,26,Pin_26*%
%TO.N,/Bus_switch/Chainbus_In.MOSI*%
X139420000Y-98063272D03*
%TO.P,J1,27,Pin_27*%
%TO.N,unconnected-(J1-Pin_27-Pad27)*%
X141960000Y-93013272D03*
%TO.P,J1,28,Pin_28*%
%TO.N,/Bus_switch/Chainbus_In.MISO*%
X141960000Y-98063272D03*
%TO.P,J1,29,Pin_29*%
%TO.N,+12V stby*%
X144500000Y-93013272D03*
%TO.P,J1,30,Pin_30*%
%TO.N,/Bus_switch/Chainbus_In.TX*%
X144500000Y-98063272D03*
%TO.P,J1,31,Pin_31*%
%TO.N,GND*%
X147040000Y-93013272D03*
%TO.P,J1,32,Pin_32*%
%TO.N,/Bus_switch/Chainbus_In.RX*%
X147040000Y-98063272D03*
%TD*%
D21*
%TO.N,/Bus_switch/Chainbus.SCL*%
X128600000Y-114900000D03*
X116700000Y-119000000D03*
%TO.N,/Bus_switch/Chainbus.SDA*%
X128000000Y-114300000D03*
X117600000Y-118000000D03*
%TO.N,GND*%
X94900000Y-122200000D03*
X93100000Y-130300000D03*
X92100000Y-125100000D03*
X170500000Y-102700000D03*
X133050000Y-92050000D03*
X126100000Y-120800000D03*
X115650000Y-93800000D03*
X115650000Y-91750000D03*
X110100000Y-92950000D03*
X148150000Y-92950000D03*
X126300000Y-114200000D03*
X139700000Y-101250000D03*
X129100000Y-115600000D03*
X170550000Y-98800000D03*
X162500000Y-104250000D03*
X130500000Y-94000000D03*
X170600000Y-100150000D03*
X168000000Y-97150000D03*
X148150000Y-94000000D03*
X148150000Y-91950000D03*
X110000000Y-106000000D03*
X170500000Y-101350000D03*
X115650000Y-92750000D03*
X126200000Y-114900000D03*
X150050000Y-105400000D03*
X110100000Y-91950000D03*
X106000000Y-114000000D03*
X133050000Y-94100000D03*
X130500000Y-92950000D03*
X135600000Y-92000000D03*
X106800000Y-113900000D03*
X105200000Y-113900000D03*
X135600000Y-94050000D03*
X148900000Y-107900000D03*
X135600000Y-93000000D03*
X110100000Y-94000000D03*
X133050000Y-93050000D03*
X130500000Y-91950000D03*
%TO.N,/GPIO_Expander/P00*%
X90100000Y-105300000D03*
%TO.N,+3V3*%
X150050000Y-107000000D03*
X147000000Y-111000000D03*
X159600000Y-96400000D03*
X138000000Y-111000000D03*
%TO.N,+5V*%
X112750000Y-93600000D03*
X112750000Y-92850000D03*
X112750000Y-94300000D03*
%TO.N,/Bus_switch/Chainbus_In.RX*%
X148200000Y-98050000D03*
%TO.N,/Bus_switch/Chainbus_In.MOSI*%
X140450000Y-98000000D03*
%TO.N,/Bus_switch/Chainbus_In.SDA*%
X142200000Y-105600000D03*
X130300000Y-98100000D03*
%TO.N,/Bus_switch/SEL1*%
X152400000Y-102100000D03*
X165200000Y-95250000D03*
X140000000Y-107200000D03*
X141200000Y-105500000D03*
%TO.N,/Interboard_connector/SEL2*%
X110250000Y-98000000D03*
%TO.N,/Bus_switch/Chainbus_In.TX*%
X145650000Y-97950000D03*
%TO.N,/Interboard_connector/SEL8*%
X125563272Y-98063272D03*
%TO.N,/Interboard_connector/SEL5*%
X117750000Y-98000000D03*
%TO.N,/Interboard_connector/SEL7*%
X123063272Y-98063272D03*
%TO.N,/Interboard_connector/SEL4*%
X115250000Y-98000000D03*
%TO.N,/Bus_switch/Chainbus_In.SCK*%
X137850000Y-98050000D03*
%TO.N,/Bus_switch/Chainbus_In.MISO*%
X143000000Y-98000000D03*
%TO.N,+12V stby*%
X143400000Y-93050000D03*
%TO.N,/Bus_switch/Chainbus_In.SCL*%
X132850000Y-98050000D03*
X143900000Y-105900000D03*
%TO.N,/Bus_switch/Chainbus_In.CS*%
X135400000Y-98050000D03*
%TO.N,/Interboard_connector/SEL3*%
X112750000Y-98000000D03*
%TO.N,/Interboard_connector/SEL6*%
X120250000Y-98000000D03*
%TO.N,BRD_VIN*%
X122900000Y-92950000D03*
X120350000Y-93900000D03*
X125450000Y-91950000D03*
X120350000Y-92900000D03*
X122900000Y-93950000D03*
X125450000Y-92950000D03*
X120350000Y-91900000D03*
X122900000Y-91950000D03*
X125450000Y-93950000D03*
%TO.N,/Bus_switch/Chainbus.SCL*%
X156500000Y-97200000D03*
X144600000Y-108400000D03*
%TO.N,/Bus_switch/Chainbus.SDA*%
X143600000Y-108500000D03*
%TD*%
D22*
%TO.N,/Bus_switch/Chainbus.SCL*%
X124500000Y-119000000D02*
X128600000Y-114900000D01*
X116700000Y-119000000D02*
X124500000Y-119000000D01*
%TO.N,/Bus_switch/Chainbus.SDA*%
X124300000Y-118000000D02*
X128000000Y-114300000D01*
X117600000Y-118000000D02*
X124300000Y-118000000D01*
%TO.N,/GPIO_Expander/P00*%
X90100000Y-105300000D02*
X85800000Y-101000000D01*
X85800000Y-101000000D02*
X82445000Y-101000000D01*
D23*
%TO.N,+3V3*%
X158790000Y-100000000D02*
X158790000Y-97210000D01*
X158810000Y-99980000D02*
X158790000Y-100000000D01*
X158790000Y-100000000D02*
X158790000Y-103110000D01*
X154900000Y-107000000D02*
X150050000Y-107000000D01*
X138000000Y-111000000D02*
X147000000Y-111000000D01*
X158790000Y-103110000D02*
X154900000Y-107000000D01*
X158790000Y-97210000D02*
X159600000Y-96400000D01*
D22*
%TO.N,/Bus_switch/Chainbus_In.RX*%
X148200000Y-98050000D02*
X147053272Y-98050000D01*
X147053272Y-98050000D02*
X147040000Y-98063272D01*
%TO.N,/Bus_switch/Chainbus_In.MOSI*%
X140450000Y-98000000D02*
X139483272Y-98000000D01*
X139483272Y-98000000D02*
X139420000Y-98063272D01*
%TO.N,/Bus_switch/Chainbus_In.SDA*%
X129296728Y-98100000D02*
X129260000Y-98063272D01*
X134900000Y-101198000D02*
X137994388Y-101198000D01*
X130300000Y-98100000D02*
X129296728Y-98100000D01*
X137994388Y-101198000D02*
X142200000Y-105403612D01*
X142200000Y-105403612D02*
X142200000Y-105600000D01*
X132394728Y-101198000D02*
X134900000Y-101198000D01*
X129260000Y-98063272D02*
X132394728Y-101198000D01*
%TO.N,/Bus_switch/SEL1*%
X132249340Y-101549000D02*
X137849000Y-101549000D01*
X156650000Y-95250000D02*
X165200000Y-95250000D01*
X111323272Y-95680000D02*
X127180000Y-95680000D01*
X140251000Y-105200000D02*
X140251000Y-106949000D01*
X128919000Y-101549000D02*
X132249340Y-101549000D01*
X140251000Y-103951000D02*
X140251000Y-105200000D01*
X137849000Y-101549000D02*
X140251000Y-103951000D01*
X140900000Y-105200000D02*
X141200000Y-105500000D01*
X140251000Y-105200000D02*
X140900000Y-105200000D01*
X108940000Y-98063272D02*
X111323272Y-95680000D01*
X140251000Y-106949000D02*
X140000000Y-107200000D01*
X128140000Y-96640000D02*
X128140000Y-100770000D01*
X152400000Y-99500000D02*
X156250000Y-95650000D01*
X152400000Y-102100000D02*
X152400000Y-99500000D01*
X127180000Y-95680000D02*
X128140000Y-96640000D01*
X128140000Y-100770000D02*
X128919000Y-101549000D01*
X156250000Y-95650000D02*
X156650000Y-95250000D01*
%TO.N,/Interboard_connector/SEL2*%
X110313272Y-98063272D02*
X110250000Y-98000000D01*
X111480000Y-98063272D02*
X110313272Y-98063272D01*
%TO.N,/Bus_switch/Chainbus_In.TX*%
X145536728Y-98063272D02*
X145650000Y-97950000D01*
X144500000Y-98063272D02*
X145536728Y-98063272D01*
%TO.N,/Interboard_connector/SEL8*%
X126720000Y-98063272D02*
X125563272Y-98063272D01*
%TO.N,/Interboard_connector/SEL5*%
X117813272Y-98063272D02*
X117750000Y-98000000D01*
X119100000Y-98063272D02*
X117813272Y-98063272D01*
%TO.N,/Interboard_connector/SEL7*%
X124180000Y-98063272D02*
X123063272Y-98063272D01*
%TO.N,/Interboard_connector/SEL4*%
X115313272Y-98063272D02*
X115250000Y-98000000D01*
X116560000Y-98063272D02*
X115313272Y-98063272D01*
%TO.N,/Bus_switch/Chainbus_In.SCK*%
X137850000Y-98050000D02*
X136893272Y-98050000D01*
X136893272Y-98050000D02*
X136880000Y-98063272D01*
%TO.N,/Bus_switch/Chainbus_In.MISO*%
X141960000Y-98063272D02*
X142936728Y-98063272D01*
X142936728Y-98063272D02*
X143000000Y-98000000D01*
D23*
%TO.N,+12V stby*%
X143436728Y-93013272D02*
X143400000Y-93050000D01*
X144500000Y-93013272D02*
X143436728Y-93013272D01*
D22*
%TO.N,/Bus_switch/Chainbus_In.SCL*%
X132850000Y-98050000D02*
X131813272Y-98050000D01*
X142100000Y-104100000D02*
X143900000Y-105900000D01*
X131800000Y-98063272D02*
X134583728Y-100847000D01*
X138147000Y-100847000D02*
X141400000Y-104100000D01*
X134583728Y-100847000D02*
X138147000Y-100847000D01*
X131813272Y-98050000D02*
X131800000Y-98063272D01*
X141400000Y-104100000D02*
X142100000Y-104100000D01*
%TO.N,/Bus_switch/Chainbus_In.CS*%
X135400000Y-98050000D02*
X134353272Y-98050000D01*
X134353272Y-98050000D02*
X134340000Y-98063272D01*
%TO.N,/Interboard_connector/SEL3*%
X114020000Y-98063272D02*
X112813272Y-98063272D01*
X112813272Y-98063272D02*
X112750000Y-98000000D01*
%TO.N,/Interboard_connector/SEL6*%
X120313272Y-98063272D02*
X120250000Y-98000000D01*
X121640000Y-98063272D02*
X120313272Y-98063272D01*
%TO.N,/Bus_switch/Chainbus.SCL*%
X153200000Y-106400000D02*
X146600000Y-106400000D01*
X153710000Y-100000000D02*
X153710000Y-105890000D01*
X156500000Y-97200000D02*
X156500000Y-97210000D01*
X156500000Y-97210000D02*
X153710000Y-100000000D01*
X153710000Y-105890000D02*
X153200000Y-106400000D01*
X146600000Y-106400000D02*
X144600000Y-108400000D01*
%TO.N,/Bus_switch/Chainbus.SDA*%
X145300000Y-106000000D02*
X150500000Y-106000000D01*
X150500000Y-106000000D02*
X151170000Y-105330000D01*
X143600000Y-108500000D02*
X143600000Y-107700000D01*
X143600000Y-107700000D02*
X145300000Y-106000000D01*
X151170000Y-105330000D02*
X151170000Y-100000000D01*
%TD*%
%TA.AperFunction,Conductor*%
%TO.N,GND*%
G36*
X117300000Y-94450000D02*
G01*
X115250000Y-94450000D01*
X115250000Y-91300000D01*
X117300000Y-91300000D01*
X117300000Y-94450000D01*
G37*
%TD.AperFunction*%
%TD*%
%TA.AperFunction,Conductor*%
%TO.N,GND*%
G36*
X137400000Y-94600000D02*
G01*
X128700000Y-94600000D01*
X128700000Y-91450000D01*
X137400000Y-91450000D01*
X137400000Y-94600000D01*
G37*
%TD.AperFunction*%
%TD*%
%TA.AperFunction,Conductor*%
%TO.N,GND*%
G36*
X110350000Y-94600000D02*
G01*
X108300000Y-94600000D01*
X108300000Y-91450000D01*
X110350000Y-91450000D01*
X110350000Y-94600000D01*
G37*
%TD.AperFunction*%
%TD*%
%TA.AperFunction,Conductor*%
%TO.N,GND*%
G36*
X157365270Y-100761717D02*
G01*
X157365270Y-100761716D01*
X157404622Y-100707554D01*
X157501095Y-100518217D01*
X157558343Y-100342026D01*
X157597780Y-100284351D01*
X157662139Y-100257152D01*
X157730985Y-100269066D01*
X157782461Y-100316310D01*
X157790835Y-100332891D01*
X157845939Y-100465925D01*
X157859059Y-100497598D01*
X157872836Y-100518217D01*
X157974024Y-100669657D01*
X158120342Y-100815975D01*
X158292405Y-100930943D01*
X158362952Y-100960164D01*
X158417356Y-101004005D01*
X158439421Y-101070299D01*
X158439500Y-101074725D01*
X158439500Y-102913456D01*
X158419815Y-102980495D01*
X158403181Y-103001137D01*
X154791137Y-106613181D01*
X154729814Y-106646666D01*
X154703456Y-106649500D01*
X153674833Y-106649500D01*
X153607794Y-106629815D01*
X153562039Y-106577011D01*
X153552095Y-106507853D01*
X153581120Y-106444297D01*
X153587152Y-106437819D01*
X153764485Y-106260486D01*
X153950460Y-106074511D01*
X153961963Y-106054587D01*
X153990021Y-106005989D01*
X154010500Y-105929562D01*
X154010500Y-101095435D01*
X154016132Y-101076253D01*
X154016846Y-101056275D01*
X154025774Y-101043415D01*
X154030185Y-101028396D01*
X154045292Y-101015305D01*
X154056695Y-100998883D01*
X154080641Y-100984675D01*
X154082989Y-100982641D01*
X154087012Y-100980889D01*
X154207598Y-100930941D01*
X154379655Y-100815977D01*
X154525977Y-100669655D01*
X154640941Y-100497598D01*
X154709165Y-100332889D01*
X154753004Y-100278488D01*
X154819298Y-100256423D01*
X154886998Y-100273702D01*
X154934609Y-100324839D01*
X154941656Y-100342026D01*
X154998904Y-100518216D01*
X155095375Y-100707550D01*
X155134728Y-100761716D01*
X155767037Y-100129408D01*
X155784075Y-100192993D01*
X155849901Y-100307007D01*
X155942993Y-100400099D01*
X156057007Y-100465925D01*
X156120590Y-100482962D01*
X155488282Y-101115269D01*
X155488282Y-101115270D01*
X155542449Y-101154624D01*
X155731782Y-101251095D01*
X155933870Y-101316757D01*
X156143754Y-101350000D01*
X156356246Y-101350000D01*
X156566127Y-101316757D01*
X156566130Y-101316757D01*
X156768217Y-101251095D01*
X156957554Y-101154622D01*
X157011716Y-101115270D01*
X157011717Y-101115270D01*
X156379408Y-100482962D01*
X156442993Y-100465925D01*
X156557007Y-100400099D01*
X156650099Y-100307007D01*
X156715925Y-100192993D01*
X156732962Y-100129408D01*
X157365270Y-100761717D01*
G37*
%TD.AperFunction*%
%TA.AperFunction,Conductor*%
G36*
X84280888Y-89019685D02*
G01*
X84326643Y-89072489D01*
X84337849Y-89124000D01*
X84337849Y-90057177D01*
X86337849Y-90057177D01*
X86337849Y-89124000D01*
X86357534Y-89056961D01*
X86410338Y-89011206D01*
X86461849Y-89000000D01*
X176876000Y-89000000D01*
X176943039Y-89019685D01*
X176988794Y-89072489D01*
X177000000Y-89124000D01*
X177000000Y-136876000D01*
X176980315Y-136943039D01*
X176927511Y-136988794D01*
X176876000Y-137000000D01*
X80124000Y-137000000D01*
X80056961Y-136980315D01*
X80011206Y-136927511D01*
X80000000Y-136876000D01*
X80000000Y-136000000D01*
X79124000Y-136000000D01*
X79056961Y-135980315D01*
X79011206Y-135927511D01*
X79000000Y-135876000D01*
X79000000Y-133874038D01*
X80399500Y-133874038D01*
X80399500Y-134125962D01*
X80434930Y-134349655D01*
X80438910Y-134374785D01*
X80516760Y-134614383D01*
X80631132Y-134838848D01*
X80779201Y-135042649D01*
X80779205Y-135042654D01*
X80957345Y-135220794D01*
X80957350Y-135220798D01*
X81135117Y-135349952D01*
X81161155Y-135368870D01*
X81304184Y-135441747D01*
X81385616Y-135483239D01*
X81385618Y-135483239D01*
X81385621Y-135483241D01*
X81625215Y-135561090D01*
X81874038Y-135600500D01*
X81874039Y-135600500D01*
X82125961Y-135600500D01*
X82125962Y-135600500D01*
X82374785Y-135561090D01*
X82614379Y-135483241D01*
X82838845Y-135368870D01*
X83042656Y-135220793D01*
X83220793Y-135042656D01*
X83368870Y-134838845D01*
X83483241Y-134614379D01*
X83561090Y-134374785D01*
X83600500Y-134125962D01*
X83600500Y-133874038D01*
X83595897Y-133844974D01*
X83584503Y-133773036D01*
X83561090Y-133625214D01*
X83483239Y-133385616D01*
X83420937Y-133263343D01*
X83368870Y-133161155D01*
X83226480Y-132965171D01*
X83220798Y-132957350D01*
X83220794Y-132957345D01*
X83043462Y-132780013D01*
X88200000Y-132780013D01*
X88200000Y-133305000D01*
X89145854Y-133305000D01*
X89107370Y-133371657D01*
X89075000Y-133492465D01*
X89075000Y-133617535D01*
X89107370Y-133738343D01*
X89145854Y-133805000D01*
X88200001Y-133805000D01*
X88200001Y-134329986D01*
X88210494Y-134432697D01*
X88265641Y-134599119D01*
X88265643Y-134599124D01*
X88357684Y-134748345D01*
X88481654Y-134872315D01*
X88630875Y-134964356D01*
X88630880Y-134964358D01*
X88797302Y-135019505D01*
X88797309Y-135019506D01*
X88900019Y-135029999D01*
X89299999Y-135029999D01*
X89300000Y-135029998D01*
X89300000Y-133959145D01*
X89366657Y-133997630D01*
X89487465Y-134030000D01*
X89612535Y-134030000D01*
X89733343Y-133997630D01*
X89800000Y-133959145D01*
X89800000Y-135029999D01*
X90199972Y-135029999D01*
X90199986Y-135029998D01*
X90302697Y-135019505D01*
X90469119Y-134964358D01*
X90469124Y-134964356D01*
X90618345Y-134872315D01*
X90742315Y-134748345D01*
X90834356Y-134599124D01*
X90834358Y-134599119D01*
X90889505Y-134432697D01*
X90889506Y-134432690D01*
X90899999Y-134329986D01*
X90899999Y-134258528D01*
X90919683Y-134191488D01*
X90972486Y-134145732D01*
X91041644Y-134135788D01*
X91105200Y-134164812D01*
X91127101Y-134189635D01*
X91234022Y-134349655D01*
X91380342Y-134495975D01*
X91380345Y-134495977D01*
X91552402Y-134610941D01*
X91743580Y-134690130D01*
X91946530Y-134730499D01*
X91946534Y-134730500D01*
X91946535Y-134730500D01*
X92153466Y-134730500D01*
X92153467Y-134730499D01*
X92356420Y-134690130D01*
X92547598Y-134610941D01*
X92719655Y-134495977D01*
X92865977Y-134349655D01*
X92980941Y-134177598D01*
X93060130Y-133986420D01*
X93100500Y-133783465D01*
X93100500Y-133326535D01*
X93100499Y-133326530D01*
X93499500Y-133326530D01*
X93499500Y-133783469D01*
X93539868Y-133986412D01*
X93539870Y-133986420D01*
X93619058Y-134177596D01*
X93734024Y-134349657D01*
X93880342Y-134495975D01*
X93880345Y-134495977D01*
X94052402Y-134610941D01*
X94243580Y-134690130D01*
X94446530Y-134730499D01*
X94446534Y-134730500D01*
X94446535Y-134730500D01*
X94653466Y-134730500D01*
X94653467Y-134730499D01*
X94856420Y-134690130D01*
X95047598Y-134610941D01*
X95219655Y-134495977D01*
X95365977Y-134349655D01*
X95480941Y-134177598D01*
X95560130Y-133986420D01*
X95600500Y-133783465D01*
X95600500Y-133326535D01*
X95560130Y-133123580D01*
X95480941Y-132932402D01*
X95423044Y-132845753D01*
X95423044Y-132845751D01*
X95379119Y-132780013D01*
X100150000Y-132780013D01*
X100150000Y-133305000D01*
X101095854Y-133305000D01*
X101057370Y-133371657D01*
X101025000Y-133492465D01*
X101025000Y-133617535D01*
X101057370Y-133738343D01*
X101095854Y-133805000D01*
X100150001Y-133805000D01*
X100150001Y-134329986D01*
X100160494Y-134432697D01*
X100215641Y-134599119D01*
X100215643Y-134599124D01*
X100307684Y-134748345D01*
X100431654Y-134872315D01*
X100580875Y-134964356D01*
X100580880Y-134964358D01*
X100747302Y-135019505D01*
X100747309Y-135019506D01*
X100850019Y-135029999D01*
X101249999Y-135029999D01*
X101250000Y-135029998D01*
X101250000Y-133959145D01*
X101316657Y-133997630D01*
X101437465Y-134030000D01*
X101562535Y-134030000D01*
X101683343Y-133997630D01*
X101750000Y-133959145D01*
X101750000Y-135029999D01*
X102149972Y-135029999D01*
X102149986Y-135029998D01*
X102252697Y-135019505D01*
X102419119Y-134964358D01*
X102419124Y-134964356D01*
X102568345Y-134872315D01*
X102692315Y-134748345D01*
X102784356Y-134599124D01*
X102784358Y-134599119D01*
X102839505Y-134432697D01*
X102839506Y-134432690D01*
X102849999Y-134329986D01*
X102849999Y-134258528D01*
X102869683Y-134191488D01*
X102922486Y-134145732D01*
X102991644Y-134135788D01*
X103055200Y-134164812D01*
X103077101Y-134189635D01*
X103184022Y-134349655D01*
X103330342Y-134495975D01*
X103330345Y-134495977D01*
X103502402Y-134610941D01*
X103693580Y-134690130D01*
X103896530Y-134730499D01*
X103896534Y-134730500D01*
X103896535Y-134730500D01*
X104103466Y-134730500D01*
X104103467Y-134730499D01*
X104306420Y-134690130D01*
X104497598Y-134610941D01*
X104669655Y-134495977D01*
X104815977Y-134349655D01*
X104930941Y-134177598D01*
X105010130Y-133986420D01*
X105050500Y-133783465D01*
X105050500Y-133326535D01*
X105050499Y-133326530D01*
X105449500Y-133326530D01*
X105449500Y-133783469D01*
X105489868Y-133986412D01*
X105489870Y-133986420D01*
X105569058Y-134177596D01*
X105684024Y-134349657D01*
X105830342Y-134495975D01*
X105830345Y-134495977D01*
X106002402Y-134610941D01*
X106193580Y-134690130D01*
X106396530Y-134730499D01*
X106396534Y-134730500D01*
X106396535Y-134730500D01*
X106603466Y-134730500D01*
X106603467Y-134730499D01*
X106806420Y-134690130D01*
X106997598Y-134610941D01*
X107169655Y-134495977D01*
X107315977Y-134349655D01*
X107430941Y-134177598D01*
X107510130Y-133986420D01*
X107550500Y-133783465D01*
X107550500Y-133326535D01*
X107510130Y-133123580D01*
X107430941Y-132932402D01*
X107373044Y-132845753D01*
X107373044Y-132845751D01*
X107329119Y-132780013D01*
X112400000Y-132780013D01*
X112400000Y-133305000D01*
X113345854Y-133305000D01*
X113307370Y-133371657D01*
X113275000Y-133492465D01*
X113275000Y-133617535D01*
X113307370Y-133738343D01*
X113345854Y-133805000D01*
X112400001Y-133805000D01*
X112400001Y-134329986D01*
X112410494Y-134432697D01*
X112465641Y-134599119D01*
X112465643Y-134599124D01*
X112557684Y-134748345D01*
X112681654Y-134872315D01*
X112830875Y-134964356D01*
X112830880Y-134964358D01*
X112997302Y-135019505D01*
X112997309Y-135019506D01*
X113100019Y-135029999D01*
X113499999Y-135029999D01*
X113500000Y-135029998D01*
X113500000Y-133959145D01*
X113566657Y-133997630D01*
X113687465Y-134030000D01*
X113812535Y-134030000D01*
X113933343Y-133997630D01*
X114000000Y-133959145D01*
X114000000Y-135029999D01*
X114399972Y-135029999D01*
X114399986Y-135029998D01*
X114502697Y-135019505D01*
X114669119Y-134964358D01*
X114669124Y-134964356D01*
X114818345Y-134872315D01*
X114942315Y-134748345D01*
X115034356Y-134599124D01*
X115034358Y-134599119D01*
X115089505Y-134432697D01*
X115089506Y-134432690D01*
X115099999Y-134329986D01*
X115099999Y-134258528D01*
X115119683Y-134191488D01*
X115172486Y-134145732D01*
X115241644Y-134135788D01*
X115305200Y-134164812D01*
X115327101Y-134189635D01*
X115434022Y-134349655D01*
X115580342Y-134495975D01*
X115580345Y-134495977D01*
X115752402Y-134610941D01*
X115943580Y-134690130D01*
X116146530Y-134730499D01*
X116146534Y-134730500D01*
X116146535Y-134730500D01*
X116353466Y-134730500D01*
X116353467Y-134730499D01*
X116556420Y-134690130D01*
X116747598Y-134610941D01*
X116919655Y-134495977D01*
X117065977Y-134349655D01*
X117180941Y-134177598D01*
X117260130Y-133986420D01*
X117300500Y-133783465D01*
X117300500Y-133326535D01*
X117300499Y-133326530D01*
X117699500Y-133326530D01*
X117699500Y-133783469D01*
X117739868Y-133986412D01*
X117739870Y-133986420D01*
X117819058Y-134177596D01*
X117934024Y-134349657D01*
X118080342Y-134495975D01*
X118080345Y-134495977D01*
X118252402Y-134610941D01*
X118443580Y-134690130D01*
X118646530Y-134730499D01*
X118646534Y-134730500D01*
X118646535Y-134730500D01*
X118853466Y-134730500D01*
X118853467Y-134730499D01*
X119056420Y-134690130D01*
X119247598Y-134610941D01*
X119419655Y-134495977D01*
X119565977Y-134349655D01*
X119680941Y-134177598D01*
X119760130Y-133986420D01*
X119800500Y-133783465D01*
X119800500Y-133326535D01*
X119760130Y-133123580D01*
X119680941Y-132932402D01*
X119623044Y-132845753D01*
X119623044Y-132845751D01*
X119579119Y-132780013D01*
X124350000Y-132780013D01*
X124350000Y-133305000D01*
X125295854Y-133305000D01*
X125257370Y-133371657D01*
X125225000Y-133492465D01*
X125225000Y-133617535D01*
X125257370Y-133738343D01*
X125295854Y-133805000D01*
X124350001Y-133805000D01*
X124350001Y-134329986D01*
X124360494Y-134432697D01*
X124415641Y-134599119D01*
X124415643Y-134599124D01*
X124507684Y-134748345D01*
X124631654Y-134872315D01*
X124780875Y-134964356D01*
X124780880Y-134964358D01*
X124947302Y-135019505D01*
X124947309Y-135019506D01*
X125050019Y-135029999D01*
X125449999Y-135029999D01*
X125450000Y-135029998D01*
X125450000Y-133959145D01*
X125516657Y-133997630D01*
X125637465Y-134030000D01*
X125762535Y-134030000D01*
X125883343Y-133997630D01*
X125950000Y-133959145D01*
X125950000Y-135029999D01*
X126349972Y-135029999D01*
X126349986Y-135029998D01*
X126452697Y-135019505D01*
X126619119Y-134964358D01*
X126619124Y-134964356D01*
X126768345Y-134872315D01*
X126892315Y-134748345D01*
X126984356Y-134599124D01*
X126984358Y-134599119D01*
X127039505Y-134432697D01*
X127039506Y-134432690D01*
X127049999Y-134329986D01*
X127049999Y-134258528D01*
X127069683Y-134191488D01*
X127122486Y-134145732D01*
X127191644Y-134135788D01*
X127255200Y-134164812D01*
X127277101Y-134189635D01*
X127384022Y-134349655D01*
X127530342Y-134495975D01*
X127530345Y-134495977D01*
X127702402Y-134610941D01*
X127893580Y-134690130D01*
X128096530Y-134730499D01*
X128096534Y-134730500D01*
X128096535Y-134730500D01*
X128303466Y-134730500D01*
X128303467Y-134730499D01*
X128506420Y-134690130D01*
X128697598Y-134610941D01*
X128869655Y-134495977D01*
X129015977Y-134349655D01*
X129130941Y-134177598D01*
X129210130Y-133986420D01*
X129250500Y-133783465D01*
X129250500Y-133326535D01*
X129250499Y-133326530D01*
X129649500Y-133326530D01*
X129649500Y-133783469D01*
X129689868Y-133986412D01*
X129689870Y-133986420D01*
X129769058Y-134177596D01*
X129884024Y-134349657D01*
X130030342Y-134495975D01*
X130030345Y-134495977D01*
X130202402Y-134610941D01*
X130393580Y-134690130D01*
X130596530Y-134730499D01*
X130596534Y-134730500D01*
X130596535Y-134730500D01*
X130803466Y-134730500D01*
X130803467Y-134730499D01*
X131006420Y-134690130D01*
X131197598Y-134610941D01*
X131369655Y-134495977D01*
X131515977Y-134349655D01*
X131630941Y-134177598D01*
X131710130Y-133986420D01*
X131750500Y-133783465D01*
X131750500Y-133326535D01*
X131710130Y-133123580D01*
X131630941Y-132932402D01*
X131573044Y-132845753D01*
X131573044Y-132845751D01*
X131529119Y-132780013D01*
X136300000Y-132780013D01*
X136300000Y-133305000D01*
X137245854Y-133305000D01*
X137207370Y-133371657D01*
X137175000Y-133492465D01*
X137175000Y-133617535D01*
X137207370Y-133738343D01*
X137245854Y-133805000D01*
X136300001Y-133805000D01*
X136300001Y-134329986D01*
X136310494Y-134432697D01*
X136365641Y-134599119D01*
X136365643Y-134599124D01*
X136457684Y-134748345D01*
X136581654Y-134872315D01*
X136730875Y-134964356D01*
X136730880Y-134964358D01*
X136897302Y-135019505D01*
X136897309Y-135019506D01*
X137000019Y-135029999D01*
X137399999Y-135029999D01*
X137400000Y-135029998D01*
X137400000Y-133959145D01*
X137466657Y-133997630D01*
X137587465Y-134030000D01*
X137712535Y-134030000D01*
X137833343Y-133997630D01*
X137900000Y-133959145D01*
X137900000Y-135029999D01*
X138299972Y-135029999D01*
X138299986Y-135029998D01*
X138402697Y-135019505D01*
X138569119Y-134964358D01*
X138569124Y-134964356D01*
X138718345Y-134872315D01*
X138842315Y-134748345D01*
X138934356Y-134599124D01*
X138934358Y-134599119D01*
X138989505Y-134432697D01*
X138989506Y-134432690D01*
X138999999Y-134329986D01*
X138999999Y-134258528D01*
X139019683Y-134191488D01*
X139072486Y-134145732D01*
X139141644Y-134135788D01*
X139205200Y-134164812D01*
X139227101Y-134189635D01*
X139334022Y-134349655D01*
X139480342Y-134495975D01*
X139480345Y-134495977D01*
X139652402Y-134610941D01*
X139843580Y-134690130D01*
X140046530Y-134730499D01*
X140046534Y-134730500D01*
X140046535Y-134730500D01*
X140253466Y-134730500D01*
X140253467Y-134730499D01*
X140456420Y-134690130D01*
X140647598Y-134610941D01*
X140819655Y-134495977D01*
X140965977Y-134349655D01*
X141080941Y-134177598D01*
X141160130Y-133986420D01*
X141200500Y-133783465D01*
X141200500Y-133326535D01*
X141200499Y-133326530D01*
X141599500Y-133326530D01*
X141599500Y-133783469D01*
X141639868Y-133986412D01*
X141639870Y-133986420D01*
X141719058Y-134177596D01*
X141834024Y-134349657D01*
X141980342Y-134495975D01*
X141980345Y-134495977D01*
X142152402Y-134610941D01*
X142343580Y-134690130D01*
X142546530Y-134730499D01*
X142546534Y-134730500D01*
X142546535Y-134730500D01*
X142753466Y-134730500D01*
X142753467Y-134730499D01*
X142956420Y-134690130D01*
X143147598Y-134610941D01*
X143319655Y-134495977D01*
X143465977Y-134349655D01*
X143580941Y-134177598D01*
X143660130Y-133986420D01*
X143700500Y-133783465D01*
X143700500Y-133326535D01*
X143660130Y-133123580D01*
X143580941Y-132932402D01*
X143523044Y-132845753D01*
X143523044Y-132845751D01*
X143479119Y-132780013D01*
X148250000Y-132780013D01*
X148250000Y-133305000D01*
X149195854Y-133305000D01*
X149157370Y-133371657D01*
X149125000Y-133492465D01*
X149125000Y-133617535D01*
X149157370Y-133738343D01*
X149195854Y-133805000D01*
X148250001Y-133805000D01*
X148250001Y-134329986D01*
X148260494Y-134432697D01*
X148315641Y-134599119D01*
X148315643Y-134599124D01*
X148407684Y-134748345D01*
X148531654Y-134872315D01*
X148680875Y-134964356D01*
X148680880Y-134964358D01*
X148847302Y-135019505D01*
X148847309Y-135019506D01*
X148950019Y-135029999D01*
X149349999Y-135029999D01*
X149350000Y-135029998D01*
X149350000Y-133959145D01*
X149416657Y-133997630D01*
X149537465Y-134030000D01*
X149662535Y-134030000D01*
X149783343Y-133997630D01*
X149850000Y-133959145D01*
X149850000Y-135029999D01*
X150249972Y-135029999D01*
X150249986Y-135029998D01*
X150352697Y-135019505D01*
X150519119Y-134964358D01*
X150519124Y-134964356D01*
X150668345Y-134872315D01*
X150792315Y-134748345D01*
X150884356Y-134599124D01*
X150884358Y-134599119D01*
X150939505Y-134432697D01*
X150939506Y-134432690D01*
X150949999Y-134329986D01*
X150949999Y-134258528D01*
X150969683Y-134191488D01*
X151022486Y-134145732D01*
X151091644Y-134135788D01*
X151155200Y-134164812D01*
X151177101Y-134189635D01*
X151284022Y-134349655D01*
X151430342Y-134495975D01*
X151430345Y-134495977D01*
X151602402Y-134610941D01*
X151793580Y-134690130D01*
X151996530Y-134730499D01*
X151996534Y-134730500D01*
X151996535Y-134730500D01*
X152203466Y-134730500D01*
X152203467Y-134730499D01*
X152406420Y-134690130D01*
X152597598Y-134610941D01*
X152769655Y-134495977D01*
X152915977Y-134349655D01*
X153030941Y-134177598D01*
X153110130Y-133986420D01*
X153150500Y-133783465D01*
X153150500Y-133326535D01*
X153150499Y-133326530D01*
X153549500Y-133326530D01*
X153549500Y-133783469D01*
X153589868Y-133986412D01*
X153589870Y-133986420D01*
X153669058Y-134177596D01*
X153784024Y-134349657D01*
X153930342Y-134495975D01*
X153930345Y-134495977D01*
X154102402Y-134610941D01*
X154293580Y-134690130D01*
X154496530Y-134730499D01*
X154496534Y-134730500D01*
X154496535Y-134730500D01*
X154703466Y-134730500D01*
X154703467Y-134730499D01*
X154906420Y-134690130D01*
X155097598Y-134610941D01*
X155269655Y-134495977D01*
X155415977Y-134349655D01*
X155530941Y-134177598D01*
X155610130Y-133986420D01*
X155650500Y-133783465D01*
X155650500Y-133326535D01*
X155610130Y-133123580D01*
X155530941Y-132932402D01*
X155473044Y-132845753D01*
X155473044Y-132845751D01*
X155429119Y-132780013D01*
X160200000Y-132780013D01*
X160200000Y-133305000D01*
X161145854Y-133305000D01*
X161107370Y-133371657D01*
X161075000Y-133492465D01*
X161075000Y-133617535D01*
X161107370Y-133738343D01*
X161145854Y-133805000D01*
X160200001Y-133805000D01*
X160200001Y-134329986D01*
X160210494Y-134432697D01*
X160265641Y-134599119D01*
X160265643Y-134599124D01*
X160357684Y-134748345D01*
X160481654Y-134872315D01*
X160630875Y-134964356D01*
X160630880Y-134964358D01*
X160797302Y-135019505D01*
X160797309Y-135019506D01*
X160900019Y-135029999D01*
X161299999Y-135029999D01*
X161300000Y-135029998D01*
X161300000Y-133959145D01*
X161366657Y-133997630D01*
X161487465Y-134030000D01*
X161612535Y-134030000D01*
X161733343Y-133997630D01*
X161800000Y-133959145D01*
X161800000Y-135029999D01*
X162199972Y-135029999D01*
X162199986Y-135029998D01*
X162302697Y-135019505D01*
X162469119Y-134964358D01*
X162469124Y-134964356D01*
X162618345Y-134872315D01*
X162742315Y-134748345D01*
X162834356Y-134599124D01*
X162834358Y-134599119D01*
X162889505Y-134432697D01*
X162889506Y-134432690D01*
X162899999Y-134329986D01*
X162899999Y-134258528D01*
X162919683Y-134191488D01*
X162972486Y-134145732D01*
X163041644Y-134135788D01*
X163105200Y-134164812D01*
X163127101Y-134189635D01*
X163234022Y-134349655D01*
X163380342Y-134495975D01*
X163380345Y-134495977D01*
X163552402Y-134610941D01*
X163743580Y-134690130D01*
X163946530Y-134730499D01*
X163946534Y-134730500D01*
X163946535Y-134730500D01*
X164153466Y-134730500D01*
X164153467Y-134730499D01*
X164356420Y-134690130D01*
X164547598Y-134610941D01*
X164719655Y-134495977D01*
X164865977Y-134349655D01*
X164980941Y-134177598D01*
X165060130Y-133986420D01*
X165100500Y-133783465D01*
X165100500Y-133326535D01*
X165100499Y-133326530D01*
X165499500Y-133326530D01*
X165499500Y-133783469D01*
X165539868Y-133986412D01*
X165539870Y-133986420D01*
X165619058Y-134177596D01*
X165734024Y-134349657D01*
X165880342Y-134495975D01*
X165880345Y-134495977D01*
X166052402Y-134610941D01*
X166243580Y-134690130D01*
X166446530Y-134730499D01*
X166446534Y-134730500D01*
X166446535Y-134730500D01*
X166653466Y-134730500D01*
X166653467Y-134730499D01*
X166856420Y-134690130D01*
X167047598Y-134610941D01*
X167219655Y-134495977D01*
X167365977Y-134349655D01*
X167480941Y-134177598D01*
X167560130Y-133986420D01*
X167582484Y-133874038D01*
X172399500Y-133874038D01*
X172399500Y-134125962D01*
X172434930Y-134349655D01*
X172438910Y-134374785D01*
X172516760Y-134614383D01*
X172631132Y-134838848D01*
X172779201Y-135042649D01*
X172779205Y-135042654D01*
X172957345Y-135220794D01*
X172957350Y-135220798D01*
X173135117Y-135349952D01*
X173161155Y-135368870D01*
X173304184Y-135441747D01*
X173385616Y-135483239D01*
X173385618Y-135483239D01*
X173385621Y-135483241D01*
X173625215Y-135561090D01*
X173874038Y-135600500D01*
X173874039Y-135600500D01*
X174125961Y-135600500D01*
X174125962Y-135600500D01*
X174374785Y-135561090D01*
X174614379Y-135483241D01*
X174838845Y-135368870D01*
X175042656Y-135220793D01*
X175220793Y-135042656D01*
X175368870Y-134838845D01*
X175483241Y-134614379D01*
X175561090Y-134374785D01*
X175600500Y-134125962D01*
X175600500Y-133874038D01*
X175561090Y-133625215D01*
X175483241Y-133385621D01*
X175483239Y-133385618D01*
X175483239Y-133385616D01*
X175420937Y-133263343D01*
X175368870Y-133161155D01*
X175226480Y-132965171D01*
X175220798Y-132957350D01*
X175220794Y-132957345D01*
X175042654Y-132779205D01*
X175042649Y-132779201D01*
X174838848Y-132631132D01*
X174838847Y-132631131D01*
X174838845Y-132631130D01*
X174768747Y-132595413D01*
X174614383Y-132516760D01*
X174374785Y-132438910D01*
X174254559Y-132419868D01*
X174125962Y-132399500D01*
X173874038Y-132399500D01*
X173749626Y-132419205D01*
X173625214Y-132438910D01*
X173385616Y-132516760D01*
X173161151Y-132631132D01*
X172957350Y-132779201D01*
X172957345Y-132779205D01*
X172779205Y-132957345D01*
X172779201Y-132957350D01*
X172631132Y-133161151D01*
X172516760Y-133385616D01*
X172482043Y-133492465D01*
X172438910Y-133625215D01*
X172399500Y-133874038D01*
X167582484Y-133874038D01*
X167600500Y-133783465D01*
X167600500Y-133326535D01*
X167560130Y-133123580D01*
X167480941Y-132932402D01*
X167365977Y-132760345D01*
X167365975Y-132760342D01*
X167219657Y-132614024D01*
X167133626Y-132556541D01*
X167047598Y-132499059D01*
X166856420Y-132419870D01*
X166856412Y-132419868D01*
X166653469Y-132379500D01*
X166653465Y-132379500D01*
X166446535Y-132379500D01*
X166446530Y-132379500D01*
X166243587Y-132419868D01*
X166243579Y-132419870D01*
X166052403Y-132499058D01*
X165880342Y-132614024D01*
X165734024Y-132760342D01*
X165619058Y-132932403D01*
X165539870Y-133123579D01*
X165539868Y-133123587D01*
X165499500Y-133326530D01*
X165100499Y-133326530D01*
X165060130Y-133123580D01*
X164980941Y-132932402D01*
X164865977Y-132760345D01*
X164865975Y-132760342D01*
X164719657Y-132614024D01*
X164633626Y-132556541D01*
X164547598Y-132499059D01*
X164356420Y-132419870D01*
X164356412Y-132419868D01*
X164153469Y-132379500D01*
X164153465Y-132379500D01*
X163946535Y-132379500D01*
X163946530Y-132379500D01*
X163743587Y-132419868D01*
X163743579Y-132419870D01*
X163552403Y-132499058D01*
X163380342Y-132614024D01*
X163234024Y-132760342D01*
X163127102Y-132920365D01*
X163073489Y-132965171D01*
X163004165Y-132973878D01*
X162941137Y-132943724D01*
X162904417Y-132884281D01*
X162899999Y-132851475D01*
X162899999Y-132780028D01*
X162899998Y-132780012D01*
X162889505Y-132677302D01*
X162834358Y-132510880D01*
X162834356Y-132510875D01*
X162742315Y-132361654D01*
X162618345Y-132237684D01*
X162469124Y-132145643D01*
X162469119Y-132145641D01*
X162302697Y-132090494D01*
X162302690Y-132090493D01*
X162199986Y-132080000D01*
X161800000Y-132080000D01*
X161800000Y-133150854D01*
X161733343Y-133112370D01*
X161612535Y-133080000D01*
X161487465Y-133080000D01*
X161366657Y-133112370D01*
X161300000Y-133150854D01*
X161300000Y-132080000D01*
X160900028Y-132080000D01*
X160900012Y-132080001D01*
X160797302Y-132090494D01*
X160630880Y-132145641D01*
X160630875Y-132145643D01*
X160481654Y-132237684D01*
X160357684Y-132361654D01*
X160265643Y-132510875D01*
X160265641Y-132510880D01*
X160210494Y-132677302D01*
X160210493Y-132677309D01*
X160200000Y-132780013D01*
X155429119Y-132780013D01*
X155415980Y-132760349D01*
X155415974Y-132760341D01*
X155269657Y-132614024D01*
X155183626Y-132556541D01*
X155097598Y-132499059D01*
X154906420Y-132419870D01*
X154906412Y-132419868D01*
X154703469Y-132379500D01*
X154703465Y-132379500D01*
X154496535Y-132379500D01*
X154496530Y-132379500D01*
X154293587Y-132419868D01*
X154293579Y-132419870D01*
X154102403Y-132499058D01*
X153930342Y-132614024D01*
X153784024Y-132760342D01*
X153669058Y-132932403D01*
X153589870Y-133123579D01*
X153589868Y-133123587D01*
X153549500Y-133326530D01*
X153150499Y-133326530D01*
X153110130Y-133123580D01*
X153030941Y-132932402D01*
X152915977Y-132760345D01*
X152915975Y-132760342D01*
X152769657Y-132614024D01*
X152683626Y-132556541D01*
X152597598Y-132499059D01*
X152406420Y-132419870D01*
X152406412Y-132419868D01*
X152203469Y-132379500D01*
X152203465Y-132379500D01*
X151996535Y-132379500D01*
X151996530Y-132379500D01*
X151793587Y-132419868D01*
X151793579Y-132419870D01*
X151602403Y-132499058D01*
X151430342Y-132614024D01*
X151284024Y-132760342D01*
X151177102Y-132920365D01*
X151123489Y-132965171D01*
X151054165Y-132973878D01*
X150991137Y-132943724D01*
X150954417Y-132884281D01*
X150949999Y-132851475D01*
X150949999Y-132780028D01*
X150949998Y-132780012D01*
X150939505Y-132677302D01*
X150884358Y-132510880D01*
X150884356Y-132510875D01*
X150792315Y-132361654D01*
X150668345Y-132237684D01*
X150519124Y-132145643D01*
X150519119Y-132145641D01*
X150352697Y-132090494D01*
X150352690Y-132090493D01*
X150249986Y-132080000D01*
X149850000Y-132080000D01*
X149850000Y-133150854D01*
X149783343Y-133112370D01*
X149662535Y-133080000D01*
X149537465Y-133080000D01*
X149416657Y-133112370D01*
X149350000Y-133150854D01*
X149350000Y-132080000D01*
X148950028Y-132080000D01*
X148950012Y-132080001D01*
X148847302Y-132090494D01*
X148680880Y-132145641D01*
X148680875Y-132145643D01*
X148531654Y-132237684D01*
X148407684Y-132361654D01*
X148315643Y-132510875D01*
X148315641Y-132510880D01*
X148260494Y-132677302D01*
X148260493Y-132677309D01*
X148250000Y-132780013D01*
X143479119Y-132780013D01*
X143465980Y-132760349D01*
X143465974Y-132760341D01*
X143319657Y-132614024D01*
X143233626Y-132556541D01*
X143147598Y-132499059D01*
X142956420Y-132419870D01*
X142956412Y-132419868D01*
X142753469Y-132379500D01*
X142753465Y-132379500D01*
X142546535Y-132379500D01*
X142546530Y-132379500D01*
X142343587Y-132419868D01*
X142343579Y-132419870D01*
X142152403Y-132499058D01*
X141980342Y-132614024D01*
X141834024Y-132760342D01*
X141719058Y-132932403D01*
X141639870Y-133123579D01*
X141639868Y-133123587D01*
X141599500Y-133326530D01*
X141200499Y-133326530D01*
X141160130Y-133123580D01*
X141080941Y-132932402D01*
X140965977Y-132760345D01*
X140965975Y-132760342D01*
X140819657Y-132614024D01*
X140733626Y-132556541D01*
X140647598Y-132499059D01*
X140456420Y-132419870D01*
X140456412Y-132419868D01*
X140253469Y-132379500D01*
X140253465Y-132379500D01*
X140046535Y-132379500D01*
X140046530Y-132379500D01*
X139843587Y-132419868D01*
X139843579Y-132419870D01*
X139652403Y-132499058D01*
X139480342Y-132614024D01*
X139334024Y-132760342D01*
X139227102Y-132920365D01*
X139173489Y-132965171D01*
X139104165Y-132973878D01*
X139041137Y-132943724D01*
X139004417Y-132884281D01*
X138999999Y-132851475D01*
X138999999Y-132780028D01*
X138999998Y-132780012D01*
X138989505Y-132677302D01*
X138934358Y-132510880D01*
X138934356Y-132510875D01*
X138842315Y-132361654D01*
X138718345Y-132237684D01*
X138569124Y-132145643D01*
X138569119Y-132145641D01*
X138402697Y-132090494D01*
X138402690Y-132090493D01*
X138299986Y-132080000D01*
X137900000Y-132080000D01*
X137900000Y-133150854D01*
X137833343Y-133112370D01*
X137712535Y-133080000D01*
X137587465Y-133080000D01*
X137466657Y-133112370D01*
X137400000Y-133150854D01*
X137400000Y-132080000D01*
X137000028Y-132080000D01*
X137000012Y-132080001D01*
X136897302Y-132090494D01*
X136730880Y-132145641D01*
X136730875Y-132145643D01*
X136581654Y-132237684D01*
X136457684Y-132361654D01*
X136365643Y-132510875D01*
X136365641Y-132510880D01*
X136310494Y-132677302D01*
X136310493Y-132677309D01*
X136300000Y-132780013D01*
X131529119Y-132780013D01*
X131515980Y-132760349D01*
X131515974Y-132760341D01*
X131369657Y-132614024D01*
X131283626Y-132556541D01*
X131197598Y-132499059D01*
X131006420Y-132419870D01*
X131006412Y-132419868D01*
X130803469Y-132379500D01*
X130803465Y-132379500D01*
X130596535Y-132379500D01*
X130596530Y-132379500D01*
X130393587Y-132419868D01*
X130393579Y-132419870D01*
X130202403Y-132499058D01*
X130030342Y-132614024D01*
X129884024Y-132760342D01*
X129769058Y-132932403D01*
X129689870Y-133123579D01*
X129689868Y-133123587D01*
X129649500Y-133326530D01*
X129250499Y-133326530D01*
X129210130Y-133123580D01*
X129130941Y-132932402D01*
X129015977Y-132760345D01*
X129015975Y-132760342D01*
X128869657Y-132614024D01*
X128783626Y-132556541D01*
X128697598Y-132499059D01*
X128506420Y-132419870D01*
X128506412Y-132419868D01*
X128303469Y-132379500D01*
X128303465Y-132379500D01*
X128096535Y-132379500D01*
X128096530Y-132379500D01*
X127893587Y-132419868D01*
X127893579Y-132419870D01*
X127702403Y-132499058D01*
X127530342Y-132614024D01*
X127384024Y-132760342D01*
X127277102Y-132920365D01*
X127223489Y-132965171D01*
X127154165Y-132973878D01*
X127091137Y-132943724D01*
X127054417Y-132884281D01*
X127049999Y-132851475D01*
X127049999Y-132780028D01*
X127049998Y-132780012D01*
X127039505Y-132677302D01*
X126984358Y-132510880D01*
X126984356Y-132510875D01*
X126892315Y-132361654D01*
X126768345Y-132237684D01*
X126619124Y-132145643D01*
X126619119Y-132145641D01*
X126452697Y-132090494D01*
X126452690Y-132090493D01*
X126349986Y-132080000D01*
X125950000Y-132080000D01*
X125950000Y-133150854D01*
X125883343Y-133112370D01*
X125762535Y-133080000D01*
X125637465Y-133080000D01*
X125516657Y-133112370D01*
X125450000Y-133150854D01*
X125450000Y-132080000D01*
X125050028Y-132080000D01*
X125050012Y-132080001D01*
X124947302Y-132090494D01*
X124780880Y-132145641D01*
X124780875Y-132145643D01*
X124631654Y-132237684D01*
X124507684Y-132361654D01*
X124415643Y-132510875D01*
X124415641Y-132510880D01*
X124360494Y-132677302D01*
X124360493Y-132677309D01*
X124350000Y-132780013D01*
X119579119Y-132780013D01*
X119565980Y-132760349D01*
X119565974Y-132760341D01*
X119419657Y-132614024D01*
X119333626Y-132556541D01*
X119247598Y-132499059D01*
X119056420Y-132419870D01*
X119056412Y-132419868D01*
X118853469Y-132379500D01*
X118853465Y-132379500D01*
X118646535Y-132379500D01*
X118646530Y-132379500D01*
X118443587Y-132419868D01*
X118443579Y-132419870D01*
X118252403Y-132499058D01*
X118080342Y-132614024D01*
X117934024Y-132760342D01*
X117819058Y-132932403D01*
X117739870Y-133123579D01*
X117739868Y-133123587D01*
X117699500Y-133326530D01*
X117300499Y-133326530D01*
X117260130Y-133123580D01*
X117180941Y-132932402D01*
X117065977Y-132760345D01*
X117065975Y-132760342D01*
X116919657Y-132614024D01*
X116833626Y-132556541D01*
X116747598Y-132499059D01*
X116556420Y-132419870D01*
X116556412Y-132419868D01*
X116353469Y-132379500D01*
X116353465Y-132379500D01*
X116146535Y-132379500D01*
X116146530Y-132379500D01*
X115943587Y-132419868D01*
X115943579Y-132419870D01*
X115752403Y-132499058D01*
X115580342Y-132614024D01*
X115434024Y-132760342D01*
X115327102Y-132920365D01*
X115273489Y-132965171D01*
X115204165Y-132973878D01*
X115141137Y-132943724D01*
X115104417Y-132884281D01*
X115099999Y-132851475D01*
X115099999Y-132780028D01*
X115099998Y-132780012D01*
X115089505Y-132677302D01*
X115034358Y-132510880D01*
X115034356Y-132510875D01*
X114942315Y-132361654D01*
X114818345Y-132237684D01*
X114669124Y-132145643D01*
X114669119Y-132145641D01*
X114502697Y-132090494D01*
X114502690Y-132090493D01*
X114399986Y-132080000D01*
X114000000Y-132080000D01*
X114000000Y-133150854D01*
X113933343Y-133112370D01*
X113812535Y-133080000D01*
X113687465Y-133080000D01*
X113566657Y-133112370D01*
X113500000Y-133150854D01*
X113500000Y-132080000D01*
X113100028Y-132080000D01*
X113100012Y-132080001D01*
X112997302Y-132090494D01*
X112830880Y-132145641D01*
X112830875Y-132145643D01*
X112681654Y-132237684D01*
X112557684Y-132361654D01*
X112465643Y-132510875D01*
X112465641Y-132510880D01*
X112410494Y-132677302D01*
X112410493Y-132677309D01*
X112400000Y-132780013D01*
X107329119Y-132780013D01*
X107315980Y-132760349D01*
X107315974Y-132760341D01*
X107169657Y-132614024D01*
X107083626Y-132556541D01*
X106997598Y-132499059D01*
X106806420Y-132419870D01*
X106806412Y-132419868D01*
X106603469Y-132379500D01*
X106603465Y-132379500D01*
X106396535Y-132379500D01*
X106396530Y-132379500D01*
X106193587Y-132419868D01*
X106193579Y-132419870D01*
X106002403Y-132499058D01*
X105830342Y-132614024D01*
X105684024Y-132760342D01*
X105569058Y-132932403D01*
X105489870Y-133123579D01*
X105489868Y-133123587D01*
X105449500Y-133326530D01*
X105050499Y-133326530D01*
X105010130Y-133123580D01*
X104930941Y-132932402D01*
X104815977Y-132760345D01*
X104815975Y-132760342D01*
X104669657Y-132614024D01*
X104583626Y-132556541D01*
X104497598Y-132499059D01*
X104306420Y-132419870D01*
X104306412Y-132419868D01*
X104103469Y-132379500D01*
X104103465Y-132379500D01*
X103896535Y-132379500D01*
X103896530Y-132379500D01*
X103693587Y-132419868D01*
X103693579Y-132419870D01*
X103502403Y-132499058D01*
X103330342Y-132614024D01*
X103184024Y-132760342D01*
X103077102Y-132920365D01*
X103023489Y-132965171D01*
X102954165Y-132973878D01*
X102891137Y-132943724D01*
X102854417Y-132884281D01*
X102849999Y-132851475D01*
X102849999Y-132780028D01*
X102849998Y-132780012D01*
X102839505Y-132677302D01*
X102784358Y-132510880D01*
X102784356Y-132510875D01*
X102692315Y-132361654D01*
X102568345Y-132237684D01*
X102419124Y-132145643D01*
X102419119Y-132145641D01*
X102252697Y-132090494D01*
X102252690Y-132090493D01*
X102149986Y-132080000D01*
X101750000Y-132080000D01*
X101750000Y-133150854D01*
X101683343Y-133112370D01*
X101562535Y-133080000D01*
X101437465Y-133080000D01*
X101316657Y-133112370D01*
X101250000Y-133150854D01*
X101250000Y-132080000D01*
X100850028Y-132080000D01*
X100850012Y-132080001D01*
X100747302Y-132090494D01*
X100580880Y-132145641D01*
X100580875Y-132145643D01*
X100431654Y-132237684D01*
X100307684Y-132361654D01*
X100215643Y-132510875D01*
X100215641Y-132510880D01*
X100160494Y-132677302D01*
X100160493Y-132677309D01*
X100150000Y-132780013D01*
X95379119Y-132780013D01*
X95365980Y-132760349D01*
X95365974Y-132760341D01*
X95219657Y-132614024D01*
X95133626Y-132556541D01*
X95047598Y-132499059D01*
X94856420Y-132419870D01*
X94856412Y-132419868D01*
X94653469Y-132379500D01*
X94653465Y-132379500D01*
X94446535Y-132379500D01*
X94446530Y-132379500D01*
X94243587Y-132419868D01*
X94243579Y-132419870D01*
X94052403Y-132499058D01*
X93880342Y-132614024D01*
X93734024Y-132760342D01*
X93619058Y-132932403D01*
X93539870Y-133123579D01*
X93539868Y-133123587D01*
X93499500Y-133326530D01*
X93100499Y-133326530D01*
X93060130Y-133123580D01*
X92980941Y-132932402D01*
X92865977Y-132760345D01*
X92865975Y-132760342D01*
X92719657Y-132614024D01*
X92633626Y-132556541D01*
X92547598Y-132499059D01*
X92356420Y-132419870D01*
X92356412Y-132419868D01*
X92153469Y-132379500D01*
X92153465Y-132379500D01*
X91946535Y-132379500D01*
X91946530Y-132379500D01*
X91743587Y-132419868D01*
X91743579Y-132419870D01*
X91552403Y-132499058D01*
X91380342Y-132614024D01*
X91234024Y-132760342D01*
X91127102Y-132920365D01*
X91073489Y-132965171D01*
X91004165Y-132973878D01*
X90941137Y-132943724D01*
X90904417Y-132884281D01*
X90899999Y-132851475D01*
X90899999Y-132780028D01*
X90899998Y-132780012D01*
X90889505Y-132677302D01*
X90834358Y-132510880D01*
X90834356Y-132510875D01*
X90742315Y-132361654D01*
X90618345Y-132237684D01*
X90469124Y-132145643D01*
X90469119Y-132145641D01*
X90302697Y-132090494D01*
X90302690Y-132090493D01*
X90199986Y-132080000D01*
X89800000Y-132080000D01*
X89800000Y-133150854D01*
X89733343Y-133112370D01*
X89612535Y-133080000D01*
X89487465Y-133080000D01*
X89366657Y-133112370D01*
X89300000Y-133150854D01*
X89300000Y-132080000D01*
X88900028Y-132080000D01*
X88900012Y-132080001D01*
X88797302Y-132090494D01*
X88630880Y-132145641D01*
X88630875Y-132145643D01*
X88481654Y-132237684D01*
X88357684Y-132361654D01*
X88265643Y-132510875D01*
X88265641Y-132510880D01*
X88210494Y-132677302D01*
X88210493Y-132677309D01*
X88200000Y-132780013D01*
X83043462Y-132780013D01*
X83042654Y-132779205D01*
X83042649Y-132779201D01*
X82838848Y-132631132D01*
X82838847Y-132631131D01*
X82838845Y-132631130D01*
X82768747Y-132595413D01*
X82614383Y-132516760D01*
X82374785Y-132438910D01*
X82254559Y-132419868D01*
X82125962Y-132399500D01*
X81874038Y-132399500D01*
X81749626Y-132419205D01*
X81625214Y-132438910D01*
X81385616Y-132516760D01*
X81161151Y-132631132D01*
X80957350Y-132779201D01*
X80957345Y-132779205D01*
X80779205Y-132957345D01*
X80779201Y-132957350D01*
X80631132Y-133161151D01*
X80516760Y-133385616D01*
X80482043Y-133492465D01*
X80438910Y-133625215D01*
X80399500Y-133874038D01*
X79000000Y-133874038D01*
X79000000Y-127296530D01*
X81269500Y-127296530D01*
X81269500Y-127503469D01*
X81309868Y-127706412D01*
X81309870Y-127706420D01*
X81389058Y-127897596D01*
X81504024Y-128069657D01*
X81650342Y-128215975D01*
X81650345Y-128215977D01*
X81822402Y-128330941D01*
X82013580Y-128410130D01*
X82216530Y-128450499D01*
X82216534Y-128450500D01*
X82216535Y-128450500D01*
X82673466Y-128450500D01*
X82673467Y-128450499D01*
X82876420Y-128410130D01*
X83067598Y-128330941D01*
X83239655Y-128215977D01*
X83385977Y-128069655D01*
X83500941Y-127897598D01*
X83580130Y-127706420D01*
X83620500Y-127503465D01*
X83620500Y-127296535D01*
X83580130Y-127093580D01*
X83500941Y-126902402D01*
X83443044Y-126815753D01*
X83443044Y-126815751D01*
X83399119Y-126750013D01*
X173080000Y-126750013D01*
X173080000Y-127150000D01*
X174150854Y-127150000D01*
X174112370Y-127216657D01*
X174080000Y-127337465D01*
X174080000Y-127462535D01*
X174112370Y-127583343D01*
X174150854Y-127650000D01*
X173080001Y-127650000D01*
X173080001Y-128049986D01*
X173090494Y-128152697D01*
X173145641Y-128319119D01*
X173145643Y-128319124D01*
X173237684Y-128468345D01*
X173361654Y-128592315D01*
X173510875Y-128684356D01*
X173510880Y-128684358D01*
X173677302Y-128739505D01*
X173677309Y-128739506D01*
X173780019Y-128749999D01*
X174304999Y-128749999D01*
X174305000Y-128749998D01*
X174305000Y-127804145D01*
X174371657Y-127842630D01*
X174492465Y-127875000D01*
X174617535Y-127875000D01*
X174738343Y-127842630D01*
X174805000Y-127804145D01*
X174805000Y-128749999D01*
X175329972Y-128749999D01*
X175329986Y-128749998D01*
X175432697Y-128739505D01*
X175599119Y-128684358D01*
X175599124Y-128684356D01*
X175748345Y-128592315D01*
X175872315Y-128468345D01*
X175964356Y-128319124D01*
X175964358Y-128319119D01*
X176019505Y-128152697D01*
X176019506Y-128152690D01*
X176029999Y-128049986D01*
X176030000Y-128049973D01*
X176030000Y-127650000D01*
X174959146Y-127650000D01*
X174997630Y-127583343D01*
X175030000Y-127462535D01*
X175030000Y-127337465D01*
X174997630Y-127216657D01*
X174959146Y-127150000D01*
X176029999Y-127150000D01*
X176029999Y-126750028D01*
X176029998Y-126750013D01*
X176019505Y-126647302D01*
X175964358Y-126480880D01*
X175964356Y-126480875D01*
X175872315Y-126331654D01*
X175748345Y-126207684D01*
X175599124Y-126115643D01*
X175599119Y-126115641D01*
X175432697Y-126060494D01*
X175432690Y-126060493D01*
X175329986Y-126050000D01*
X175258526Y-126050000D01*
X175191487Y-126030315D01*
X175145732Y-125977511D01*
X175135788Y-125908353D01*
X175164813Y-125844797D01*
X175189633Y-125822899D01*
X175349655Y-125715977D01*
X175495977Y-125569655D01*
X175610941Y-125397598D01*
X175690130Y-125206420D01*
X175730500Y-125003465D01*
X175730500Y-124796535D01*
X175690130Y-124593580D01*
X175610941Y-124402402D01*
X175495977Y-124230345D01*
X175495975Y-124230342D01*
X175349657Y-124084024D01*
X175189635Y-123977102D01*
X175177598Y-123969059D01*
X175067585Y-123923490D01*
X174986420Y-123889870D01*
X174986412Y-123889868D01*
X174783469Y-123849500D01*
X174783465Y-123849500D01*
X174326535Y-123849500D01*
X174326530Y-123849500D01*
X174123587Y-123889868D01*
X174123579Y-123889870D01*
X173932403Y-123969058D01*
X173760342Y-124084024D01*
X173614024Y-124230342D01*
X173499058Y-124402403D01*
X173419870Y-124593579D01*
X173419868Y-124593587D01*
X173379500Y-124796530D01*
X173379500Y-125003469D01*
X173419868Y-125206412D01*
X173419870Y-125206420D01*
X173499058Y-125397596D01*
X173614024Y-125569657D01*
X173760342Y-125715975D01*
X173760345Y-125715977D01*
X173920367Y-125822899D01*
X173965170Y-125876509D01*
X173973878Y-125945834D01*
X173943724Y-126008862D01*
X173884282Y-126045581D01*
X173851477Y-126050000D01*
X173780029Y-126050000D01*
X173780012Y-126050001D01*
X173677302Y-126060494D01*
X173510880Y-126115641D01*
X173510875Y-126115643D01*
X173361654Y-126207684D01*
X173237684Y-126331654D01*
X173145643Y-126480875D01*
X173145641Y-126480880D01*
X173090494Y-126647302D01*
X173090493Y-126647309D01*
X173080000Y-126750013D01*
X83399119Y-126750013D01*
X83385980Y-126730349D01*
X83385974Y-126730341D01*
X83239657Y-126584024D01*
X83153626Y-126526541D01*
X83067598Y-126469059D01*
X82876420Y-126389870D01*
X82876412Y-126389868D01*
X82673469Y-126349500D01*
X82673465Y-126349500D01*
X82216535Y-126349500D01*
X82216530Y-126349500D01*
X82013587Y-126389868D01*
X82013579Y-126389870D01*
X81822403Y-126469058D01*
X81650342Y-126584024D01*
X81504024Y-126730342D01*
X81389058Y-126902403D01*
X81309870Y-127093579D01*
X81309868Y-127093587D01*
X81269500Y-127296530D01*
X79000000Y-127296530D01*
X79000000Y-121750013D01*
X80970000Y-121750013D01*
X80970000Y-122150000D01*
X82040854Y-122150000D01*
X82002370Y-122216657D01*
X81970000Y-122337465D01*
X81970000Y-122462535D01*
X82002370Y-122583343D01*
X82040854Y-122650000D01*
X80970001Y-122650000D01*
X80970001Y-123049986D01*
X80980494Y-123152697D01*
X81035641Y-123319119D01*
X81035643Y-123319124D01*
X81127684Y-123468345D01*
X81251654Y-123592315D01*
X81400875Y-123684356D01*
X81400880Y-123684358D01*
X81567302Y-123739505D01*
X81567309Y-123739506D01*
X81670019Y-123749999D01*
X81741471Y-123749999D01*
X81808511Y-123769683D01*
X81854267Y-123822486D01*
X81864211Y-123891644D01*
X81835187Y-123955200D01*
X81810364Y-123977101D01*
X81650345Y-124084022D01*
X81650341Y-124084025D01*
X81504024Y-124230342D01*
X81389058Y-124402403D01*
X81309870Y-124593579D01*
X81309868Y-124593587D01*
X81269500Y-124796530D01*
X81269500Y-125003469D01*
X81309868Y-125206412D01*
X81309870Y-125206420D01*
X81389058Y-125397596D01*
X81504024Y-125569657D01*
X81650342Y-125715975D01*
X81650345Y-125715977D01*
X81822402Y-125830941D01*
X82013580Y-125910130D01*
X82216530Y-125950499D01*
X82216534Y-125950500D01*
X82216535Y-125950500D01*
X82673466Y-125950500D01*
X82673467Y-125950499D01*
X82876420Y-125910130D01*
X83067598Y-125830941D01*
X83239655Y-125715977D01*
X83385977Y-125569655D01*
X83500941Y-125397598D01*
X83580130Y-125206420D01*
X83620500Y-125003465D01*
X83620500Y-124796535D01*
X83580130Y-124593580D01*
X83500941Y-124402402D01*
X83385977Y-124230345D01*
X83385975Y-124230342D01*
X83239657Y-124084024D01*
X83194618Y-124053930D01*
X83079632Y-123977100D01*
X83034829Y-123923490D01*
X83026121Y-123854165D01*
X83056275Y-123791137D01*
X83115718Y-123754417D01*
X83148524Y-123749999D01*
X83219971Y-123749999D01*
X83219987Y-123749998D01*
X83322697Y-123739505D01*
X83489119Y-123684358D01*
X83489124Y-123684356D01*
X83638345Y-123592315D01*
X83762315Y-123468345D01*
X83854356Y-123319124D01*
X83854358Y-123319119D01*
X83909505Y-123152697D01*
X83909506Y-123152690D01*
X83919999Y-123049986D01*
X83920000Y-123049973D01*
X83920000Y-122650000D01*
X82849146Y-122650000D01*
X82887630Y-122583343D01*
X82920000Y-122462535D01*
X82920000Y-122337465D01*
X82909032Y-122296530D01*
X173379500Y-122296530D01*
X173379500Y-122503469D01*
X173419868Y-122706412D01*
X173419870Y-122706420D01*
X173499058Y-122897596D01*
X173614024Y-123069657D01*
X173760342Y-123215975D01*
X173760345Y-123215977D01*
X173932402Y-123330941D01*
X174123580Y-123410130D01*
X174326530Y-123450499D01*
X174326534Y-123450500D01*
X174326535Y-123450500D01*
X174783466Y-123450500D01*
X174783467Y-123450499D01*
X174986420Y-123410130D01*
X175177598Y-123330941D01*
X175349655Y-123215977D01*
X175495977Y-123069655D01*
X175610941Y-122897598D01*
X175690130Y-122706420D01*
X175730500Y-122503465D01*
X175730500Y-122296535D01*
X175690130Y-122093580D01*
X175610941Y-121902402D01*
X175495977Y-121730345D01*
X175495975Y-121730342D01*
X175349657Y-121584024D01*
X175263626Y-121526541D01*
X175177598Y-121469059D01*
X174986420Y-121389870D01*
X174986412Y-121389868D01*
X174783469Y-121349500D01*
X174783465Y-121349500D01*
X174326535Y-121349500D01*
X174326530Y-121349500D01*
X174123587Y-121389868D01*
X174123579Y-121389870D01*
X173932403Y-121469058D01*
X173760342Y-121584024D01*
X173614024Y-121730342D01*
X173499058Y-121902403D01*
X173419870Y-122093579D01*
X173419868Y-122093587D01*
X173379500Y-122296530D01*
X82909032Y-122296530D01*
X82887630Y-122216657D01*
X82849146Y-122150000D01*
X83919999Y-122150000D01*
X83919999Y-121750028D01*
X83919998Y-121750013D01*
X83909505Y-121647302D01*
X83854358Y-121480880D01*
X83854356Y-121480875D01*
X83762315Y-121331654D01*
X83638345Y-121207684D01*
X83489124Y-121115643D01*
X83489119Y-121115641D01*
X83322697Y-121060494D01*
X83322690Y-121060493D01*
X83219986Y-121050000D01*
X82695000Y-121050000D01*
X82695000Y-121995854D01*
X82628343Y-121957370D01*
X82507535Y-121925000D01*
X82382465Y-121925000D01*
X82261657Y-121957370D01*
X82195000Y-121995854D01*
X82195000Y-121050000D01*
X81670028Y-121050000D01*
X81670012Y-121050001D01*
X81567302Y-121060494D01*
X81400880Y-121115641D01*
X81400875Y-121115643D01*
X81251654Y-121207684D01*
X81127684Y-121331654D01*
X81035643Y-121480875D01*
X81035641Y-121480880D01*
X80980494Y-121647302D01*
X80980493Y-121647309D01*
X80970000Y-121750013D01*
X79000000Y-121750013D01*
X79000000Y-118940691D01*
X116249500Y-118940691D01*
X116249500Y-119059309D01*
X116280201Y-119173886D01*
X116339511Y-119276613D01*
X116423387Y-119360489D01*
X116526114Y-119419799D01*
X116640691Y-119450500D01*
X116640694Y-119450500D01*
X116759306Y-119450500D01*
X116759309Y-119450500D01*
X116873886Y-119419799D01*
X116976613Y-119360489D01*
X117000283Y-119336819D01*
X117061606Y-119303334D01*
X117087964Y-119300500D01*
X124539560Y-119300500D01*
X124539562Y-119300500D01*
X124615989Y-119280021D01*
X124684511Y-119240460D01*
X124740460Y-119184511D01*
X128538152Y-115386819D01*
X128599475Y-115353334D01*
X128625833Y-115350500D01*
X128659306Y-115350500D01*
X128659309Y-115350500D01*
X128773886Y-115319799D01*
X128876613Y-115260489D01*
X128960489Y-115176613D01*
X129019799Y-115073886D01*
X129050500Y-114959309D01*
X129050500Y-114840691D01*
X129039600Y-114800013D01*
X173080000Y-114800013D01*
X173080000Y-115200000D01*
X174150854Y-115200000D01*
X174112370Y-115266657D01*
X174080000Y-115387465D01*
X174080000Y-115512535D01*
X174112370Y-115633343D01*
X174150854Y-115700000D01*
X173080001Y-115700000D01*
X173080001Y-116099986D01*
X173090494Y-116202697D01*
X173145641Y-116369119D01*
X173145643Y-116369124D01*
X173237684Y-116518345D01*
X173361654Y-116642315D01*
X173510875Y-116734356D01*
X173510880Y-116734358D01*
X173677302Y-116789505D01*
X173677309Y-116789506D01*
X173780019Y-116799999D01*
X174304999Y-116799999D01*
X174305000Y-116799998D01*
X174305000Y-115854145D01*
X174371657Y-115892630D01*
X174492465Y-115925000D01*
X174617535Y-115925000D01*
X174738343Y-115892630D01*
X174805000Y-115854145D01*
X174805000Y-116799999D01*
X175329972Y-116799999D01*
X175329986Y-116799998D01*
X175432697Y-116789505D01*
X175599119Y-116734358D01*
X175599124Y-116734356D01*
X175748345Y-116642315D01*
X175872315Y-116518345D01*
X175964356Y-116369124D01*
X175964358Y-116369119D01*
X176019505Y-116202697D01*
X176019506Y-116202690D01*
X176029999Y-116099986D01*
X176030000Y-116099973D01*
X176030000Y-115700000D01*
X174959146Y-115700000D01*
X174997630Y-115633343D01*
X175030000Y-115512535D01*
X175030000Y-115387465D01*
X174997630Y-115266657D01*
X174959146Y-115200000D01*
X176029999Y-115200000D01*
X176029999Y-114800028D01*
X176029998Y-114800013D01*
X176019505Y-114697302D01*
X175964358Y-114530880D01*
X175964356Y-114530875D01*
X175872315Y-114381654D01*
X175748345Y-114257684D01*
X175599124Y-114165643D01*
X175599119Y-114165641D01*
X175432697Y-114110494D01*
X175432690Y-114110493D01*
X175329986Y-114100000D01*
X175258526Y-114100000D01*
X175191487Y-114080315D01*
X175145732Y-114027511D01*
X175135788Y-113958353D01*
X175164813Y-113894797D01*
X175189633Y-113872899D01*
X175349655Y-113765977D01*
X175495977Y-113619655D01*
X175610941Y-113447598D01*
X175690130Y-113256420D01*
X175730500Y-113053465D01*
X175730500Y-112846535D01*
X175690130Y-112643580D01*
X175610941Y-112452402D01*
X175495977Y-112280345D01*
X175495975Y-112280342D01*
X175349657Y-112134024D01*
X175189635Y-112027102D01*
X175177598Y-112019059D01*
X175067585Y-111973490D01*
X174986420Y-111939870D01*
X174986412Y-111939868D01*
X174783469Y-111899500D01*
X174783465Y-111899500D01*
X174326535Y-111899500D01*
X174326530Y-111899500D01*
X174123587Y-111939868D01*
X174123579Y-111939870D01*
X173932403Y-112019058D01*
X173760342Y-112134024D01*
X173614024Y-112280342D01*
X173499058Y-112452403D01*
X173419870Y-112643579D01*
X173419868Y-112643587D01*
X173379500Y-112846530D01*
X173379500Y-113053469D01*
X173419868Y-113256412D01*
X173419870Y-113256420D01*
X173499058Y-113447596D01*
X173614024Y-113619657D01*
X173760342Y-113765975D01*
X173760345Y-113765977D01*
X173920367Y-113872899D01*
X173965170Y-113926509D01*
X173973878Y-113995834D01*
X173943724Y-114058862D01*
X173884282Y-114095581D01*
X173851477Y-114100000D01*
X173780029Y-114100000D01*
X173780012Y-114100001D01*
X173677302Y-114110494D01*
X173510880Y-114165641D01*
X173510875Y-114165643D01*
X173361654Y-114257684D01*
X173237684Y-114381654D01*
X173145643Y-114530875D01*
X173145641Y-114530880D01*
X173090494Y-114697302D01*
X173090493Y-114697309D01*
X173080000Y-114800013D01*
X129039600Y-114800013D01*
X129019799Y-114726114D01*
X128960489Y-114623387D01*
X128876613Y-114539511D01*
X128773886Y-114480201D01*
X128659309Y-114449500D01*
X128574500Y-114449500D01*
X128507461Y-114429815D01*
X128461706Y-114377011D01*
X128450500Y-114325500D01*
X128450500Y-114240693D01*
X128450500Y-114240691D01*
X128419799Y-114126114D01*
X128360489Y-114023387D01*
X128276613Y-113939511D01*
X128173886Y-113880201D01*
X128059309Y-113849500D01*
X127940691Y-113849500D01*
X127826114Y-113880201D01*
X127826112Y-113880201D01*
X127826112Y-113880202D01*
X127723387Y-113939511D01*
X127723384Y-113939513D01*
X127639513Y-114023384D01*
X127639511Y-114023387D01*
X127580201Y-114126114D01*
X127549500Y-114240691D01*
X127549500Y-114240693D01*
X127549500Y-114274167D01*
X127529815Y-114341206D01*
X127513181Y-114361848D01*
X124211848Y-117663181D01*
X124150525Y-117696666D01*
X124124167Y-117699500D01*
X117987964Y-117699500D01*
X117920925Y-117679815D01*
X117900283Y-117663181D01*
X117876615Y-117639513D01*
X117876613Y-117639511D01*
X117773886Y-117580201D01*
X117659309Y-117549500D01*
X117540691Y-117549500D01*
X117426114Y-117580201D01*
X117426112Y-117580201D01*
X117426112Y-117580202D01*
X117323387Y-117639511D01*
X117323384Y-117639513D01*
X117239513Y-117723384D01*
X117239511Y-117723387D01*
X117180201Y-117826114D01*
X117149500Y-117940691D01*
X117149500Y-118059309D01*
X117180201Y-118173886D01*
X117239511Y-118276613D01*
X117323387Y-118360489D01*
X117426114Y-118419799D01*
X117540691Y-118450500D01*
X117540694Y-118450500D01*
X117659306Y-118450500D01*
X117659309Y-118450500D01*
X117773886Y-118419799D01*
X117876613Y-118360489D01*
X117900283Y-118336819D01*
X117961606Y-118303334D01*
X117987964Y-118300500D01*
X124339560Y-118300500D01*
X124339562Y-118300500D01*
X124415989Y-118280021D01*
X124456026Y-118256905D01*
X124484503Y-118240465D01*
X124484505Y-118240463D01*
X124484511Y-118240460D01*
X124484515Y-118240455D01*
X124488087Y-118237715D01*
X124553254Y-118212515D01*
X124621700Y-118226547D01*
X124671694Y-118275357D01*
X124687363Y-118343447D01*
X124663733Y-118409199D01*
X124651263Y-118423765D01*
X124411848Y-118663181D01*
X124350525Y-118696666D01*
X124324167Y-118699500D01*
X117087964Y-118699500D01*
X117020925Y-118679815D01*
X117000283Y-118663181D01*
X116976615Y-118639513D01*
X116976613Y-118639511D01*
X116873886Y-118580201D01*
X116759309Y-118549500D01*
X116640691Y-118549500D01*
X116526114Y-118580201D01*
X116526112Y-118580201D01*
X116526112Y-118580202D01*
X116423387Y-118639511D01*
X116423384Y-118639513D01*
X116339513Y-118723384D01*
X116339511Y-118723387D01*
X116280201Y-118826114D01*
X116249500Y-118940691D01*
X79000000Y-118940691D01*
X79000000Y-115346530D01*
X81269500Y-115346530D01*
X81269500Y-115553469D01*
X81309868Y-115756412D01*
X81309870Y-115756420D01*
X81389058Y-115947596D01*
X81504024Y-116119657D01*
X81650342Y-116265975D01*
X81650345Y-116265977D01*
X81822402Y-116380941D01*
X82013580Y-116460130D01*
X82216530Y-116500499D01*
X82216534Y-116500500D01*
X82216535Y-116500500D01*
X82673466Y-116500500D01*
X82673467Y-116500499D01*
X82876420Y-116460130D01*
X83067598Y-116380941D01*
X83239655Y-116265977D01*
X83385977Y-116119655D01*
X83500941Y-115947598D01*
X83580130Y-115756420D01*
X83620500Y-115553465D01*
X83620500Y-115346535D01*
X83580130Y-115143580D01*
X83500941Y-114952402D01*
X83385977Y-114780345D01*
X83385975Y-114780342D01*
X83239657Y-114634024D01*
X83153626Y-114576541D01*
X83067598Y-114519059D01*
X82973789Y-114480202D01*
X82876420Y-114439870D01*
X82876412Y-114439868D01*
X82673469Y-114399500D01*
X82673465Y-114399500D01*
X82216535Y-114399500D01*
X82216530Y-114399500D01*
X82013587Y-114439868D01*
X82013579Y-114439870D01*
X81822403Y-114519058D01*
X81650342Y-114634024D01*
X81504024Y-114780342D01*
X81389058Y-114952403D01*
X81309870Y-115143579D01*
X81309868Y-115143587D01*
X81269500Y-115346530D01*
X79000000Y-115346530D01*
X79000000Y-109800013D01*
X80970000Y-109800013D01*
X80970000Y-110200000D01*
X82040854Y-110200000D01*
X82002370Y-110266657D01*
X81970000Y-110387465D01*
X81970000Y-110512535D01*
X82002370Y-110633343D01*
X82040854Y-110700000D01*
X80970001Y-110700000D01*
X80970001Y-111099986D01*
X80980494Y-111202697D01*
X81035641Y-111369119D01*
X81035643Y-111369124D01*
X81127684Y-111518345D01*
X81251654Y-111642315D01*
X81400875Y-111734356D01*
X81400880Y-111734358D01*
X81567302Y-111789505D01*
X81567309Y-111789506D01*
X81670019Y-111799999D01*
X81741471Y-111799999D01*
X81808511Y-111819683D01*
X81854267Y-111872486D01*
X81864211Y-111941644D01*
X81835187Y-112005200D01*
X81810364Y-112027101D01*
X81650345Y-112134022D01*
X81650341Y-112134025D01*
X81504024Y-112280342D01*
X81389058Y-112452403D01*
X81309870Y-112643579D01*
X81309868Y-112643587D01*
X81269500Y-112846530D01*
X81269500Y-113053469D01*
X81309868Y-113256412D01*
X81309870Y-113256420D01*
X81389058Y-113447596D01*
X81504024Y-113619657D01*
X81650342Y-113765975D01*
X81650345Y-113765977D01*
X81822402Y-113880941D01*
X82013580Y-113960130D01*
X82216530Y-114000499D01*
X82216534Y-114000500D01*
X82216535Y-114000500D01*
X82673466Y-114000500D01*
X82673467Y-114000499D01*
X82876420Y-113960130D01*
X83067598Y-113880941D01*
X83239655Y-113765977D01*
X83385977Y-113619655D01*
X83500941Y-113447598D01*
X83580130Y-113256420D01*
X83620500Y-113053465D01*
X83620500Y-112846535D01*
X83580130Y-112643580D01*
X83500941Y-112452402D01*
X83385977Y-112280345D01*
X83385975Y-112280342D01*
X83239657Y-112134024D01*
X83194618Y-112103930D01*
X83079632Y-112027100D01*
X83034829Y-111973490D01*
X83026121Y-111904165D01*
X83056275Y-111841137D01*
X83115718Y-111804417D01*
X83148524Y-111799999D01*
X83219971Y-111799999D01*
X83219987Y-111799998D01*
X83322697Y-111789505D01*
X83489119Y-111734358D01*
X83489124Y-111734356D01*
X83638345Y-111642315D01*
X83762315Y-111518345D01*
X83854356Y-111369124D01*
X83854358Y-111369119D01*
X83909505Y-111202697D01*
X83909506Y-111202690D01*
X83919999Y-111099986D01*
X83920000Y-111099973D01*
X83920000Y-110700000D01*
X82849146Y-110700000D01*
X82887630Y-110633343D01*
X82920000Y-110512535D01*
X82920000Y-110387465D01*
X82887630Y-110266657D01*
X82849146Y-110200000D01*
X83919999Y-110200000D01*
X83919999Y-109800028D01*
X83919998Y-109800013D01*
X83909505Y-109697302D01*
X83854358Y-109530880D01*
X83854356Y-109530875D01*
X83762315Y-109381654D01*
X83638345Y-109257684D01*
X83489124Y-109165643D01*
X83489119Y-109165641D01*
X83322697Y-109110494D01*
X83322690Y-109110493D01*
X83219986Y-109100000D01*
X82695000Y-109100000D01*
X82695000Y-110045854D01*
X82628343Y-110007370D01*
X82507535Y-109975000D01*
X82382465Y-109975000D01*
X82261657Y-110007370D01*
X82195000Y-110045854D01*
X82195000Y-109100000D01*
X81670028Y-109100000D01*
X81670012Y-109100001D01*
X81567302Y-109110494D01*
X81400880Y-109165641D01*
X81400875Y-109165643D01*
X81251654Y-109257684D01*
X81127684Y-109381654D01*
X81035643Y-109530875D01*
X81035641Y-109530880D01*
X80980494Y-109697302D01*
X80980493Y-109697309D01*
X80970000Y-109800013D01*
X79000000Y-109800013D01*
X79000000Y-108395730D01*
X98629500Y-108395730D01*
X98629500Y-111604269D01*
X98632353Y-111634699D01*
X98632353Y-111634701D01*
X98677206Y-111762880D01*
X98677207Y-111762882D01*
X98757850Y-111872150D01*
X98867118Y-111952793D01*
X98909845Y-111967744D01*
X98995299Y-111997646D01*
X99025730Y-112000500D01*
X99025734Y-112000500D01*
X100974270Y-112000500D01*
X101004699Y-111997646D01*
X101004701Y-111997646D01*
X101073733Y-111973490D01*
X101132882Y-111952793D01*
X101242150Y-111872150D01*
X101322793Y-111762882D01*
X101345219Y-111698790D01*
X101367646Y-111634701D01*
X101367646Y-111634699D01*
X101370500Y-111604269D01*
X101370500Y-110940691D01*
X137549500Y-110940691D01*
X137549500Y-111059309D01*
X137580201Y-111173886D01*
X137639511Y-111276613D01*
X137723387Y-111360489D01*
X137826114Y-111419799D01*
X137940691Y-111450500D01*
X137940694Y-111450500D01*
X138059306Y-111450500D01*
X138059309Y-111450500D01*
X138173886Y-111419799D01*
X138265140Y-111367112D01*
X138327140Y-111350500D01*
X146672860Y-111350500D01*
X146734859Y-111367112D01*
X146826114Y-111419799D01*
X146940691Y-111450500D01*
X146940694Y-111450500D01*
X147059306Y-111450500D01*
X147059309Y-111450500D01*
X147173886Y-111419799D01*
X147276613Y-111360489D01*
X147360489Y-111276613D01*
X147419799Y-111173886D01*
X147450500Y-111059309D01*
X147450500Y-110940691D01*
X147419799Y-110826114D01*
X147360489Y-110723387D01*
X147276613Y-110639511D01*
X147173886Y-110580201D01*
X147059309Y-110549500D01*
X146940691Y-110549500D01*
X146826114Y-110580201D01*
X146734859Y-110632887D01*
X146672860Y-110649500D01*
X138327140Y-110649500D01*
X138265140Y-110632887D01*
X138173886Y-110580201D01*
X138059309Y-110549500D01*
X137940691Y-110549500D01*
X137826114Y-110580201D01*
X137826112Y-110580201D01*
X137826112Y-110580202D01*
X137723387Y-110639511D01*
X137723384Y-110639513D01*
X137639513Y-110723384D01*
X137639511Y-110723387D01*
X137580201Y-110826114D01*
X137549500Y-110940691D01*
X101370500Y-110940691D01*
X101370500Y-110346530D01*
X173379500Y-110346530D01*
X173379500Y-110553469D01*
X173419868Y-110756412D01*
X173419870Y-110756420D01*
X173499058Y-110947596D01*
X173614024Y-111119657D01*
X173760342Y-111265975D01*
X173760345Y-111265977D01*
X173932402Y-111380941D01*
X174123580Y-111460130D01*
X174326530Y-111500499D01*
X174326534Y-111500500D01*
X174326535Y-111500500D01*
X174783466Y-111500500D01*
X174783467Y-111500499D01*
X174986420Y-111460130D01*
X175177598Y-111380941D01*
X175349655Y-111265977D01*
X175495977Y-111119655D01*
X175610941Y-110947598D01*
X175690130Y-110756420D01*
X175730500Y-110553465D01*
X175730500Y-110346535D01*
X175690130Y-110143580D01*
X175610941Y-109952402D01*
X175495977Y-109780345D01*
X175495975Y-109780342D01*
X175349657Y-109634024D01*
X175263626Y-109576541D01*
X175177598Y-109519059D01*
X174986420Y-109439870D01*
X174986412Y-109439868D01*
X174783469Y-109399500D01*
X174783465Y-109399500D01*
X174326535Y-109399500D01*
X174326530Y-109399500D01*
X174123587Y-109439868D01*
X174123579Y-109439870D01*
X173932403Y-109519058D01*
X173760342Y-109634024D01*
X173614024Y-109780342D01*
X173499058Y-109952403D01*
X173419870Y-110143579D01*
X173419868Y-110143587D01*
X173379500Y-110346530D01*
X101370500Y-110346530D01*
X101370500Y-108440691D01*
X143149500Y-108440691D01*
X143149500Y-108559309D01*
X143180201Y-108673886D01*
X143239511Y-108776613D01*
X143323387Y-108860489D01*
X143426114Y-108919799D01*
X143540691Y-108950500D01*
X143540694Y-108950500D01*
X143659306Y-108950500D01*
X143659309Y-108950500D01*
X143773886Y-108919799D01*
X143876613Y-108860489D01*
X143960489Y-108776613D01*
X144019799Y-108673886D01*
X144019799Y-108673884D01*
X144021481Y-108670972D01*
X144072048Y-108622757D01*
X144140656Y-108609535D01*
X144205520Y-108635503D01*
X144236253Y-108670971D01*
X144239511Y-108676613D01*
X144323387Y-108760489D01*
X144426114Y-108819799D01*
X144540691Y-108850500D01*
X144540694Y-108850500D01*
X144659306Y-108850500D01*
X144659309Y-108850500D01*
X144773886Y-108819799D01*
X144876613Y-108760489D01*
X144960489Y-108676613D01*
X145019799Y-108573886D01*
X145050500Y-108459309D01*
X145050500Y-108425833D01*
X145070185Y-108358794D01*
X145086819Y-108338152D01*
X146688152Y-106736819D01*
X146749475Y-106703334D01*
X146775833Y-106700500D01*
X149502259Y-106700500D01*
X149569298Y-106720185D01*
X149615053Y-106772989D01*
X149624997Y-106842147D01*
X149622034Y-106856593D01*
X149599500Y-106940691D01*
X149599500Y-107059309D01*
X149630201Y-107173886D01*
X149689511Y-107276613D01*
X149773387Y-107360489D01*
X149876114Y-107419799D01*
X149990691Y-107450500D01*
X149990694Y-107450500D01*
X150109306Y-107450500D01*
X150109309Y-107450500D01*
X150223886Y-107419799D01*
X150315140Y-107367112D01*
X150377140Y-107350500D01*
X154946142Y-107350500D01*
X154946144Y-107350500D01*
X155035288Y-107326614D01*
X155045912Y-107320480D01*
X155115212Y-107280470D01*
X159070470Y-103325212D01*
X159116614Y-103245288D01*
X159130469Y-103193580D01*
X159140500Y-103156144D01*
X159140500Y-102850013D01*
X173080000Y-102850013D01*
X173080000Y-103250000D01*
X174150854Y-103250000D01*
X174112370Y-103316657D01*
X174080000Y-103437465D01*
X174080000Y-103562535D01*
X174112370Y-103683343D01*
X174150854Y-103750000D01*
X173080001Y-103750000D01*
X173080001Y-104149986D01*
X173090494Y-104252697D01*
X173145641Y-104419119D01*
X173145643Y-104419124D01*
X173237684Y-104568345D01*
X173361654Y-104692315D01*
X173510875Y-104784356D01*
X173510880Y-104784358D01*
X173677302Y-104839505D01*
X173677309Y-104839506D01*
X173780019Y-104849999D01*
X174304999Y-104849999D01*
X174305000Y-104849998D01*
X174305000Y-103904145D01*
X174371657Y-103942630D01*
X174492465Y-103975000D01*
X174617535Y-103975000D01*
X174738343Y-103942630D01*
X174805000Y-103904145D01*
X174805000Y-104849999D01*
X175329972Y-104849999D01*
X175329986Y-104849998D01*
X175432697Y-104839505D01*
X175599119Y-104784358D01*
X175599124Y-104784356D01*
X175748345Y-104692315D01*
X175872315Y-104568345D01*
X175964356Y-104419124D01*
X175964358Y-104419119D01*
X176019505Y-104252697D01*
X176019506Y-104252690D01*
X176029999Y-104149986D01*
X176030000Y-104149973D01*
X176030000Y-103750000D01*
X174959146Y-103750000D01*
X174997630Y-103683343D01*
X175030000Y-103562535D01*
X175030000Y-103437465D01*
X174997630Y-103316657D01*
X174959146Y-103250000D01*
X176029999Y-103250000D01*
X176029999Y-102850028D01*
X176029998Y-102850013D01*
X176019505Y-102747302D01*
X175964358Y-102580880D01*
X175964356Y-102580875D01*
X175872315Y-102431654D01*
X175748345Y-102307684D01*
X175599124Y-102215643D01*
X175599119Y-102215641D01*
X175432697Y-102160494D01*
X175432690Y-102160493D01*
X175329986Y-102150000D01*
X175258526Y-102150000D01*
X175191487Y-102130315D01*
X175145732Y-102077511D01*
X175135788Y-102008353D01*
X175164813Y-101944797D01*
X175189633Y-101922899D01*
X175349655Y-101815977D01*
X175495977Y-101669655D01*
X175610941Y-101497598D01*
X175690130Y-101306420D01*
X175730500Y-101103465D01*
X175730500Y-100896535D01*
X175690130Y-100693580D01*
X175610941Y-100502402D01*
X175495977Y-100330345D01*
X175495975Y-100330342D01*
X175349657Y-100184024D01*
X175263626Y-100126541D01*
X175177598Y-100069059D01*
X175132679Y-100050453D01*
X174986420Y-99989870D01*
X174986412Y-99989868D01*
X174783469Y-99949500D01*
X174783465Y-99949500D01*
X174326535Y-99949500D01*
X174326530Y-99949500D01*
X174123587Y-99989868D01*
X174123579Y-99989870D01*
X173932403Y-100069058D01*
X173760342Y-100184024D01*
X173614024Y-100330342D01*
X173499058Y-100502403D01*
X173419870Y-100693579D01*
X173419868Y-100693587D01*
X173379500Y-100896530D01*
X173379500Y-101103469D01*
X173419868Y-101306412D01*
X173419870Y-101306420D01*
X173499058Y-101497596D01*
X173614024Y-101669657D01*
X173760342Y-101815975D01*
X173760345Y-101815977D01*
X173920367Y-101922899D01*
X173965170Y-101976509D01*
X173973878Y-102045834D01*
X173943724Y-102108862D01*
X173884282Y-102145581D01*
X173851477Y-102150000D01*
X173780029Y-102150000D01*
X173780012Y-102150001D01*
X173677302Y-102160494D01*
X173510880Y-102215641D01*
X173510875Y-102215643D01*
X173361654Y-102307684D01*
X173237684Y-102431654D01*
X173145643Y-102580875D01*
X173145641Y-102580880D01*
X173090494Y-102747302D01*
X173090493Y-102747309D01*
X173080000Y-102850013D01*
X159140500Y-102850013D01*
X159140500Y-101074725D01*
X159160185Y-101007686D01*
X159212989Y-100961931D01*
X159217048Y-100960164D01*
X159287594Y-100930943D01*
X159287595Y-100930942D01*
X159287598Y-100930941D01*
X159459655Y-100815977D01*
X159605977Y-100669655D01*
X159720941Y-100497598D01*
X159800130Y-100306420D01*
X159840500Y-100103465D01*
X159840500Y-99896535D01*
X159800130Y-99693580D01*
X159720941Y-99502402D01*
X159605977Y-99330345D01*
X159605975Y-99330342D01*
X159459655Y-99184022D01*
X159287604Y-99069062D01*
X159287598Y-99069059D01*
X159272169Y-99062668D01*
X159217045Y-99039834D01*
X159162643Y-98995993D01*
X159140579Y-98929699D01*
X159140500Y-98925274D01*
X159140500Y-98396530D01*
X173379500Y-98396530D01*
X173379500Y-98603469D01*
X173419868Y-98806412D01*
X173419870Y-98806420D01*
X173489698Y-98975000D01*
X173499059Y-98997598D01*
X173531673Y-99046408D01*
X173614024Y-99169657D01*
X173760342Y-99315975D01*
X173760345Y-99315977D01*
X173932402Y-99430941D01*
X174123580Y-99510130D01*
X174326530Y-99550499D01*
X174326534Y-99550500D01*
X174326535Y-99550500D01*
X174783466Y-99550500D01*
X174783467Y-99550499D01*
X174986420Y-99510130D01*
X175177598Y-99430941D01*
X175349655Y-99315977D01*
X175495977Y-99169655D01*
X175610941Y-98997598D01*
X175690130Y-98806420D01*
X175730500Y-98603465D01*
X175730500Y-98396535D01*
X175690130Y-98193580D01*
X175610941Y-98002402D01*
X175495977Y-97830345D01*
X175495975Y-97830342D01*
X175349657Y-97684024D01*
X175244850Y-97613995D01*
X175177598Y-97569059D01*
X175176656Y-97568669D01*
X174986420Y-97489870D01*
X174986412Y-97489868D01*
X174783469Y-97449500D01*
X174783465Y-97449500D01*
X174326535Y-97449500D01*
X174326530Y-97449500D01*
X174123587Y-97489868D01*
X174123579Y-97489870D01*
X173932403Y-97569058D01*
X173760342Y-97684024D01*
X173614024Y-97830342D01*
X173499058Y-98002403D01*
X173419870Y-98193579D01*
X173419868Y-98193587D01*
X173379500Y-98396530D01*
X159140500Y-98396530D01*
X159140500Y-97406544D01*
X159160185Y-97339505D01*
X159176819Y-97318863D01*
X159354991Y-97140691D01*
X159616519Y-96879162D01*
X159672100Y-96847072D01*
X159773886Y-96819799D01*
X159876613Y-96760489D01*
X159960489Y-96676613D01*
X160019799Y-96573886D01*
X160050500Y-96459309D01*
X160050500Y-96340691D01*
X160019799Y-96226114D01*
X159960489Y-96123387D01*
X159876613Y-96039511D01*
X159773886Y-95980201D01*
X159659309Y-95949500D01*
X159540691Y-95949500D01*
X159426114Y-95980201D01*
X159426112Y-95980201D01*
X159426112Y-95980202D01*
X159323387Y-96039511D01*
X159323384Y-96039513D01*
X159239513Y-96123384D01*
X159239511Y-96123387D01*
X159180201Y-96226114D01*
X159160563Y-96299404D01*
X159152929Y-96327895D01*
X159120835Y-96383482D01*
X158509531Y-96994786D01*
X158509527Y-96994791D01*
X158480302Y-97045412D01*
X158480302Y-97045413D01*
X158463386Y-97074710D01*
X158439500Y-97163856D01*
X158439500Y-98925274D01*
X158419815Y-98992313D01*
X158367011Y-99038068D01*
X158362954Y-99039835D01*
X158292401Y-99069059D01*
X158292395Y-99069062D01*
X158120344Y-99184022D01*
X157974024Y-99330342D01*
X157859057Y-99502403D01*
X157790835Y-99667108D01*
X157746994Y-99721511D01*
X157680700Y-99743576D01*
X157613000Y-99726297D01*
X157565390Y-99675159D01*
X157558343Y-99657973D01*
X157501095Y-99481782D01*
X157404624Y-99292449D01*
X157365270Y-99238282D01*
X157365269Y-99238282D01*
X156732962Y-99870590D01*
X156715925Y-99807007D01*
X156650099Y-99692993D01*
X156557007Y-99599901D01*
X156442993Y-99534075D01*
X156379408Y-99517037D01*
X157011716Y-98884728D01*
X156957550Y-98845375D01*
X156768217Y-98748904D01*
X156566129Y-98683242D01*
X156356246Y-98650000D01*
X156143754Y-98650000D01*
X155933872Y-98683242D01*
X155933869Y-98683242D01*
X155731782Y-98748904D01*
X155724492Y-98752619D01*
X155655822Y-98765514D01*
X155591083Y-98739236D01*
X155550826Y-98682129D01*
X155547835Y-98612324D01*
X155580517Y-98554453D01*
X156448152Y-97686819D01*
X156509475Y-97653334D01*
X156535833Y-97650500D01*
X156559306Y-97650500D01*
X156559309Y-97650500D01*
X156673886Y-97619799D01*
X156776613Y-97560489D01*
X156860489Y-97476613D01*
X156919799Y-97373886D01*
X156950500Y-97259309D01*
X156950500Y-97140691D01*
X156919799Y-97026114D01*
X156860489Y-96923387D01*
X156776613Y-96839511D01*
X156673886Y-96780201D01*
X156559309Y-96749500D01*
X156440691Y-96749500D01*
X156326114Y-96780201D01*
X156326112Y-96780201D01*
X156326112Y-96780202D01*
X156223387Y-96839511D01*
X156223384Y-96839513D01*
X156139513Y-96923384D01*
X156139511Y-96923387D01*
X156098286Y-96994791D01*
X156080201Y-97026114D01*
X156049500Y-97140691D01*
X156049500Y-97140693D01*
X156049500Y-97184166D01*
X156029815Y-97251205D01*
X156013181Y-97271847D01*
X154272104Y-99012923D01*
X154210781Y-99046408D01*
X154141089Y-99041424D01*
X154136971Y-99039803D01*
X154016424Y-98989871D01*
X154016412Y-98989868D01*
X153813469Y-98949500D01*
X153813465Y-98949500D01*
X153674832Y-98949500D01*
X153607793Y-98929815D01*
X153562038Y-98877011D01*
X153552094Y-98807853D01*
X153581119Y-98744297D01*
X153587151Y-98737819D01*
X154893317Y-97431654D01*
X156490460Y-95834511D01*
X156738152Y-95586819D01*
X156799475Y-95553334D01*
X156825833Y-95550500D01*
X164812036Y-95550500D01*
X164879075Y-95570185D01*
X164899717Y-95586819D01*
X164923387Y-95610489D01*
X165026114Y-95669799D01*
X165140691Y-95700500D01*
X165140694Y-95700500D01*
X165259306Y-95700500D01*
X165259309Y-95700500D01*
X165373886Y-95669799D01*
X165476613Y-95610489D01*
X165560489Y-95526613D01*
X165619799Y-95423886D01*
X165650500Y-95309309D01*
X165650500Y-95190691D01*
X165619799Y-95076114D01*
X165560489Y-94973387D01*
X165476613Y-94889511D01*
X165373886Y-94830201D01*
X165259309Y-94799500D01*
X165140691Y-94799500D01*
X165026114Y-94830201D01*
X165026112Y-94830201D01*
X165026112Y-94830202D01*
X164923387Y-94889511D01*
X164923384Y-94889513D01*
X164899717Y-94913181D01*
X164838394Y-94946666D01*
X164812036Y-94949500D01*
X156610438Y-94949500D01*
X156559486Y-94963152D01*
X156534010Y-94969979D01*
X156474934Y-95004087D01*
X156474933Y-95004086D01*
X156465492Y-95009537D01*
X156465487Y-95009541D01*
X156065489Y-95409540D01*
X152393569Y-99081459D01*
X152332246Y-99114944D01*
X152262554Y-99109960D01*
X152206621Y-99068088D01*
X152202786Y-99062668D01*
X152164553Y-99005448D01*
X152098230Y-98961132D01*
X152098229Y-98961131D01*
X152039752Y-98949500D01*
X152039748Y-98949500D01*
X150300252Y-98949500D01*
X150300247Y-98949500D01*
X150241770Y-98961131D01*
X150241769Y-98961132D01*
X150175447Y-99005447D01*
X150131132Y-99071769D01*
X150131131Y-99071770D01*
X150119500Y-99130247D01*
X150119500Y-100869752D01*
X150131131Y-100928229D01*
X150131132Y-100928230D01*
X150175447Y-100994552D01*
X150241769Y-101038867D01*
X150241770Y-101038868D01*
X150300247Y-101050499D01*
X150300250Y-101050500D01*
X150300252Y-101050500D01*
X150745500Y-101050500D01*
X150812539Y-101070185D01*
X150858294Y-101122989D01*
X150869500Y-101174500D01*
X150869500Y-105154167D01*
X150849815Y-105221206D01*
X150833181Y-105241848D01*
X150411848Y-105663181D01*
X150350525Y-105696666D01*
X150324167Y-105699500D01*
X145260438Y-105699500D01*
X145229867Y-105707691D01*
X145184008Y-105719979D01*
X145184007Y-105719980D01*
X145148538Y-105740459D01*
X145115492Y-105759537D01*
X145115487Y-105759541D01*
X143359541Y-107515487D01*
X143359535Y-107515495D01*
X143319982Y-107584004D01*
X143319979Y-107584009D01*
X143299500Y-107660439D01*
X143299500Y-108112036D01*
X143279815Y-108179075D01*
X143263181Y-108199717D01*
X143239513Y-108223384D01*
X143239511Y-108223387D01*
X143208418Y-108277242D01*
X143180201Y-108326114D01*
X143149500Y-108440691D01*
X101370500Y-108440691D01*
X101370500Y-108395730D01*
X101367646Y-108365300D01*
X101367646Y-108365298D01*
X101322793Y-108237119D01*
X101322792Y-108237117D01*
X101316822Y-108229028D01*
X101242150Y-108127850D01*
X101132882Y-108047207D01*
X101132880Y-108047206D01*
X101004700Y-108002353D01*
X100974270Y-107999500D01*
X100974266Y-107999500D01*
X99025734Y-107999500D01*
X99025730Y-107999500D01*
X98995300Y-108002353D01*
X98995298Y-108002353D01*
X98867119Y-108047206D01*
X98867117Y-108047207D01*
X98757850Y-108127850D01*
X98677207Y-108237117D01*
X98677206Y-108237119D01*
X98632353Y-108365298D01*
X98632353Y-108365300D01*
X98629500Y-108395730D01*
X79000000Y-108395730D01*
X79000000Y-103396530D01*
X81469500Y-103396530D01*
X81469500Y-103603469D01*
X81509868Y-103806412D01*
X81509870Y-103806420D01*
X81589058Y-103997596D01*
X81704024Y-104169657D01*
X81850342Y-104315975D01*
X81850345Y-104315977D01*
X82022402Y-104430941D01*
X82213580Y-104510130D01*
X82416530Y-104550499D01*
X82416534Y-104550500D01*
X82416535Y-104550500D01*
X82873466Y-104550500D01*
X82873467Y-104550499D01*
X83076420Y-104510130D01*
X83267598Y-104430941D01*
X83439655Y-104315977D01*
X83585977Y-104169655D01*
X83700941Y-103997598D01*
X83780130Y-103806420D01*
X83820500Y-103603465D01*
X83820500Y-103396535D01*
X83780130Y-103193580D01*
X83700941Y-103002402D01*
X83585977Y-102830345D01*
X83585975Y-102830342D01*
X83439657Y-102684024D01*
X83353626Y-102626541D01*
X83267598Y-102569059D01*
X83076420Y-102489870D01*
X83076412Y-102489868D01*
X82873469Y-102449500D01*
X82873465Y-102449500D01*
X82416535Y-102449500D01*
X82416530Y-102449500D01*
X82213587Y-102489868D01*
X82213579Y-102489870D01*
X82022403Y-102569058D01*
X81850342Y-102684024D01*
X81704024Y-102830342D01*
X81589058Y-103002403D01*
X81509870Y-103193579D01*
X81509868Y-103193587D01*
X81469500Y-103396530D01*
X79000000Y-103396530D01*
X79000000Y-97850013D01*
X81170000Y-97850013D01*
X81170000Y-98250000D01*
X82240854Y-98250000D01*
X82202370Y-98316657D01*
X82170000Y-98437465D01*
X82170000Y-98562535D01*
X82202370Y-98683343D01*
X82240854Y-98750000D01*
X81170001Y-98750000D01*
X81170001Y-99149986D01*
X81180494Y-99252697D01*
X81235641Y-99419119D01*
X81235643Y-99419124D01*
X81327684Y-99568345D01*
X81451654Y-99692315D01*
X81600875Y-99784356D01*
X81600880Y-99784358D01*
X81767302Y-99839505D01*
X81767309Y-99839506D01*
X81870019Y-99849999D01*
X81941471Y-99849999D01*
X82008511Y-99869683D01*
X82054267Y-99922486D01*
X82064211Y-99991644D01*
X82035187Y-100055200D01*
X82010364Y-100077101D01*
X81850345Y-100184022D01*
X81850341Y-100184025D01*
X81704024Y-100330342D01*
X81589058Y-100502403D01*
X81509870Y-100693579D01*
X81509868Y-100693587D01*
X81469500Y-100896530D01*
X81469500Y-101103469D01*
X81509868Y-101306412D01*
X81509870Y-101306420D01*
X81589058Y-101497596D01*
X81704024Y-101669657D01*
X81850342Y-101815975D01*
X81850345Y-101815977D01*
X82022402Y-101930941D01*
X82213580Y-102010130D01*
X82416530Y-102050499D01*
X82416534Y-102050500D01*
X82416535Y-102050500D01*
X82873466Y-102050500D01*
X82873467Y-102050499D01*
X83076420Y-102010130D01*
X83267598Y-101930941D01*
X83439655Y-101815977D01*
X83585977Y-101669655D01*
X83700941Y-101497598D01*
X83750875Y-101377046D01*
X83794716Y-101322644D01*
X83861010Y-101300579D01*
X83865436Y-101300500D01*
X85624167Y-101300500D01*
X85691206Y-101320185D01*
X85711848Y-101336819D01*
X89613181Y-105238152D01*
X89646666Y-105299475D01*
X89649500Y-105325833D01*
X89649500Y-105359309D01*
X89680201Y-105473886D01*
X89739511Y-105576613D01*
X89823387Y-105660489D01*
X89926114Y-105719799D01*
X90040691Y-105750500D01*
X90040694Y-105750500D01*
X90159306Y-105750500D01*
X90159309Y-105750500D01*
X90273886Y-105719799D01*
X90376613Y-105660489D01*
X90460489Y-105576613D01*
X90519799Y-105473886D01*
X90550500Y-105359309D01*
X90550500Y-105240691D01*
X90519799Y-105126114D01*
X90460489Y-105023387D01*
X90376613Y-104939511D01*
X90273886Y-104880201D01*
X90159309Y-104849500D01*
X90159306Y-104849500D01*
X90125833Y-104849500D01*
X90058794Y-104829815D01*
X90038152Y-104813181D01*
X85984512Y-100759541D01*
X85984507Y-100759537D01*
X85968853Y-100750499D01*
X85968851Y-100750499D01*
X85937089Y-100732161D01*
X85915990Y-100719979D01*
X85890513Y-100713152D01*
X85839562Y-100699500D01*
X85839560Y-100699500D01*
X83865436Y-100699500D01*
X83798397Y-100679815D01*
X83752642Y-100627011D01*
X83750875Y-100622953D01*
X83744077Y-100606541D01*
X83700941Y-100502402D01*
X83585977Y-100330345D01*
X83585975Y-100330342D01*
X83439657Y-100184024D01*
X83394618Y-100153930D01*
X83279632Y-100077100D01*
X83234829Y-100023490D01*
X83226121Y-99954165D01*
X83256275Y-99891137D01*
X83315718Y-99854417D01*
X83348524Y-99849999D01*
X83419971Y-99849999D01*
X83419987Y-99849998D01*
X83522697Y-99839505D01*
X83689119Y-99784358D01*
X83689124Y-99784356D01*
X83838345Y-99692315D01*
X83962315Y-99568345D01*
X84054356Y-99419124D01*
X84054358Y-99419119D01*
X84109505Y-99252697D01*
X84109506Y-99252690D01*
X84119999Y-99149986D01*
X84120000Y-99149973D01*
X84120000Y-98750000D01*
X83049146Y-98750000D01*
X83087630Y-98683343D01*
X83120000Y-98562535D01*
X83120000Y-98437465D01*
X83087630Y-98316657D01*
X83049146Y-98250000D01*
X84119999Y-98250000D01*
X84119999Y-97850028D01*
X84119998Y-97850013D01*
X84109505Y-97747302D01*
X84054358Y-97580880D01*
X84054356Y-97580875D01*
X83962315Y-97431654D01*
X83838345Y-97307684D01*
X83689124Y-97215643D01*
X83689119Y-97215641D01*
X83522697Y-97160494D01*
X83522690Y-97160493D01*
X83419986Y-97150000D01*
X82895000Y-97150000D01*
X82895000Y-98095854D01*
X82828343Y-98057370D01*
X82707535Y-98025000D01*
X82582465Y-98025000D01*
X82461657Y-98057370D01*
X82395000Y-98095854D01*
X82395000Y-97150000D01*
X81870028Y-97150000D01*
X81870012Y-97150001D01*
X81767302Y-97160494D01*
X81600880Y-97215641D01*
X81600875Y-97215643D01*
X81451654Y-97307684D01*
X81327684Y-97431654D01*
X81235643Y-97580875D01*
X81235641Y-97580880D01*
X81180494Y-97747302D01*
X81180493Y-97747309D01*
X81170000Y-97850013D01*
X79000000Y-97850013D01*
X79000000Y-96468519D01*
X108239500Y-96468519D01*
X108239500Y-99658024D01*
X108251131Y-99716501D01*
X108251132Y-99716502D01*
X108295447Y-99782824D01*
X108361769Y-99827139D01*
X108361770Y-99827140D01*
X108420247Y-99838771D01*
X108420250Y-99838772D01*
X108420252Y-99838772D01*
X109459750Y-99838772D01*
X109459751Y-99838771D01*
X109474568Y-99835824D01*
X109518229Y-99827140D01*
X109518229Y-99827139D01*
X109518231Y-99827139D01*
X109584552Y-99782824D01*
X109628867Y-99716503D01*
X109628867Y-99716501D01*
X109628868Y-99716501D01*
X109640499Y-99658024D01*
X109640500Y-99658022D01*
X109640500Y-98308087D01*
X109660185Y-98241048D01*
X109712989Y-98195293D01*
X109782147Y-98185349D01*
X109845703Y-98214374D01*
X109871885Y-98246085D01*
X109889511Y-98276613D01*
X109973387Y-98360489D01*
X110076114Y-98419799D01*
X110190691Y-98450500D01*
X110190694Y-98450500D01*
X110309306Y-98450500D01*
X110309309Y-98450500D01*
X110423886Y-98419799D01*
X110492153Y-98380384D01*
X110507641Y-98376234D01*
X110519218Y-98368795D01*
X110554153Y-98363772D01*
X110655500Y-98363772D01*
X110722539Y-98383457D01*
X110768294Y-98436261D01*
X110779500Y-98487772D01*
X110779500Y-99658024D01*
X110791131Y-99716501D01*
X110791132Y-99716502D01*
X110835447Y-99782824D01*
X110901769Y-99827139D01*
X110901770Y-99827140D01*
X110960247Y-99838771D01*
X110960250Y-99838772D01*
X110960252Y-99838772D01*
X111999750Y-99838772D01*
X111999751Y-99838771D01*
X112014568Y-99835824D01*
X112058229Y-99827140D01*
X112058229Y-99827139D01*
X112058231Y-99827139D01*
X112124552Y-99782824D01*
X112168867Y-99716503D01*
X112168867Y-99716501D01*
X112168868Y-99716501D01*
X112180499Y-99658024D01*
X112180500Y-99658022D01*
X112180500Y-98366964D01*
X112200185Y-98299925D01*
X112252989Y-98254170D01*
X112322147Y-98244226D01*
X112385703Y-98273251D01*
X112392181Y-98279283D01*
X112473387Y-98360489D01*
X112576114Y-98419799D01*
X112690691Y-98450500D01*
X112690694Y-98450500D01*
X112809306Y-98450500D01*
X112809309Y-98450500D01*
X112923886Y-98419799D01*
X112992153Y-98380384D01*
X113007641Y-98376234D01*
X113019218Y-98368795D01*
X113054153Y-98363772D01*
X113195500Y-98363772D01*
X113262539Y-98383457D01*
X113308294Y-98436261D01*
X113319500Y-98487772D01*
X113319500Y-99658024D01*
X113331131Y-99716501D01*
X113331132Y-99716502D01*
X113375447Y-99782824D01*
X113441769Y-99827139D01*
X113441770Y-99827140D01*
X113500247Y-99838771D01*
X113500250Y-99838772D01*
X113500252Y-99838772D01*
X114539750Y-99838772D01*
X114539751Y-99838771D01*
X114554568Y-99835824D01*
X114598229Y-99827140D01*
X114598229Y-99827139D01*
X114598231Y-99827139D01*
X114664552Y-99782824D01*
X114708867Y-99716503D01*
X114708867Y-99716501D01*
X114708868Y-99716501D01*
X114720499Y-99658024D01*
X114720500Y-99658022D01*
X114720500Y-98406964D01*
X114740185Y-98339925D01*
X114792989Y-98294170D01*
X114862147Y-98284226D01*
X114925703Y-98313251D01*
X114932181Y-98319283D01*
X114973387Y-98360489D01*
X115076114Y-98419799D01*
X115190691Y-98450500D01*
X115190694Y-98450500D01*
X115309306Y-98450500D01*
X115309309Y-98450500D01*
X115423886Y-98419799D01*
X115492153Y-98380384D01*
X115507641Y-98376234D01*
X115519218Y-98368795D01*
X115554153Y-98363772D01*
X115735500Y-98363772D01*
X115802539Y-98383457D01*
X115848294Y-98436261D01*
X115859500Y-98487772D01*
X115859500Y-99658024D01*
X115871131Y-99716501D01*
X115871132Y-99716502D01*
X115915447Y-99782824D01*
X115981769Y-99827139D01*
X115981770Y-99827140D01*
X116040247Y-99838771D01*
X116040250Y-99838772D01*
X116040252Y-99838772D01*
X117079750Y-99838772D01*
X117079751Y-99838771D01*
X117094568Y-99835824D01*
X117138229Y-99827140D01*
X117138229Y-99827139D01*
X117138231Y-99827139D01*
X117204552Y-99782824D01*
X117248867Y-99716503D01*
X117248867Y-99716501D01*
X117248868Y-99716501D01*
X117260499Y-99658024D01*
X117260500Y-99658022D01*
X117260500Y-98446964D01*
X117280185Y-98379925D01*
X117332989Y-98334170D01*
X117402147Y-98324226D01*
X117465703Y-98353251D01*
X117472181Y-98359283D01*
X117473387Y-98360489D01*
X117576114Y-98419799D01*
X117690691Y-98450500D01*
X117690694Y-98450500D01*
X117809306Y-98450500D01*
X117809309Y-98450500D01*
X117923886Y-98419799D01*
X117992153Y-98380384D01*
X118007641Y-98376234D01*
X118019218Y-98368795D01*
X118054153Y-98363772D01*
X118275500Y-98363772D01*
X118342539Y-98383457D01*
X118388294Y-98436261D01*
X118399500Y-98487772D01*
X118399500Y-99658024D01*
X118411131Y-99716501D01*
X118411132Y-99716502D01*
X118455447Y-99782824D01*
X118521769Y-99827139D01*
X118521770Y-99827140D01*
X118580247Y-99838771D01*
X118580250Y-99838772D01*
X118580252Y-99838772D01*
X119619750Y-99838772D01*
X119619751Y-99838771D01*
X119634568Y-99835824D01*
X119678229Y-99827140D01*
X119678229Y-99827139D01*
X119678231Y-99827139D01*
X119744552Y-99782824D01*
X119788867Y-99716503D01*
X119788867Y-99716501D01*
X119788868Y-99716501D01*
X119800499Y-99658024D01*
X119800500Y-99658022D01*
X119800500Y-98475446D01*
X119820185Y-98408407D01*
X119872989Y-98362652D01*
X119942147Y-98352708D01*
X119986497Y-98368058D01*
X120076114Y-98419799D01*
X120190691Y-98450500D01*
X120190694Y-98450500D01*
X120309306Y-98450500D01*
X120309309Y-98450500D01*
X120423886Y-98419799D01*
X120492153Y-98380384D01*
X120554153Y-98363772D01*
X120815500Y-98363772D01*
X120882539Y-98383457D01*
X120928294Y-98436261D01*
X120939500Y-98487772D01*
X120939500Y-99658024D01*
X120951131Y-99716501D01*
X120951132Y-99716502D01*
X120995447Y-99782824D01*
X121061769Y-99827139D01*
X121061770Y-99827140D01*
X121120247Y-99838771D01*
X121120250Y-99838772D01*
X121120252Y-99838772D01*
X122159750Y-99838772D01*
X122159751Y-99838771D01*
X122174568Y-99835824D01*
X122218229Y-99827140D01*
X122218229Y-99827139D01*
X122218231Y-99827139D01*
X122284552Y-99782824D01*
X122328867Y-99716503D01*
X122328867Y-99716501D01*
X122328868Y-99716501D01*
X122340499Y-99658024D01*
X122340500Y-99658022D01*
X122340500Y-96468521D01*
X122340499Y-96468519D01*
X122328868Y-96410042D01*
X122328867Y-96410041D01*
X122284552Y-96343719D01*
X122218230Y-96299404D01*
X122218229Y-96299403D01*
X122159752Y-96287772D01*
X122159748Y-96287772D01*
X121120252Y-96287772D01*
X121120247Y-96287772D01*
X121061770Y-96299403D01*
X121061769Y-96299404D01*
X120995447Y-96343719D01*
X120951132Y-96410041D01*
X120951131Y-96410042D01*
X120939500Y-96468519D01*
X120939500Y-97638772D01*
X120936949Y-97647457D01*
X120938238Y-97656419D01*
X120927259Y-97680459D01*
X120919815Y-97705811D01*
X120912974Y-97711738D01*
X120909213Y-97719975D01*
X120886978Y-97734264D01*
X120867011Y-97751566D01*
X120856496Y-97753853D01*
X120850435Y-97757749D01*
X120815500Y-97762772D01*
X120701236Y-97762772D01*
X120634197Y-97743087D01*
X120613555Y-97726453D01*
X120526615Y-97639513D01*
X120526613Y-97639511D01*
X120423886Y-97580201D01*
X120309309Y-97549500D01*
X120190691Y-97549500D01*
X120076114Y-97580201D01*
X120076112Y-97580201D01*
X120076112Y-97580202D01*
X120074938Y-97580880D01*
X119986499Y-97631940D01*
X119918601Y-97648413D01*
X119852574Y-97625561D01*
X119809383Y-97570640D01*
X119800500Y-97524553D01*
X119800500Y-96468521D01*
X119800499Y-96468519D01*
X119788868Y-96410042D01*
X119788867Y-96410041D01*
X119744552Y-96343719D01*
X119678230Y-96299404D01*
X119678229Y-96299403D01*
X119619752Y-96287772D01*
X119619748Y-96287772D01*
X118580252Y-96287772D01*
X118580247Y-96287772D01*
X118521770Y-96299403D01*
X118521769Y-96299404D01*
X118455447Y-96343719D01*
X118411132Y-96410041D01*
X118411131Y-96410042D01*
X118399500Y-96468519D01*
X118399500Y-97638772D01*
X118396949Y-97647457D01*
X118398238Y-97656419D01*
X118387259Y-97680459D01*
X118379815Y-97705811D01*
X118372974Y-97711738D01*
X118369213Y-97719975D01*
X118346978Y-97734264D01*
X118327011Y-97751566D01*
X118316496Y-97753853D01*
X118310435Y-97757749D01*
X118275500Y-97762772D01*
X118201236Y-97762772D01*
X118134197Y-97743087D01*
X118113555Y-97726453D01*
X118026615Y-97639513D01*
X118026613Y-97639511D01*
X117923886Y-97580201D01*
X117809309Y-97549500D01*
X117690691Y-97549500D01*
X117576114Y-97580201D01*
X117576112Y-97580201D01*
X117576112Y-97580202D01*
X117473387Y-97639511D01*
X117473384Y-97639513D01*
X117472181Y-97640717D01*
X117470916Y-97641407D01*
X117466941Y-97644458D01*
X117466465Y-97643838D01*
X117410858Y-97674202D01*
X117341166Y-97669218D01*
X117285233Y-97627346D01*
X117260816Y-97561882D01*
X117260500Y-97553036D01*
X117260500Y-96468521D01*
X117260499Y-96468519D01*
X117248868Y-96410042D01*
X117248867Y-96410041D01*
X117204552Y-96343719D01*
X117138230Y-96299404D01*
X117138229Y-96299403D01*
X117079752Y-96287772D01*
X117079748Y-96287772D01*
X116040252Y-96287772D01*
X116040247Y-96287772D01*
X115981770Y-96299403D01*
X115981769Y-96299404D01*
X115915447Y-96343719D01*
X115871132Y-96410041D01*
X115871131Y-96410042D01*
X115859500Y-96468519D01*
X115859500Y-97638772D01*
X115856949Y-97647457D01*
X115858238Y-97656419D01*
X115847259Y-97680459D01*
X115839815Y-97705811D01*
X115832974Y-97711738D01*
X115829213Y-97719975D01*
X115806978Y-97734264D01*
X115787011Y-97751566D01*
X115776496Y-97753853D01*
X115770435Y-97757749D01*
X115735500Y-97762772D01*
X115701236Y-97762772D01*
X115634197Y-97743087D01*
X115613555Y-97726453D01*
X115526615Y-97639513D01*
X115526613Y-97639511D01*
X115423886Y-97580201D01*
X115309309Y-97549500D01*
X115190691Y-97549500D01*
X115076114Y-97580201D01*
X115076112Y-97580201D01*
X115076112Y-97580202D01*
X114973387Y-97639511D01*
X114973384Y-97639513D01*
X114932181Y-97680717D01*
X114870858Y-97714202D01*
X114801166Y-97709218D01*
X114745233Y-97667346D01*
X114720816Y-97601882D01*
X114720500Y-97593036D01*
X114720500Y-96468521D01*
X114720499Y-96468519D01*
X114708868Y-96410042D01*
X114708867Y-96410041D01*
X114664552Y-96343719D01*
X114598230Y-96299404D01*
X114598229Y-96299403D01*
X114539752Y-96287772D01*
X114539748Y-96287772D01*
X113500252Y-96287772D01*
X113500247Y-96287772D01*
X113441770Y-96299403D01*
X113441769Y-96299404D01*
X113375447Y-96343719D01*
X113331132Y-96410041D01*
X113331131Y-96410042D01*
X113319500Y-96468519D01*
X113319500Y-97633036D01*
X113299815Y-97700075D01*
X113247011Y-97745830D01*
X113177853Y-97755774D01*
X113114297Y-97726749D01*
X113107819Y-97720717D01*
X113026615Y-97639513D01*
X113026613Y-97639511D01*
X112923886Y-97580201D01*
X112809309Y-97549500D01*
X112690691Y-97549500D01*
X112576114Y-97580201D01*
X112576112Y-97580201D01*
X112576112Y-97580202D01*
X112473387Y-97639511D01*
X112473384Y-97639513D01*
X112392181Y-97720717D01*
X112330858Y-97754202D01*
X112261166Y-97749218D01*
X112205233Y-97707346D01*
X112180816Y-97641882D01*
X112180500Y-97633036D01*
X112180500Y-96468521D01*
X112180499Y-96468519D01*
X112168868Y-96410042D01*
X112168867Y-96410041D01*
X112124552Y-96343719D01*
X112058230Y-96299404D01*
X112058229Y-96299403D01*
X111999752Y-96287772D01*
X111999748Y-96287772D01*
X111439833Y-96287772D01*
X111418587Y-96281533D01*
X111396499Y-96279954D01*
X111385715Y-96271881D01*
X111372794Y-96268087D01*
X111358294Y-96251353D01*
X111340566Y-96238082D01*
X111335858Y-96225461D01*
X111327039Y-96215283D01*
X111323887Y-96193365D01*
X111316149Y-96172618D01*
X111319011Y-96159457D01*
X111317095Y-96146125D01*
X111326294Y-96125981D01*
X111331001Y-96104345D01*
X111344269Y-96086619D01*
X111346120Y-96082569D01*
X111352152Y-96076091D01*
X111411424Y-96016819D01*
X111472747Y-95983334D01*
X111499105Y-95980500D01*
X127004167Y-95980500D01*
X127071206Y-96000185D01*
X127091848Y-96016819D01*
X127151120Y-96076091D01*
X127184605Y-96137414D01*
X127179621Y-96207106D01*
X127137749Y-96263039D01*
X127072285Y-96287456D01*
X127063439Y-96287772D01*
X126200247Y-96287772D01*
X126141770Y-96299403D01*
X126141769Y-96299404D01*
X126075447Y-96343719D01*
X126031132Y-96410041D01*
X126031131Y-96410042D01*
X126019500Y-96468519D01*
X126019500Y-97591709D01*
X125999815Y-97658748D01*
X125947011Y-97704503D01*
X125877853Y-97714447D01*
X125833500Y-97699096D01*
X125737161Y-97643474D01*
X125737162Y-97643474D01*
X125707977Y-97635654D01*
X125622581Y-97612772D01*
X125503963Y-97612772D01*
X125389386Y-97643473D01*
X125389384Y-97643473D01*
X125389384Y-97643474D01*
X125286659Y-97702783D01*
X125286656Y-97702785D01*
X125202785Y-97786656D01*
X125202783Y-97786659D01*
X125166197Y-97850028D01*
X125143473Y-97889386D01*
X125124275Y-97961035D01*
X125087910Y-98020695D01*
X125025062Y-98051224D01*
X124955687Y-98042929D01*
X124901809Y-97998444D01*
X124880535Y-97931891D01*
X124880500Y-97928941D01*
X124880500Y-96468521D01*
X124880499Y-96468519D01*
X124868868Y-96410042D01*
X124868867Y-96410041D01*
X124824552Y-96343719D01*
X124758230Y-96299404D01*
X124758229Y-96299403D01*
X124699752Y-96287772D01*
X124699748Y-96287772D01*
X123660252Y-96287772D01*
X123660247Y-96287772D01*
X123601770Y-96299403D01*
X123601769Y-96299404D01*
X123535447Y-96343719D01*
X123491132Y-96410041D01*
X123491131Y-96410042D01*
X123479500Y-96468519D01*
X123479500Y-97568615D01*
X123459815Y-97635654D01*
X123407011Y-97681409D01*
X123337853Y-97691353D01*
X123293499Y-97676002D01*
X123237158Y-97643473D01*
X123122581Y-97612772D01*
X123003963Y-97612772D01*
X122889386Y-97643473D01*
X122889384Y-97643473D01*
X122889384Y-97643474D01*
X122786659Y-97702783D01*
X122786656Y-97702785D01*
X122702785Y-97786656D01*
X122702783Y-97786659D01*
X122666197Y-97850028D01*
X122643473Y-97889386D01*
X122612772Y-98003963D01*
X122612772Y-98122581D01*
X122643473Y-98237158D01*
X122702783Y-98339885D01*
X122786659Y-98423761D01*
X122889386Y-98483071D01*
X123003963Y-98513772D01*
X123003966Y-98513772D01*
X123122578Y-98513772D01*
X123122581Y-98513772D01*
X123237158Y-98483071D01*
X123293500Y-98450541D01*
X123361398Y-98434068D01*
X123427425Y-98456919D01*
X123470617Y-98511840D01*
X123479500Y-98557928D01*
X123479500Y-99658024D01*
X123491131Y-99716501D01*
X123491132Y-99716502D01*
X123535447Y-99782824D01*
X123601769Y-99827139D01*
X123601770Y-99827140D01*
X123660247Y-99838771D01*
X123660250Y-99838772D01*
X123660252Y-99838772D01*
X124699750Y-99838772D01*
X124699751Y-99838771D01*
X124714568Y-99835824D01*
X124758229Y-99827140D01*
X124758229Y-99827139D01*
X124758231Y-99827139D01*
X124824552Y-99782824D01*
X124868867Y-99716503D01*
X124868867Y-99716501D01*
X124868868Y-99716501D01*
X124880499Y-99658024D01*
X124880500Y-99658022D01*
X124880500Y-98197602D01*
X124900185Y-98130563D01*
X124952989Y-98084808D01*
X125022147Y-98074864D01*
X125085703Y-98103889D01*
X125123477Y-98162667D01*
X125124260Y-98165455D01*
X125143473Y-98237158D01*
X125202783Y-98339885D01*
X125286659Y-98423761D01*
X125389386Y-98483071D01*
X125503963Y-98513772D01*
X125503966Y-98513772D01*
X125622578Y-98513772D01*
X125622581Y-98513772D01*
X125737158Y-98483071D01*
X125737160Y-98483069D01*
X125737162Y-98483069D01*
X125737163Y-98483068D01*
X125760146Y-98469799D01*
X125833499Y-98427448D01*
X125901399Y-98410974D01*
X125967426Y-98433826D01*
X126010617Y-98488747D01*
X126019500Y-98534834D01*
X126019500Y-99658024D01*
X126031131Y-99716501D01*
X126031132Y-99716502D01*
X126075447Y-99782824D01*
X126141769Y-99827139D01*
X126141770Y-99827140D01*
X126200247Y-99838771D01*
X126200250Y-99838772D01*
X126200252Y-99838772D01*
X127239750Y-99838772D01*
X127239751Y-99838771D01*
X127254568Y-99835824D01*
X127298229Y-99827140D01*
X127298229Y-99827139D01*
X127298231Y-99827139D01*
X127364552Y-99782824D01*
X127408867Y-99716503D01*
X127408867Y-99716501D01*
X127408868Y-99716501D01*
X127420499Y-99658024D01*
X127420500Y-99658022D01*
X127420500Y-96644833D01*
X127426738Y-96623587D01*
X127428318Y-96601499D01*
X127436390Y-96590715D01*
X127440185Y-96577794D01*
X127456918Y-96563294D01*
X127470190Y-96545566D01*
X127482810Y-96540858D01*
X127492989Y-96532039D01*
X127514906Y-96528887D01*
X127535654Y-96521149D01*
X127548814Y-96524011D01*
X127562147Y-96522095D01*
X127582290Y-96531294D01*
X127603927Y-96536001D01*
X127621652Y-96549269D01*
X127625703Y-96551120D01*
X127632181Y-96557152D01*
X127803181Y-96728152D01*
X127836666Y-96789475D01*
X127839500Y-96815833D01*
X127839500Y-100809562D01*
X127859979Y-100885989D01*
X127884549Y-100928545D01*
X127899540Y-100954511D01*
X128678540Y-101733511D01*
X128734489Y-101789460D01*
X128734491Y-101789461D01*
X128734495Y-101789464D01*
X128803004Y-101829017D01*
X128803011Y-101829021D01*
X128879438Y-101849500D01*
X128958562Y-101849500D01*
X132209778Y-101849500D01*
X137673167Y-101849500D01*
X137740206Y-101869185D01*
X137760848Y-101885819D01*
X139914181Y-104039152D01*
X139947666Y-104100475D01*
X139950500Y-104126833D01*
X139950500Y-106651723D01*
X139930815Y-106718762D01*
X139878011Y-106764517D01*
X139858595Y-106771497D01*
X139826115Y-106780200D01*
X139826114Y-106780200D01*
X139723387Y-106839511D01*
X139723384Y-106839513D01*
X139639513Y-106923384D01*
X139639511Y-106923387D01*
X139580201Y-107026114D01*
X139549500Y-107140691D01*
X139549500Y-107259309D01*
X139580201Y-107373886D01*
X139639511Y-107476613D01*
X139723387Y-107560489D01*
X139826114Y-107619799D01*
X139940691Y-107650500D01*
X139940694Y-107650500D01*
X140059306Y-107650500D01*
X140059309Y-107650500D01*
X140173886Y-107619799D01*
X140276613Y-107560489D01*
X140360489Y-107476613D01*
X140419799Y-107373886D01*
X140450500Y-107259309D01*
X140450500Y-107225833D01*
X140470185Y-107158794D01*
X140486819Y-107138152D01*
X140491460Y-107133511D01*
X140531022Y-107064988D01*
X140551500Y-106988562D01*
X140551500Y-106909438D01*
X140551500Y-105740539D01*
X140571185Y-105673500D01*
X140623989Y-105627745D01*
X140693147Y-105617801D01*
X140756703Y-105646826D01*
X140782886Y-105678537D01*
X140839511Y-105776613D01*
X140923387Y-105860489D01*
X141026114Y-105919799D01*
X141140691Y-105950500D01*
X141140694Y-105950500D01*
X141259306Y-105950500D01*
X141259309Y-105950500D01*
X141373886Y-105919799D01*
X141476613Y-105860489D01*
X141560489Y-105776613D01*
X141563742Y-105770977D01*
X141614303Y-105722762D01*
X141682909Y-105709534D01*
X141747776Y-105735497D01*
X141778517Y-105770972D01*
X141817305Y-105838152D01*
X141839511Y-105876613D01*
X141923387Y-105960489D01*
X142026114Y-106019799D01*
X142140691Y-106050500D01*
X142140694Y-106050500D01*
X142259306Y-106050500D01*
X142259309Y-106050500D01*
X142373886Y-106019799D01*
X142476613Y-105960489D01*
X142560489Y-105876613D01*
X142619799Y-105773886D01*
X142650500Y-105659309D01*
X142650500Y-105540691D01*
X142619799Y-105426114D01*
X142569807Y-105339526D01*
X142553335Y-105271629D01*
X142566590Y-105233330D01*
X142531316Y-105246487D01*
X142463043Y-105231635D01*
X142460472Y-105230191D01*
X142453502Y-105226167D01*
X142427819Y-105206460D01*
X141833540Y-104612181D01*
X141822927Y-104592744D01*
X141808427Y-104576011D01*
X141806510Y-104562679D01*
X141800055Y-104550858D01*
X141801634Y-104528771D01*
X141798483Y-104506853D01*
X141804078Y-104494601D01*
X141805039Y-104481166D01*
X141818309Y-104463439D01*
X141827508Y-104443297D01*
X141838839Y-104436014D01*
X141846911Y-104425233D01*
X141867656Y-104417495D01*
X141886286Y-104405523D01*
X141908204Y-104402371D01*
X141912375Y-104400816D01*
X141921221Y-104400500D01*
X141924167Y-104400500D01*
X141991206Y-104420185D01*
X142011848Y-104436819D01*
X142610151Y-105035122D01*
X142643636Y-105096445D01*
X142638972Y-105161660D01*
X142700661Y-105155769D01*
X142762764Y-105187784D01*
X142764876Y-105189847D01*
X143413181Y-105838152D01*
X143446666Y-105899475D01*
X143449500Y-105925833D01*
X143449500Y-105959309D01*
X143480201Y-106073886D01*
X143539511Y-106176613D01*
X143623387Y-106260489D01*
X143726114Y-106319799D01*
X143840691Y-106350500D01*
X143840694Y-106350500D01*
X143959306Y-106350500D01*
X143959309Y-106350500D01*
X144073886Y-106319799D01*
X144176613Y-106260489D01*
X144260489Y-106176613D01*
X144319799Y-106073886D01*
X144350500Y-105959309D01*
X144350500Y-105840691D01*
X144319799Y-105726114D01*
X144260489Y-105623387D01*
X144176613Y-105539511D01*
X144073886Y-105480201D01*
X143959309Y-105449500D01*
X143959306Y-105449500D01*
X143925833Y-105449500D01*
X143858794Y-105429815D01*
X143838152Y-105413181D01*
X142284512Y-103859541D01*
X142284504Y-103859535D01*
X142215995Y-103819982D01*
X142215990Y-103819979D01*
X142190513Y-103813152D01*
X142139562Y-103799500D01*
X142139560Y-103799500D01*
X141575833Y-103799500D01*
X141508794Y-103779815D01*
X141488152Y-103763181D01*
X138331512Y-100606541D01*
X138331504Y-100606535D01*
X138290653Y-100582950D01*
X138290651Y-100582950D01*
X138262989Y-100566979D01*
X138186562Y-100546500D01*
X138186560Y-100546500D01*
X134759561Y-100546500D01*
X134692522Y-100526815D01*
X134671880Y-100510181D01*
X134212152Y-100050453D01*
X134178667Y-99989130D01*
X134183651Y-99919438D01*
X134225523Y-99863505D01*
X134290987Y-99839088D01*
X134299833Y-99838772D01*
X134859750Y-99838772D01*
X134859751Y-99838771D01*
X134874568Y-99835824D01*
X134918229Y-99827140D01*
X134918229Y-99827139D01*
X134918231Y-99827139D01*
X134984552Y-99782824D01*
X135028867Y-99716503D01*
X135028867Y-99716501D01*
X135028868Y-99716501D01*
X135040499Y-99658024D01*
X135040500Y-99658022D01*
X135040500Y-98577409D01*
X135060185Y-98510370D01*
X135112989Y-98464615D01*
X135182147Y-98454671D01*
X135218382Y-98467213D01*
X135218600Y-98466687D01*
X135226109Y-98469797D01*
X135226111Y-98469797D01*
X135226114Y-98469799D01*
X135340691Y-98500500D01*
X135340694Y-98500500D01*
X135459306Y-98500500D01*
X135459309Y-98500500D01*
X135573886Y-98469799D01*
X135676613Y-98410489D01*
X135760489Y-98326613D01*
X135819799Y-98223886D01*
X135850500Y-98109309D01*
X135850500Y-97990691D01*
X135819799Y-97876114D01*
X135760489Y-97773387D01*
X135676613Y-97689511D01*
X135573886Y-97630201D01*
X135459309Y-97599500D01*
X135340691Y-97599500D01*
X135264942Y-97619797D01*
X135226109Y-97630202D01*
X135218600Y-97633313D01*
X135218066Y-97632024D01*
X135158592Y-97646449D01*
X135092567Y-97623593D01*
X135049380Y-97568669D01*
X135040500Y-97522590D01*
X135040500Y-96468521D01*
X135040499Y-96468519D01*
X136179500Y-96468519D01*
X136179500Y-99658024D01*
X136191131Y-99716501D01*
X136191132Y-99716502D01*
X136235447Y-99782824D01*
X136301769Y-99827139D01*
X136301770Y-99827140D01*
X136360247Y-99838771D01*
X136360250Y-99838772D01*
X136360252Y-99838772D01*
X137399750Y-99838772D01*
X137399751Y-99838771D01*
X137414568Y-99835824D01*
X137458229Y-99827140D01*
X137458229Y-99827139D01*
X137458231Y-99827139D01*
X137524552Y-99782824D01*
X137568867Y-99716503D01*
X137568867Y-99716501D01*
X137568868Y-99716501D01*
X137580499Y-99658024D01*
X137580500Y-99658022D01*
X137580500Y-98605779D01*
X137600185Y-98538740D01*
X137652989Y-98492985D01*
X137722147Y-98483041D01*
X137736583Y-98486001D01*
X137790691Y-98500500D01*
X137790694Y-98500500D01*
X137909306Y-98500500D01*
X137909309Y-98500500D01*
X138023886Y-98469799D01*
X138126613Y-98410489D01*
X138210489Y-98326613D01*
X138269799Y-98223886D01*
X138300500Y-98109309D01*
X138300500Y-97990691D01*
X138269799Y-97876114D01*
X138210489Y-97773387D01*
X138126613Y-97689511D01*
X138023886Y-97630201D01*
X137909309Y-97599500D01*
X137790691Y-97599500D01*
X137790689Y-97599500D01*
X137736592Y-97613995D01*
X137666742Y-97612332D01*
X137608880Y-97573168D01*
X137581377Y-97508939D01*
X137580500Y-97494220D01*
X137580500Y-96468521D01*
X137580499Y-96468519D01*
X138719500Y-96468519D01*
X138719500Y-99658024D01*
X138731131Y-99716501D01*
X138731132Y-99716502D01*
X138775447Y-99782824D01*
X138841769Y-99827139D01*
X138841770Y-99827140D01*
X138900247Y-99838771D01*
X138900250Y-99838772D01*
X138900252Y-99838772D01*
X139939750Y-99838772D01*
X139939751Y-99838771D01*
X139954568Y-99835824D01*
X139998229Y-99827140D01*
X139998229Y-99827139D01*
X139998231Y-99827139D01*
X140064552Y-99782824D01*
X140108867Y-99716503D01*
X140108867Y-99716501D01*
X140108868Y-99716501D01*
X140120499Y-99658024D01*
X140120500Y-99658022D01*
X140120500Y-98539702D01*
X140140185Y-98472663D01*
X140192989Y-98426908D01*
X140262147Y-98416964D01*
X140276584Y-98419924D01*
X140390691Y-98450500D01*
X140390694Y-98450500D01*
X140509306Y-98450500D01*
X140509309Y-98450500D01*
X140623886Y-98419799D01*
X140726613Y-98360489D01*
X140810489Y-98276613D01*
X140869799Y-98173886D01*
X140900500Y-98059309D01*
X140900500Y-97940691D01*
X140869799Y-97826114D01*
X140810489Y-97723387D01*
X140726613Y-97639511D01*
X140623886Y-97580201D01*
X140509309Y-97549500D01*
X140390691Y-97549500D01*
X140276593Y-97580072D01*
X140206743Y-97578409D01*
X140148881Y-97539246D01*
X140121377Y-97475017D01*
X140120500Y-97460297D01*
X140120500Y-96468521D01*
X140120499Y-96468519D01*
X141259500Y-96468519D01*
X141259500Y-99658024D01*
X141271131Y-99716501D01*
X141271132Y-99716502D01*
X141315447Y-99782824D01*
X141381769Y-99827139D01*
X141381770Y-99827140D01*
X141440247Y-99838771D01*
X141440250Y-99838772D01*
X141440252Y-99838772D01*
X142479750Y-99838772D01*
X142479751Y-99838771D01*
X142494568Y-99835824D01*
X142538229Y-99827140D01*
X142538229Y-99827139D01*
X142538231Y-99827139D01*
X142604552Y-99782824D01*
X142648867Y-99716503D01*
X142648867Y-99716501D01*
X142648868Y-99716501D01*
X142660499Y-99658024D01*
X142660500Y-99658022D01*
X142660500Y-98536778D01*
X142680185Y-98469739D01*
X142732989Y-98423984D01*
X142802147Y-98414040D01*
X142818072Y-98418409D01*
X142818264Y-98417695D01*
X142826112Y-98419797D01*
X142826114Y-98419799D01*
X142940691Y-98450500D01*
X142940694Y-98450500D01*
X143059306Y-98450500D01*
X143059309Y-98450500D01*
X143173886Y-98419799D01*
X143276613Y-98360489D01*
X143360489Y-98276613D01*
X143419799Y-98173886D01*
X143450500Y-98059309D01*
X143450500Y-97940691D01*
X143419799Y-97826114D01*
X143360489Y-97723387D01*
X143276613Y-97639511D01*
X143173886Y-97580201D01*
X143059309Y-97549500D01*
X142940691Y-97549500D01*
X142826114Y-97580201D01*
X142826112Y-97580202D01*
X142818264Y-97582305D01*
X142817471Y-97579346D01*
X142762437Y-97585242D01*
X142699970Y-97553944D01*
X142664340Y-97493842D01*
X142660500Y-97463221D01*
X142660500Y-96468521D01*
X142660499Y-96468519D01*
X143799500Y-96468519D01*
X143799500Y-99658024D01*
X143811131Y-99716501D01*
X143811132Y-99716502D01*
X143855447Y-99782824D01*
X143921769Y-99827139D01*
X143921770Y-99827140D01*
X143980247Y-99838771D01*
X143980250Y-99838772D01*
X143980252Y-99838772D01*
X145019750Y-99838772D01*
X145019751Y-99838771D01*
X145034568Y-99835824D01*
X145078229Y-99827140D01*
X145078229Y-99827139D01*
X145078231Y-99827139D01*
X145144552Y-99782824D01*
X145188867Y-99716503D01*
X145188867Y-99716501D01*
X145188868Y-99716501D01*
X145200499Y-99658024D01*
X145200500Y-99658022D01*
X145200500Y-98487772D01*
X145203050Y-98479086D01*
X145201762Y-98470125D01*
X145212740Y-98446084D01*
X145220185Y-98420733D01*
X145227025Y-98414805D01*
X145230787Y-98406569D01*
X145253021Y-98392279D01*
X145272989Y-98374978D01*
X145283503Y-98372690D01*
X145289565Y-98368795D01*
X145324500Y-98363772D01*
X145437297Y-98363772D01*
X145469391Y-98367997D01*
X145476112Y-98369797D01*
X145476114Y-98369799D01*
X145590691Y-98400500D01*
X145590694Y-98400500D01*
X145709306Y-98400500D01*
X145709309Y-98400500D01*
X145823886Y-98369799D01*
X145926613Y-98310489D01*
X146010489Y-98226613D01*
X146069799Y-98123886D01*
X146100500Y-98009309D01*
X146100500Y-97890691D01*
X146069799Y-97776114D01*
X146010489Y-97673387D01*
X145926613Y-97589511D01*
X145823886Y-97530201D01*
X145709309Y-97499500D01*
X145590691Y-97499500D01*
X145476114Y-97530201D01*
X145386499Y-97581940D01*
X145318601Y-97598413D01*
X145252574Y-97575561D01*
X145209383Y-97520640D01*
X145200500Y-97474553D01*
X145200500Y-96468521D01*
X145200499Y-96468519D01*
X146339500Y-96468519D01*
X146339500Y-99658024D01*
X146351131Y-99716501D01*
X146351132Y-99716502D01*
X146395447Y-99782824D01*
X146461769Y-99827139D01*
X146461770Y-99827140D01*
X146520247Y-99838771D01*
X146520250Y-99838772D01*
X146520252Y-99838772D01*
X147559750Y-99838772D01*
X147559751Y-99838771D01*
X147574568Y-99835824D01*
X147618229Y-99827140D01*
X147618229Y-99827139D01*
X147618231Y-99827139D01*
X147684552Y-99782824D01*
X147728867Y-99716503D01*
X147728867Y-99716501D01*
X147728868Y-99716501D01*
X147740499Y-99658024D01*
X147740500Y-99658022D01*
X147740500Y-98519673D01*
X147760185Y-98452634D01*
X147812989Y-98406879D01*
X147882147Y-98396935D01*
X147926497Y-98412284D01*
X148026114Y-98469799D01*
X148140691Y-98500500D01*
X148140694Y-98500500D01*
X148259306Y-98500500D01*
X148259309Y-98500500D01*
X148373886Y-98469799D01*
X148476613Y-98410489D01*
X148560489Y-98326613D01*
X148619799Y-98223886D01*
X148650500Y-98109309D01*
X148650500Y-97990691D01*
X148619799Y-97876114D01*
X148560489Y-97773387D01*
X148476613Y-97689511D01*
X148373886Y-97630201D01*
X148259309Y-97599500D01*
X148140691Y-97599500D01*
X148043431Y-97625561D01*
X148026110Y-97630202D01*
X147926500Y-97687713D01*
X147858600Y-97704186D01*
X147792573Y-97681334D01*
X147749383Y-97626412D01*
X147740500Y-97580326D01*
X147740500Y-96468521D01*
X147740499Y-96468519D01*
X147728868Y-96410042D01*
X147728867Y-96410041D01*
X147684552Y-96343719D01*
X147618230Y-96299404D01*
X147618229Y-96299403D01*
X147559752Y-96287772D01*
X147559748Y-96287772D01*
X146520252Y-96287772D01*
X146520247Y-96287772D01*
X146461770Y-96299403D01*
X146461769Y-96299404D01*
X146395447Y-96343719D01*
X146351132Y-96410041D01*
X146351131Y-96410042D01*
X146339500Y-96468519D01*
X145200499Y-96468519D01*
X145188868Y-96410042D01*
X145188867Y-96410041D01*
X145144552Y-96343719D01*
X145078230Y-96299404D01*
X145078229Y-96299403D01*
X145019752Y-96287772D01*
X145019748Y-96287772D01*
X143980252Y-96287772D01*
X143980247Y-96287772D01*
X143921770Y-96299403D01*
X143921769Y-96299404D01*
X143855447Y-96343719D01*
X143811132Y-96410041D01*
X143811131Y-96410042D01*
X143799500Y-96468519D01*
X142660499Y-96468519D01*
X142648868Y-96410042D01*
X142648867Y-96410041D01*
X142604552Y-96343719D01*
X142538230Y-96299404D01*
X142538229Y-96299403D01*
X142479752Y-96287772D01*
X142479748Y-96287772D01*
X141440252Y-96287772D01*
X141440247Y-96287772D01*
X141381770Y-96299403D01*
X141381769Y-96299404D01*
X141315447Y-96343719D01*
X141271132Y-96410041D01*
X141271131Y-96410042D01*
X141259500Y-96468519D01*
X140120499Y-96468519D01*
X140108868Y-96410042D01*
X140108867Y-96410041D01*
X140064552Y-96343719D01*
X139998230Y-96299404D01*
X139998229Y-96299403D01*
X139939752Y-96287772D01*
X139939748Y-96287772D01*
X138900252Y-96287772D01*
X138900247Y-96287772D01*
X138841770Y-96299403D01*
X138841769Y-96299404D01*
X138775447Y-96343719D01*
X138731132Y-96410041D01*
X138731131Y-96410042D01*
X138719500Y-96468519D01*
X137580499Y-96468519D01*
X137568868Y-96410042D01*
X137568867Y-96410041D01*
X137524552Y-96343719D01*
X137458230Y-96299404D01*
X137458229Y-96299403D01*
X137399752Y-96287772D01*
X137399748Y-96287772D01*
X136360252Y-96287772D01*
X136360247Y-96287772D01*
X136301770Y-96299403D01*
X136301769Y-96299404D01*
X136235447Y-96343719D01*
X136191132Y-96410041D01*
X136191131Y-96410042D01*
X136179500Y-96468519D01*
X135040499Y-96468519D01*
X135028868Y-96410042D01*
X135028867Y-96410041D01*
X134984552Y-96343719D01*
X134918230Y-96299404D01*
X134918229Y-96299403D01*
X134859752Y-96287772D01*
X134859748Y-96287772D01*
X133820252Y-96287772D01*
X133820247Y-96287772D01*
X133761770Y-96299403D01*
X133761769Y-96299404D01*
X133695447Y-96343719D01*
X133651132Y-96410041D01*
X133651131Y-96410042D01*
X133639500Y-96468519D01*
X133639500Y-99178439D01*
X133619815Y-99245478D01*
X133567011Y-99291233D01*
X133497853Y-99301177D01*
X133434297Y-99272152D01*
X133427819Y-99266120D01*
X132866287Y-98704588D01*
X132832802Y-98643265D01*
X132837786Y-98573573D01*
X132879658Y-98517640D01*
X132921870Y-98497134D01*
X133023886Y-98469799D01*
X133126613Y-98410489D01*
X133210489Y-98326613D01*
X133269799Y-98223886D01*
X133300500Y-98109309D01*
X133300500Y-97990691D01*
X133269799Y-97876114D01*
X133210489Y-97773387D01*
X133126613Y-97689511D01*
X133023886Y-97630201D01*
X132909309Y-97599500D01*
X132790691Y-97599500D01*
X132714935Y-97619799D01*
X132676106Y-97630203D01*
X132671945Y-97631927D01*
X132602476Y-97639391D01*
X132539998Y-97608113D01*
X132504350Y-97548021D01*
X132500500Y-97517363D01*
X132500500Y-96468521D01*
X132500499Y-96468519D01*
X132488868Y-96410042D01*
X132488867Y-96410041D01*
X132444552Y-96343719D01*
X132378230Y-96299404D01*
X132378229Y-96299403D01*
X132319752Y-96287772D01*
X132319748Y-96287772D01*
X131280252Y-96287772D01*
X131280247Y-96287772D01*
X131221770Y-96299403D01*
X131221769Y-96299404D01*
X131155447Y-96343719D01*
X131111132Y-96410041D01*
X131111131Y-96410042D01*
X131099500Y-96468519D01*
X131099500Y-99178439D01*
X131079815Y-99245478D01*
X131027011Y-99291233D01*
X130957853Y-99301177D01*
X130894297Y-99272152D01*
X130887819Y-99266120D01*
X130363607Y-98741908D01*
X130330122Y-98680585D01*
X130335106Y-98610893D01*
X130376978Y-98554960D01*
X130419190Y-98534454D01*
X130473886Y-98519799D01*
X130576613Y-98460489D01*
X130660489Y-98376613D01*
X130719799Y-98273886D01*
X130750500Y-98159309D01*
X130750500Y-98040691D01*
X130719799Y-97926114D01*
X130660489Y-97823387D01*
X130576613Y-97739511D01*
X130473886Y-97680201D01*
X130359309Y-97649500D01*
X130240691Y-97649500D01*
X130126114Y-97680201D01*
X130126112Y-97680202D01*
X130118264Y-97682305D01*
X130117471Y-97679346D01*
X130062437Y-97685242D01*
X129999970Y-97653944D01*
X129964340Y-97593842D01*
X129960500Y-97563221D01*
X129960500Y-96468521D01*
X129960499Y-96468519D01*
X129948868Y-96410042D01*
X129948867Y-96410041D01*
X129904552Y-96343719D01*
X129838230Y-96299404D01*
X129838229Y-96299403D01*
X129779752Y-96287772D01*
X129779748Y-96287772D01*
X128740252Y-96287772D01*
X128740247Y-96287772D01*
X128681770Y-96299403D01*
X128681769Y-96299404D01*
X128615447Y-96343719D01*
X128564348Y-96420195D01*
X128562297Y-96418824D01*
X128529140Y-96459962D01*
X128462844Y-96482019D01*
X128395146Y-96464733D01*
X128370750Y-96445779D01*
X127364512Y-95439541D01*
X127364504Y-95439535D01*
X127337397Y-95423885D01*
X127337397Y-95423884D01*
X127337394Y-95423884D01*
X127295994Y-95399981D01*
X127295991Y-95399979D01*
X127257775Y-95389739D01*
X127219562Y-95379500D01*
X111362834Y-95379500D01*
X111283710Y-95379500D01*
X111207282Y-95399978D01*
X111138761Y-95439540D01*
X111138758Y-95439542D01*
X109852181Y-96726120D01*
X109790858Y-96759605D01*
X109721166Y-96754621D01*
X109665233Y-96712749D01*
X109640816Y-96647285D01*
X109640500Y-96638439D01*
X109640500Y-96468521D01*
X109640499Y-96468519D01*
X109628868Y-96410042D01*
X109628867Y-96410041D01*
X109584552Y-96343719D01*
X109518230Y-96299404D01*
X109518229Y-96299403D01*
X109459752Y-96287772D01*
X109459748Y-96287772D01*
X108420252Y-96287772D01*
X108420247Y-96287772D01*
X108361770Y-96299403D01*
X108361769Y-96299404D01*
X108295447Y-96343719D01*
X108251132Y-96410041D01*
X108251131Y-96410042D01*
X108239500Y-96468519D01*
X79000000Y-96468519D01*
X79000000Y-93874038D01*
X101399500Y-93874038D01*
X101399500Y-94125961D01*
X101438910Y-94374785D01*
X101516760Y-94614383D01*
X101595413Y-94768747D01*
X101626809Y-94830365D01*
X101631132Y-94838848D01*
X101779201Y-95042649D01*
X101779205Y-95042654D01*
X101957345Y-95220794D01*
X101957350Y-95220798D01*
X102079172Y-95309306D01*
X102161155Y-95368870D01*
X102299843Y-95439535D01*
X102385616Y-95483239D01*
X102385618Y-95483239D01*
X102385621Y-95483241D01*
X102625215Y-95561090D01*
X102874038Y-95600500D01*
X102874039Y-95600500D01*
X103125961Y-95600500D01*
X103125962Y-95600500D01*
X103374785Y-95561090D01*
X103614379Y-95483241D01*
X103838845Y-95368870D01*
X104042656Y-95220793D01*
X104220793Y-95042656D01*
X104368870Y-94838845D01*
X104483241Y-94614379D01*
X104561090Y-94374785D01*
X104600500Y-94125962D01*
X104600500Y-93874038D01*
X104561090Y-93625215D01*
X104483241Y-93385621D01*
X104368870Y-93161155D01*
X104282776Y-93042656D01*
X104220798Y-92957350D01*
X104220794Y-92957345D01*
X104042654Y-92779205D01*
X104042649Y-92779201D01*
X103838848Y-92631132D01*
X103838847Y-92631131D01*
X103838845Y-92631130D01*
X103768747Y-92595413D01*
X103614383Y-92516760D01*
X103374785Y-92438910D01*
X103125962Y-92399500D01*
X102874038Y-92399500D01*
X102749626Y-92419205D01*
X102625214Y-92438910D01*
X102385616Y-92516760D01*
X102161151Y-92631132D01*
X101957350Y-92779201D01*
X101957345Y-92779205D01*
X101779205Y-92957345D01*
X101779201Y-92957350D01*
X101631132Y-93161151D01*
X101516760Y-93385616D01*
X101438910Y-93625214D01*
X101399500Y-93874038D01*
X79000000Y-93874038D01*
X79000000Y-91390427D01*
X107940000Y-91390427D01*
X107940000Y-92763272D01*
X108300000Y-92763272D01*
X108300000Y-93263272D01*
X107940000Y-93263272D01*
X107940000Y-94636116D01*
X107946401Y-94695644D01*
X107946403Y-94695651D01*
X107996645Y-94830358D01*
X107996649Y-94830365D01*
X108082809Y-94945459D01*
X108082812Y-94945462D01*
X108197906Y-95031622D01*
X108197913Y-95031626D01*
X108332620Y-95081868D01*
X108332627Y-95081870D01*
X108392155Y-95088271D01*
X108392172Y-95088272D01*
X108690000Y-95088272D01*
X108690000Y-94600000D01*
X109190000Y-94600000D01*
X109190000Y-95088272D01*
X109487828Y-95088272D01*
X109487844Y-95088271D01*
X109547372Y-95081870D01*
X109547379Y-95081868D01*
X109682086Y-95031626D01*
X109682093Y-95031622D01*
X109797187Y-94945462D01*
X109797190Y-94945459D01*
X109883350Y-94830365D01*
X109883354Y-94830358D01*
X109933596Y-94695651D01*
X109933598Y-94695644D01*
X109939999Y-94636116D01*
X109940000Y-94636099D01*
X109940000Y-94600000D01*
X110350000Y-94600000D01*
X110350000Y-91450000D01*
X109940000Y-91450000D01*
X109940000Y-91418519D01*
X110779500Y-91418519D01*
X110779500Y-94608024D01*
X110791131Y-94666501D01*
X110791132Y-94666502D01*
X110835447Y-94732824D01*
X110901769Y-94777139D01*
X110901770Y-94777140D01*
X110960247Y-94788771D01*
X110960250Y-94788772D01*
X110960252Y-94788772D01*
X111019655Y-94788772D01*
X111054593Y-94793796D01*
X111064705Y-94796765D01*
X111066102Y-94797175D01*
X111124000Y-94805500D01*
X111124004Y-94805500D01*
X114375991Y-94805500D01*
X114376000Y-94805500D01*
X114419684Y-94800803D01*
X114461962Y-94791605D01*
X114488318Y-94788772D01*
X114539750Y-94788772D01*
X114539751Y-94788771D01*
X114554568Y-94785824D01*
X114598229Y-94777140D01*
X114598229Y-94777139D01*
X114598231Y-94777139D01*
X114664552Y-94732824D01*
X114708867Y-94666503D01*
X114708867Y-94666501D01*
X114708868Y-94666501D01*
X114720499Y-94608024D01*
X114720500Y-94608022D01*
X114720500Y-91418521D01*
X114720499Y-91418519D01*
X114719066Y-91411310D01*
X114719066Y-91411309D01*
X114708867Y-91360042D01*
X114708867Y-91360041D01*
X114668749Y-91300000D01*
X115250000Y-91300000D01*
X115250000Y-94450000D01*
X115560000Y-94450000D01*
X115560000Y-94636116D01*
X115566401Y-94695644D01*
X115566403Y-94695651D01*
X115616645Y-94830358D01*
X115616649Y-94830365D01*
X115702809Y-94945459D01*
X115702812Y-94945462D01*
X115817906Y-95031622D01*
X115817913Y-95031626D01*
X115952620Y-95081868D01*
X115952627Y-95081870D01*
X116012155Y-95088271D01*
X116012172Y-95088272D01*
X116310000Y-95088272D01*
X116310000Y-94450000D01*
X116810000Y-94450000D01*
X116810000Y-95088272D01*
X117107828Y-95088272D01*
X117107844Y-95088271D01*
X117167372Y-95081870D01*
X117167379Y-95081868D01*
X117302086Y-95031626D01*
X117302093Y-95031622D01*
X117417187Y-94945462D01*
X117417190Y-94945459D01*
X117503350Y-94830365D01*
X117503354Y-94830358D01*
X117553596Y-94695651D01*
X117553598Y-94695644D01*
X117559999Y-94636116D01*
X117560000Y-94636099D01*
X117560000Y-93263272D01*
X117300000Y-93263272D01*
X117300000Y-92763272D01*
X117560000Y-92763272D01*
X117560000Y-91579491D01*
X118346630Y-91579491D01*
X118346860Y-91593346D01*
X118346860Y-91593350D01*
X118392496Y-94331484D01*
X118392497Y-94331493D01*
X118397537Y-94373428D01*
X118397692Y-94374326D01*
X118397809Y-94375691D01*
X118397917Y-94376590D01*
X118397886Y-94376593D01*
X118399500Y-94395423D01*
X118399500Y-94608024D01*
X118411131Y-94666501D01*
X118411132Y-94666502D01*
X118455447Y-94732824D01*
X118521769Y-94777139D01*
X118521770Y-94777140D01*
X118580247Y-94788771D01*
X118580250Y-94788772D01*
X118580252Y-94788772D01*
X119619750Y-94788772D01*
X119619751Y-94788771D01*
X119634568Y-94785824D01*
X119678229Y-94777140D01*
X119678229Y-94777139D01*
X119678231Y-94777139D01*
X119744552Y-94732824D01*
X119759396Y-94710609D01*
X119813008Y-94665804D01*
X119862498Y-94655500D01*
X120877502Y-94655500D01*
X120944541Y-94675185D01*
X120980604Y-94710609D01*
X120995447Y-94732824D01*
X121061769Y-94777139D01*
X121061770Y-94777140D01*
X121120247Y-94788771D01*
X121120250Y-94788772D01*
X121120252Y-94788772D01*
X122159750Y-94788772D01*
X122159751Y-94788771D01*
X122174568Y-94785824D01*
X122218229Y-94777140D01*
X122218229Y-94777139D01*
X122218231Y-94777139D01*
X122284552Y-94732824D01*
X122299396Y-94710609D01*
X122353008Y-94665804D01*
X122402498Y-94655500D01*
X123417502Y-94655500D01*
X123484541Y-94675185D01*
X123520604Y-94710609D01*
X123535447Y-94732824D01*
X123601769Y-94777139D01*
X123601770Y-94777140D01*
X123660247Y-94788771D01*
X123660250Y-94788772D01*
X123660252Y-94788772D01*
X124699750Y-94788772D01*
X124699751Y-94788771D01*
X124714568Y-94785824D01*
X124758229Y-94777140D01*
X124758229Y-94777139D01*
X124758231Y-94777139D01*
X124824552Y-94732824D01*
X124839396Y-94710609D01*
X124893008Y-94665804D01*
X124942498Y-94655500D01*
X125957502Y-94655500D01*
X126024541Y-94675185D01*
X126060604Y-94710609D01*
X126075447Y-94732824D01*
X126141769Y-94777139D01*
X126141770Y-94777140D01*
X126200247Y-94788771D01*
X126200250Y-94788772D01*
X126200252Y-94788772D01*
X127239750Y-94788772D01*
X127239751Y-94788771D01*
X127254568Y-94785824D01*
X127298229Y-94777140D01*
X127298229Y-94777139D01*
X127298231Y-94777139D01*
X127364552Y-94732824D01*
X127408867Y-94666503D01*
X127416744Y-94626900D01*
X127449127Y-94564992D01*
X127458733Y-94556037D01*
X127463199Y-94552297D01*
X127481447Y-94535005D01*
X127527417Y-94455942D01*
X127548216Y-94389239D01*
X127557503Y-94331491D01*
X127603370Y-91579491D01*
X127599059Y-91534056D01*
X127599058Y-91534051D01*
X127599058Y-91534048D01*
X127587875Y-91480504D01*
X127587870Y-91480479D01*
X127585026Y-91468627D01*
X127543355Y-91390427D01*
X128260000Y-91390427D01*
X128260000Y-92763272D01*
X128700000Y-92763272D01*
X128700000Y-93263272D01*
X128260000Y-93263272D01*
X128260000Y-94636116D01*
X128266401Y-94695644D01*
X128266403Y-94695651D01*
X128316645Y-94830358D01*
X128316649Y-94830365D01*
X128402809Y-94945459D01*
X128402812Y-94945462D01*
X128517906Y-95031622D01*
X128517913Y-95031626D01*
X128652620Y-95081868D01*
X128652627Y-95081870D01*
X128712155Y-95088271D01*
X128712172Y-95088272D01*
X129010000Y-95088272D01*
X129010000Y-94600000D01*
X129510000Y-94600000D01*
X129510000Y-95088272D01*
X129807828Y-95088272D01*
X129807844Y-95088271D01*
X129867372Y-95081870D01*
X129867379Y-95081868D01*
X130002086Y-95031626D01*
X130002093Y-95031622D01*
X130117187Y-94945462D01*
X130117190Y-94945459D01*
X130203350Y-94830365D01*
X130203354Y-94830358D01*
X130253596Y-94695651D01*
X130253598Y-94695644D01*
X130259999Y-94636116D01*
X130260000Y-94636099D01*
X130260000Y-94600000D01*
X130800000Y-94600000D01*
X130800000Y-94636116D01*
X130806401Y-94695644D01*
X130806403Y-94695651D01*
X130856645Y-94830358D01*
X130856649Y-94830365D01*
X130942809Y-94945459D01*
X130942812Y-94945462D01*
X131057906Y-95031622D01*
X131057913Y-95031626D01*
X131192620Y-95081868D01*
X131192627Y-95081870D01*
X131252155Y-95088271D01*
X131252172Y-95088272D01*
X131550000Y-95088272D01*
X131550000Y-94600000D01*
X132050000Y-94600000D01*
X132050000Y-95088272D01*
X132347828Y-95088272D01*
X132347844Y-95088271D01*
X132407372Y-95081870D01*
X132407379Y-95081868D01*
X132542086Y-95031626D01*
X132542093Y-95031622D01*
X132657187Y-94945462D01*
X132657190Y-94945459D01*
X132743350Y-94830365D01*
X132743354Y-94830358D01*
X132793596Y-94695651D01*
X132793598Y-94695644D01*
X132799999Y-94636116D01*
X132800000Y-94636099D01*
X132800000Y-94600000D01*
X133340000Y-94600000D01*
X133340000Y-94636116D01*
X133346401Y-94695644D01*
X133346403Y-94695651D01*
X133396645Y-94830358D01*
X133396649Y-94830365D01*
X133482809Y-94945459D01*
X133482812Y-94945462D01*
X133597906Y-95031622D01*
X133597913Y-95031626D01*
X133732620Y-95081868D01*
X133732627Y-95081870D01*
X133792155Y-95088271D01*
X133792172Y-95088272D01*
X134090000Y-95088272D01*
X134090000Y-94600000D01*
X134590000Y-94600000D01*
X134590000Y-95088272D01*
X134887828Y-95088272D01*
X134887844Y-95088271D01*
X134947372Y-95081870D01*
X134947379Y-95081868D01*
X135082086Y-95031626D01*
X135082093Y-95031622D01*
X135197187Y-94945462D01*
X135197190Y-94945459D01*
X135283350Y-94830365D01*
X135283354Y-94830358D01*
X135333596Y-94695651D01*
X135333598Y-94695644D01*
X135339999Y-94636116D01*
X135340000Y-94636099D01*
X135340000Y-94600000D01*
X135880000Y-94600000D01*
X135880000Y-94636116D01*
X135886401Y-94695644D01*
X135886403Y-94695651D01*
X135936645Y-94830358D01*
X135936649Y-94830365D01*
X136022809Y-94945459D01*
X136022812Y-94945462D01*
X136137906Y-95031622D01*
X136137913Y-95031626D01*
X136272620Y-95081868D01*
X136272627Y-95081870D01*
X136332155Y-95088271D01*
X136332172Y-95088272D01*
X136630000Y-95088272D01*
X136630000Y-94600000D01*
X137130000Y-94600000D01*
X137130000Y-95088272D01*
X137427828Y-95088272D01*
X137427844Y-95088271D01*
X137487372Y-95081870D01*
X137487379Y-95081868D01*
X137622086Y-95031626D01*
X137622093Y-95031622D01*
X137737187Y-94945462D01*
X137737190Y-94945459D01*
X137823350Y-94830365D01*
X137823354Y-94830358D01*
X137873596Y-94695651D01*
X137873598Y-94695644D01*
X137879999Y-94636116D01*
X137880000Y-94636099D01*
X137880000Y-93263272D01*
X137400000Y-93263272D01*
X137400000Y-92763272D01*
X137880000Y-92763272D01*
X137880000Y-91418519D01*
X138719500Y-91418519D01*
X138719500Y-94608024D01*
X138731131Y-94666501D01*
X138731132Y-94666502D01*
X138775447Y-94732824D01*
X138841769Y-94777139D01*
X138841770Y-94777140D01*
X138900247Y-94788771D01*
X138900250Y-94788772D01*
X138900252Y-94788772D01*
X139939750Y-94788772D01*
X139939751Y-94788771D01*
X139954568Y-94785824D01*
X139998229Y-94777140D01*
X139998229Y-94777139D01*
X139998231Y-94777139D01*
X140064552Y-94732824D01*
X140108867Y-94666503D01*
X140108867Y-94666501D01*
X140108868Y-94666501D01*
X140120499Y-94608024D01*
X140120500Y-94608022D01*
X140120500Y-91418521D01*
X140120499Y-91418519D01*
X141259500Y-91418519D01*
X141259500Y-94608024D01*
X141271131Y-94666501D01*
X141271132Y-94666502D01*
X141315447Y-94732824D01*
X141381769Y-94777139D01*
X141381770Y-94777140D01*
X141440247Y-94788771D01*
X141440250Y-94788772D01*
X141440252Y-94788772D01*
X142479750Y-94788772D01*
X142479751Y-94788771D01*
X142494568Y-94785824D01*
X142538229Y-94777140D01*
X142538229Y-94777139D01*
X142538231Y-94777139D01*
X142604552Y-94732824D01*
X142648867Y-94666503D01*
X142648867Y-94666501D01*
X142648868Y-94666501D01*
X142660499Y-94608024D01*
X142660500Y-94608022D01*
X142660500Y-92990691D01*
X142949500Y-92990691D01*
X142949500Y-93109309D01*
X142980201Y-93223886D01*
X143039511Y-93326613D01*
X143123387Y-93410489D01*
X143226114Y-93469799D01*
X143340691Y-93500500D01*
X143340694Y-93500500D01*
X143459306Y-93500500D01*
X143459309Y-93500500D01*
X143573886Y-93469799D01*
X143613501Y-93446927D01*
X143681397Y-93430454D01*
X143747425Y-93453305D01*
X143790617Y-93508225D01*
X143799500Y-93554314D01*
X143799500Y-94608024D01*
X143811131Y-94666501D01*
X143811132Y-94666502D01*
X143855447Y-94732824D01*
X143921769Y-94777139D01*
X143921770Y-94777140D01*
X143980247Y-94788771D01*
X143980250Y-94788772D01*
X143980252Y-94788772D01*
X145019750Y-94788772D01*
X145019751Y-94788771D01*
X145034568Y-94785824D01*
X145078229Y-94777140D01*
X145078229Y-94777139D01*
X145078231Y-94777139D01*
X145144552Y-94732824D01*
X145188867Y-94666503D01*
X145188867Y-94666501D01*
X145188868Y-94666501D01*
X145200499Y-94608024D01*
X145200500Y-94608022D01*
X145200500Y-91418521D01*
X145200499Y-91418519D01*
X145199066Y-91411310D01*
X145199066Y-91411309D01*
X145194912Y-91390427D01*
X146040000Y-91390427D01*
X146040000Y-92763272D01*
X146350000Y-92763272D01*
X146350000Y-93263272D01*
X146040000Y-93263272D01*
X146040000Y-94636116D01*
X146046401Y-94695644D01*
X146046403Y-94695651D01*
X146096645Y-94830358D01*
X146096649Y-94830365D01*
X146182809Y-94945459D01*
X146182812Y-94945462D01*
X146297906Y-95031622D01*
X146297913Y-95031626D01*
X146432620Y-95081868D01*
X146432627Y-95081870D01*
X146492155Y-95088271D01*
X146492172Y-95088272D01*
X146790000Y-95088272D01*
X146790000Y-94600000D01*
X147290000Y-94600000D01*
X147290000Y-95088272D01*
X147587828Y-95088272D01*
X147587844Y-95088271D01*
X147647372Y-95081870D01*
X147647379Y-95081868D01*
X147782086Y-95031626D01*
X147782093Y-95031622D01*
X147897187Y-94945462D01*
X147897190Y-94945459D01*
X147983350Y-94830365D01*
X147983354Y-94830358D01*
X148033596Y-94695651D01*
X148033598Y-94695644D01*
X148039999Y-94636116D01*
X148040000Y-94636099D01*
X148040000Y-94600000D01*
X148400000Y-94600000D01*
X148400000Y-93874038D01*
X151399500Y-93874038D01*
X151399500Y-94125961D01*
X151438910Y-94374785D01*
X151516760Y-94614383D01*
X151595413Y-94768747D01*
X151626809Y-94830365D01*
X151631132Y-94838848D01*
X151779201Y-95042649D01*
X151779205Y-95042654D01*
X151957345Y-95220794D01*
X151957350Y-95220798D01*
X152079172Y-95309306D01*
X152161155Y-95368870D01*
X152299843Y-95439535D01*
X152385616Y-95483239D01*
X152385618Y-95483239D01*
X152385621Y-95483241D01*
X152625215Y-95561090D01*
X152874038Y-95600500D01*
X152874039Y-95600500D01*
X153125961Y-95600500D01*
X153125962Y-95600500D01*
X153374785Y-95561090D01*
X153614379Y-95483241D01*
X153838845Y-95368870D01*
X154042656Y-95220793D01*
X154220793Y-95042656D01*
X154368870Y-94838845D01*
X154483241Y-94614379D01*
X154561090Y-94374785D01*
X154600500Y-94125962D01*
X154600500Y-93874038D01*
X154561090Y-93625215D01*
X154483241Y-93385621D01*
X154483239Y-93385618D01*
X154483239Y-93385616D01*
X154441747Y-93304184D01*
X154368870Y-93161155D01*
X154282776Y-93042656D01*
X154220798Y-92957350D01*
X154220794Y-92957345D01*
X154042654Y-92779205D01*
X154042649Y-92779201D01*
X153838848Y-92631132D01*
X153838847Y-92631131D01*
X153838845Y-92631130D01*
X153768747Y-92595413D01*
X153614383Y-92516760D01*
X153374785Y-92438910D01*
X153125962Y-92399500D01*
X152874038Y-92399500D01*
X152749626Y-92419205D01*
X152625214Y-92438910D01*
X152385616Y-92516760D01*
X152161151Y-92631132D01*
X151957350Y-92779201D01*
X151957345Y-92779205D01*
X151779205Y-92957345D01*
X151779201Y-92957350D01*
X151631132Y-93161151D01*
X151516760Y-93385616D01*
X151438910Y-93625214D01*
X151399500Y-93874038D01*
X148400000Y-93874038D01*
X148400000Y-91874038D01*
X172399500Y-91874038D01*
X172399500Y-92125961D01*
X172438910Y-92374785D01*
X172516760Y-92614383D01*
X172631132Y-92838848D01*
X172779201Y-93042649D01*
X172779205Y-93042654D01*
X172957345Y-93220794D01*
X172957350Y-93220798D01*
X173015811Y-93263272D01*
X173161155Y-93368870D01*
X173282021Y-93430454D01*
X173385616Y-93483239D01*
X173385618Y-93483239D01*
X173385621Y-93483241D01*
X173625215Y-93561090D01*
X173874038Y-93600500D01*
X173874039Y-93600500D01*
X174125961Y-93600500D01*
X174125962Y-93600500D01*
X174374785Y-93561090D01*
X174614379Y-93483241D01*
X174838845Y-93368870D01*
X175042656Y-93220793D01*
X175220793Y-93042656D01*
X175368870Y-92838845D01*
X175483241Y-92614379D01*
X175561090Y-92374785D01*
X175600500Y-92125962D01*
X175600500Y-91874038D01*
X175561090Y-91625215D01*
X175483241Y-91385621D01*
X175483239Y-91385618D01*
X175483239Y-91385616D01*
X175436415Y-91293719D01*
X175368870Y-91161155D01*
X175310693Y-91081081D01*
X175220798Y-90957350D01*
X175220794Y-90957345D01*
X175042654Y-90779205D01*
X175042649Y-90779201D01*
X174838848Y-90631132D01*
X174838847Y-90631131D01*
X174838845Y-90631130D01*
X174768747Y-90595413D01*
X174614383Y-90516760D01*
X174374785Y-90438910D01*
X174125962Y-90399500D01*
X173874038Y-90399500D01*
X173749626Y-90419205D01*
X173625214Y-90438910D01*
X173385616Y-90516760D01*
X173161151Y-90631132D01*
X172957350Y-90779201D01*
X172957345Y-90779205D01*
X172779205Y-90957345D01*
X172779201Y-90957350D01*
X172631132Y-91161151D01*
X172516760Y-91385616D01*
X172438910Y-91625214D01*
X172399500Y-91874038D01*
X148400000Y-91874038D01*
X148400000Y-91450000D01*
X148040000Y-91450000D01*
X148040000Y-91390444D01*
X148039999Y-91390427D01*
X148033598Y-91330899D01*
X148033596Y-91330892D01*
X148022074Y-91300000D01*
X168700000Y-91300000D01*
X170700000Y-91300000D01*
X170700000Y-89300000D01*
X168700000Y-89300000D01*
X168700000Y-91300000D01*
X148022074Y-91300000D01*
X147983354Y-91196185D01*
X147983350Y-91196178D01*
X147897190Y-91081084D01*
X147897187Y-91081081D01*
X147782093Y-90994921D01*
X147782086Y-90994917D01*
X147647379Y-90944675D01*
X147647372Y-90944673D01*
X147587844Y-90938272D01*
X147290000Y-90938272D01*
X147290000Y-91450000D01*
X146790000Y-91450000D01*
X146790000Y-90938272D01*
X146492155Y-90938272D01*
X146432627Y-90944673D01*
X146432620Y-90944675D01*
X146297913Y-90994917D01*
X146297906Y-90994921D01*
X146182812Y-91081081D01*
X146182809Y-91081084D01*
X146096649Y-91196178D01*
X146096645Y-91196185D01*
X146046403Y-91330892D01*
X146046401Y-91330899D01*
X146040000Y-91390427D01*
X145194912Y-91390427D01*
X145188867Y-91360042D01*
X145188867Y-91360041D01*
X145144552Y-91293719D01*
X145078230Y-91249404D01*
X145078229Y-91249403D01*
X145019752Y-91237772D01*
X145019748Y-91237772D01*
X143980252Y-91237772D01*
X143980247Y-91237772D01*
X143921770Y-91249403D01*
X143921769Y-91249404D01*
X143855447Y-91293719D01*
X143811132Y-91360041D01*
X143811131Y-91360042D01*
X143799500Y-91418519D01*
X143799500Y-92538772D01*
X143796949Y-92547457D01*
X143798238Y-92556419D01*
X143787259Y-92580459D01*
X143779815Y-92605811D01*
X143772974Y-92611738D01*
X143769213Y-92619975D01*
X143746978Y-92634264D01*
X143727011Y-92651566D01*
X143716496Y-92653853D01*
X143710435Y-92657749D01*
X143675500Y-92662772D01*
X143663527Y-92662772D01*
X143601527Y-92646159D01*
X143573889Y-92630202D01*
X143573890Y-92630202D01*
X143564494Y-92627684D01*
X143459309Y-92599500D01*
X143340691Y-92599500D01*
X143226114Y-92630201D01*
X143226112Y-92630201D01*
X143226112Y-92630202D01*
X143123387Y-92689511D01*
X143123384Y-92689513D01*
X143039513Y-92773384D01*
X143039511Y-92773387D01*
X142980201Y-92876114D01*
X142949500Y-92990691D01*
X142660500Y-92990691D01*
X142660500Y-91418521D01*
X142660499Y-91418519D01*
X142648868Y-91360042D01*
X142648867Y-91360041D01*
X142604552Y-91293719D01*
X142538230Y-91249404D01*
X142538229Y-91249403D01*
X142479752Y-91237772D01*
X142479748Y-91237772D01*
X141440252Y-91237772D01*
X141440247Y-91237772D01*
X141381770Y-91249403D01*
X141381769Y-91249404D01*
X141315447Y-91293719D01*
X141271132Y-91360041D01*
X141271131Y-91360042D01*
X141259500Y-91418519D01*
X140120499Y-91418519D01*
X140108868Y-91360042D01*
X140108867Y-91360041D01*
X140064552Y-91293719D01*
X139998230Y-91249404D01*
X139998229Y-91249403D01*
X139939752Y-91237772D01*
X139939748Y-91237772D01*
X138900252Y-91237772D01*
X138900247Y-91237772D01*
X138841770Y-91249403D01*
X138841769Y-91249404D01*
X138775447Y-91293719D01*
X138731132Y-91360041D01*
X138731131Y-91360042D01*
X138719500Y-91418519D01*
X137880000Y-91418519D01*
X137880000Y-91390444D01*
X137879999Y-91390427D01*
X137873598Y-91330899D01*
X137873596Y-91330892D01*
X137823354Y-91196185D01*
X137823350Y-91196178D01*
X137737190Y-91081084D01*
X137737187Y-91081081D01*
X137622093Y-90994921D01*
X137622086Y-90994917D01*
X137487379Y-90944675D01*
X137487372Y-90944673D01*
X137427844Y-90938272D01*
X137130000Y-90938272D01*
X137130000Y-91450000D01*
X136630000Y-91450000D01*
X136630000Y-90938272D01*
X136332155Y-90938272D01*
X136272627Y-90944673D01*
X136272620Y-90944675D01*
X136137913Y-90994917D01*
X136137906Y-90994921D01*
X136022812Y-91081081D01*
X136022809Y-91081084D01*
X135936649Y-91196178D01*
X135936645Y-91196185D01*
X135886403Y-91330892D01*
X135886401Y-91330899D01*
X135880000Y-91390427D01*
X135880000Y-91450000D01*
X135340000Y-91450000D01*
X135340000Y-91390444D01*
X135339999Y-91390427D01*
X135333598Y-91330899D01*
X135333596Y-91330892D01*
X135283354Y-91196185D01*
X135283350Y-91196178D01*
X135197190Y-91081084D01*
X135197187Y-91081081D01*
X135082093Y-90994921D01*
X135082086Y-90994917D01*
X134947379Y-90944675D01*
X134947372Y-90944673D01*
X134887844Y-90938272D01*
X134590000Y-90938272D01*
X134590000Y-91450000D01*
X134090000Y-91450000D01*
X134090000Y-90938272D01*
X133792155Y-90938272D01*
X133732627Y-90944673D01*
X133732620Y-90944675D01*
X133597913Y-90994917D01*
X133597906Y-90994921D01*
X133482812Y-91081081D01*
X133482809Y-91081084D01*
X133396649Y-91196178D01*
X133396645Y-91196185D01*
X133346403Y-91330892D01*
X133346401Y-91330899D01*
X133340000Y-91390427D01*
X133340000Y-91450000D01*
X132800000Y-91450000D01*
X132800000Y-91390444D01*
X132799999Y-91390427D01*
X132793598Y-91330899D01*
X132793596Y-91330892D01*
X132743354Y-91196185D01*
X132743350Y-91196178D01*
X132657190Y-91081084D01*
X132657187Y-91081081D01*
X132542093Y-90994921D01*
X132542086Y-90994917D01*
X132407379Y-90944675D01*
X132407372Y-90944673D01*
X132347844Y-90938272D01*
X132050000Y-90938272D01*
X132050000Y-91450000D01*
X131550000Y-91450000D01*
X131550000Y-90938272D01*
X131252155Y-90938272D01*
X131192627Y-90944673D01*
X131192620Y-90944675D01*
X131057913Y-90994917D01*
X131057906Y-90994921D01*
X130942812Y-91081081D01*
X130942809Y-91081084D01*
X130856649Y-91196178D01*
X130856645Y-91196185D01*
X130806403Y-91330892D01*
X130806401Y-91330899D01*
X130800000Y-91390427D01*
X130800000Y-91450000D01*
X130260000Y-91450000D01*
X130260000Y-91390444D01*
X130259999Y-91390427D01*
X130253598Y-91330899D01*
X130253596Y-91330892D01*
X130203354Y-91196185D01*
X130203350Y-91196178D01*
X130117190Y-91081084D01*
X130117187Y-91081081D01*
X130002093Y-90994921D01*
X130002086Y-90994917D01*
X129867379Y-90944675D01*
X129867372Y-90944673D01*
X129807844Y-90938272D01*
X129510000Y-90938272D01*
X129510000Y-91450000D01*
X129010000Y-91450000D01*
X129010000Y-90938272D01*
X128712155Y-90938272D01*
X128652627Y-90944673D01*
X128652620Y-90944675D01*
X128517913Y-90994917D01*
X128517906Y-90994921D01*
X128402812Y-91081081D01*
X128402809Y-91081084D01*
X128316649Y-91196178D01*
X128316645Y-91196185D01*
X128266403Y-91330892D01*
X128266401Y-91330899D01*
X128260000Y-91390427D01*
X127543355Y-91390427D01*
X127542016Y-91387915D01*
X127496261Y-91335111D01*
X127496255Y-91335104D01*
X127478673Y-91317160D01*
X127478672Y-91317159D01*
X127478670Y-91317157D01*
X127478668Y-91317156D01*
X127478666Y-91317154D01*
X127398856Y-91272511D01*
X127398851Y-91272509D01*
X127331813Y-91252824D01*
X127275954Y-91244792D01*
X127269414Y-91243673D01*
X127239748Y-91237772D01*
X126200252Y-91237772D01*
X126200251Y-91237772D01*
X126178408Y-91242117D01*
X126154216Y-91244500D01*
X124745784Y-91244500D01*
X124721592Y-91242117D01*
X124699749Y-91237772D01*
X124699748Y-91237772D01*
X123660252Y-91237772D01*
X123660251Y-91237772D01*
X123638408Y-91242117D01*
X123614216Y-91244500D01*
X122205784Y-91244500D01*
X122181592Y-91242117D01*
X122159749Y-91237772D01*
X122159748Y-91237772D01*
X121120252Y-91237772D01*
X121120251Y-91237772D01*
X121098408Y-91242117D01*
X121074216Y-91244500D01*
X119665784Y-91244500D01*
X119641592Y-91242117D01*
X119619749Y-91237772D01*
X119619748Y-91237772D01*
X118580252Y-91237772D01*
X118580247Y-91237772D01*
X118521770Y-91249403D01*
X118521769Y-91249404D01*
X118455447Y-91293719D01*
X118411132Y-91360041D01*
X118407707Y-91377261D01*
X118406069Y-91381821D01*
X118405389Y-91386887D01*
X118401702Y-91399891D01*
X118372553Y-91454105D01*
X118353988Y-91521463D01*
X118346630Y-91579491D01*
X117560000Y-91579491D01*
X117560000Y-91390444D01*
X117559999Y-91390427D01*
X117553598Y-91330899D01*
X117553596Y-91330892D01*
X117503354Y-91196185D01*
X117503350Y-91196178D01*
X117417190Y-91081084D01*
X117417187Y-91081081D01*
X117302093Y-90994921D01*
X117302086Y-90994917D01*
X117167379Y-90944675D01*
X117167372Y-90944673D01*
X117107844Y-90938272D01*
X116810000Y-90938272D01*
X116810000Y-91300000D01*
X116310000Y-91300000D01*
X116310000Y-90938272D01*
X116012155Y-90938272D01*
X115952627Y-90944673D01*
X115952620Y-90944675D01*
X115817913Y-90994917D01*
X115817906Y-90994921D01*
X115702812Y-91081081D01*
X115702809Y-91081084D01*
X115616649Y-91196178D01*
X115616645Y-91196185D01*
X115577925Y-91300000D01*
X115250000Y-91300000D01*
X114668749Y-91300000D01*
X114664552Y-91293719D01*
X114598230Y-91249404D01*
X114598229Y-91249403D01*
X114539752Y-91237772D01*
X114539748Y-91237772D01*
X113500252Y-91237772D01*
X113500251Y-91237772D01*
X113478408Y-91242117D01*
X113454216Y-91244500D01*
X112045784Y-91244500D01*
X112021592Y-91242117D01*
X111999749Y-91237772D01*
X111999748Y-91237772D01*
X110960252Y-91237772D01*
X110960247Y-91237772D01*
X110901770Y-91249403D01*
X110901769Y-91249404D01*
X110835447Y-91293719D01*
X110791132Y-91360041D01*
X110791131Y-91360042D01*
X110779500Y-91418519D01*
X109940000Y-91418519D01*
X109940000Y-91390444D01*
X109939999Y-91390427D01*
X109933598Y-91330899D01*
X109933596Y-91330892D01*
X109883354Y-91196185D01*
X109883350Y-91196178D01*
X109797190Y-91081084D01*
X109797187Y-91081081D01*
X109682093Y-90994921D01*
X109682086Y-90994917D01*
X109547379Y-90944675D01*
X109547372Y-90944673D01*
X109487844Y-90938272D01*
X109190000Y-90938272D01*
X109190000Y-91450000D01*
X108690000Y-91450000D01*
X108690000Y-90938272D01*
X108392155Y-90938272D01*
X108332627Y-90944673D01*
X108332620Y-90944675D01*
X108197913Y-90994917D01*
X108197906Y-90994921D01*
X108082812Y-91081081D01*
X108082809Y-91081084D01*
X107996649Y-91196178D01*
X107996645Y-91196185D01*
X107946403Y-91330892D01*
X107946401Y-91330899D01*
X107940000Y-91390427D01*
X79000000Y-91390427D01*
X79000000Y-89124000D01*
X79019685Y-89056961D01*
X79072489Y-89011206D01*
X79124000Y-89000000D01*
X84213849Y-89000000D01*
X84280888Y-89019685D01*
G37*
%TD.AperFunction*%
%TD*%
%TA.AperFunction,Conductor*%
%TO.N,GND*%
G36*
X148400000Y-94600000D02*
G01*
X146350000Y-94600000D01*
X146350000Y-91450000D01*
X148400000Y-91450000D01*
X148400000Y-94600000D01*
G37*
%TD.AperFunction*%
%TD*%
%TA.AperFunction,Conductor*%
%TO.N,+5V*%
G36*
X114443039Y-91469685D02*
G01*
X114488794Y-91522489D01*
X114500000Y-91574000D01*
X114500000Y-94476000D01*
X114480315Y-94543039D01*
X114427511Y-94588794D01*
X114376000Y-94600000D01*
X111124000Y-94600000D01*
X111056961Y-94580315D01*
X111011206Y-94527511D01*
X111000000Y-94476000D01*
X111000000Y-91574000D01*
X111019685Y-91506961D01*
X111072489Y-91461206D01*
X111124000Y-91450000D01*
X114376000Y-91450000D01*
X114443039Y-91469685D01*
G37*
%TD.AperFunction*%
%TD*%
%TA.AperFunction,Conductor*%
%TO.N,BRD_VIN*%
G36*
X127340955Y-91469685D02*
G01*
X127386710Y-91522489D01*
X127397899Y-91576066D01*
X127352032Y-94328066D01*
X127331233Y-94394769D01*
X127277674Y-94439637D01*
X127228049Y-94450000D01*
X118721951Y-94450000D01*
X118654912Y-94430315D01*
X118609157Y-94377511D01*
X118597968Y-94328066D01*
X118552101Y-91576066D01*
X118570666Y-91508708D01*
X118622700Y-91462080D01*
X118676084Y-91450000D01*
X127273916Y-91450000D01*
X127340955Y-91469685D01*
G37*
%TD.AperFunction*%
%TD*%
M02*
