%TF.GenerationSoftware,KiCad,Pcbnew,10.0.1*%
%TF.CreationDate,2026-04-17T15:02:28+02:00*%
%TF.ProjectId,MMS3_hat_GPIO_board_basic,4d4d5333-5f68-4617-945f-4750494f5f62,R0*%
%TF.SameCoordinates,Original*%
%TF.FileFunction,Legend,Top*%
%TF.FilePolarity,Positive*%
%FSLAX46Y46*%
G04 Gerber Fmt 4.6, Leading zero omitted, Abs format (unit mm)*
G04 Created by KiCad (PCBNEW 10.0.1) date 2026-04-17 15:02:28*
%MOMM*%
%LPD*%
G01*
G04 APERTURE LIST*
G04 Aperture macros list*
%AMRoundRect*
0 Rectangle with rounded corners*
0 $1 Rounding radius*
0 $2 $3 $4 $5 $6 $7 $8 $9 X,Y pos of 4 corners*
0 Add a 4 corners polygon primitive as box body*
4,1,4,$2,$3,$4,$5,$6,$7,$8,$9,$2,$3,0*
0 Add four circle primitives for the rounded corners*
1,1,$1+$1,$2,$3*
1,1,$1+$1,$4,$5*
1,1,$1+$1,$6,$7*
1,1,$1+$1,$8,$9*
0 Add four rect primitives between the rounded corners*
20,1,$1+$1,$2,$3,$4,$5,0*
20,1,$1+$1,$4,$5,$6,$7,0*
20,1,$1+$1,$6,$7,$8,$9,0*
20,1,$1+$1,$8,$9,$2,$3,0*%
G04 Aperture macros list end*
%ADD10C,0.125000*%
%ADD11C,0.300000*%
%ADD12C,0.100000*%
%ADD13C,0.150000*%
%ADD14C,0.200000*%
%ADD15C,0.250000*%
%ADD16C,0.060000*%
%ADD17C,0.000000*%
%ADD18C,0.120000*%
%ADD19RoundRect,0.239000X-0.274000X0.239000X-0.274000X-0.239000X0.274000X-0.239000X0.274000X0.239000X0*%
%ADD20RoundRect,0.239000X0.239000X0.274000X-0.239000X0.274000X-0.239000X-0.274000X0.239000X-0.274000X0*%
%ADD21RoundRect,0.239000X0.274000X-0.239000X0.274000X0.239000X-0.274000X0.239000X-0.274000X-0.239000X0*%
%ADD22RoundRect,0.239000X-0.239000X-0.274000X0.239000X-0.274000X0.239000X0.274000X-0.239000X0.274000X0*%
%ADD23RoundRect,0.159000X-0.159000X-0.189000X0.159000X-0.189000X0.159000X0.189000X-0.159000X0.189000X0*%
%ADD24RoundRect,0.159000X0.189000X-0.159000X0.189000X0.159000X-0.189000X0.159000X-0.189000X-0.159000X0*%
%ADD25RoundRect,0.159000X-0.189000X0.159000X-0.189000X-0.159000X0.189000X-0.159000X0.189000X0.159000X0*%
%ADD26RoundRect,0.159000X0.159000X0.189000X-0.159000X0.189000X-0.159000X-0.189000X0.159000X-0.189000X0*%
%ADD27R,1.650000X0.400000*%
%ADD28R,0.600000X1.100000*%
%ADD29RoundRect,0.244000X-0.244000X-0.269000X0.244000X-0.269000X0.244000X0.269000X-0.244000X0.269000X0*%
%ADD30RoundRect,0.244000X0.269000X-0.244000X0.269000X0.244000X-0.269000X0.244000X-0.269000X-0.244000X0*%
%ADD31RoundRect,0.100000X-0.100000X0.637500X-0.100000X-0.637500X0.100000X-0.637500X0.100000X0.637500X0*%
%ADD32C,3.100000*%
%ADD33C,4.700000*%
%ADD34RoundRect,0.244000X-0.269000X0.244000X-0.269000X-0.244000X0.269000X-0.244000X0.269000X0.244000X0*%
%ADD35RoundRect,0.250000X-0.725000X0.600000X-0.725000X-0.600000X0.725000X-0.600000X0.725000X0.600000X0*%
%ADD36O,1.950000X1.700000*%
%ADD37RoundRect,0.250000X0.725000X-0.600000X0.725000X0.600000X-0.725000X0.600000X-0.725000X-0.600000X0*%
%ADD38RoundRect,0.250000X-0.600000X-0.725000X0.600000X-0.725000X0.600000X0.725000X-0.600000X0.725000X0*%
%ADD39O,1.700000X1.950000*%
%ADD40R,1.000000X3.000000*%
%ADD41C,1.296000*%
%ADD42R,1.700000X1.700000*%
%ADD43C,1.700000*%
%ADD44O,1.950000X0.570000*%
%ADD45C,2.700000*%
%ADD46RoundRect,0.250000X-1.000000X-0.300000X1.000000X-0.300000X1.000000X0.300000X-1.000000X0.300000X0*%
%ADD47C,0.500000*%
%ADD48RoundRect,0.250000X-0.920000X-1.550000X0.920000X-1.550000X0.920000X1.550000X-0.920000X1.550000X0*%
G04 APERTURE END LIST*
D10*
X114691759Y-104241287D02*
X114358426Y-103765096D01*
X114120331Y-104241287D02*
X114120331Y-103241287D01*
X114120331Y-103241287D02*
X114501283Y-103241287D01*
X114501283Y-103241287D02*
X114596521Y-103288906D01*
X114596521Y-103288906D02*
X114644140Y-103336525D01*
X114644140Y-103336525D02*
X114691759Y-103431763D01*
X114691759Y-103431763D02*
X114691759Y-103574620D01*
X114691759Y-103574620D02*
X114644140Y-103669858D01*
X114644140Y-103669858D02*
X114596521Y-103717477D01*
X114596521Y-103717477D02*
X114501283Y-103765096D01*
X114501283Y-103765096D02*
X114120331Y-103765096D01*
X115501283Y-104193668D02*
X115406045Y-104241287D01*
X115406045Y-104241287D02*
X115215569Y-104241287D01*
X115215569Y-104241287D02*
X115120331Y-104193668D01*
X115120331Y-104193668D02*
X115072712Y-104098429D01*
X115072712Y-104098429D02*
X115072712Y-103717477D01*
X115072712Y-103717477D02*
X115120331Y-103622239D01*
X115120331Y-103622239D02*
X115215569Y-103574620D01*
X115215569Y-103574620D02*
X115406045Y-103574620D01*
X115406045Y-103574620D02*
X115501283Y-103622239D01*
X115501283Y-103622239D02*
X115548902Y-103717477D01*
X115548902Y-103717477D02*
X115548902Y-103812715D01*
X115548902Y-103812715D02*
X115072712Y-103907953D01*
X115882236Y-103574620D02*
X116120331Y-104241287D01*
X116120331Y-104241287D02*
X116358426Y-103574620D01*
X117501284Y-104146048D02*
X117548903Y-104193668D01*
X117548903Y-104193668D02*
X117501284Y-104241287D01*
X117501284Y-104241287D02*
X117453665Y-104193668D01*
X117453665Y-104193668D02*
X117501284Y-104146048D01*
X117501284Y-104146048D02*
X117501284Y-104241287D01*
X117977474Y-103860334D02*
X118739379Y-103860334D01*
X119215569Y-103860334D02*
X119977474Y-103860334D01*
X120453664Y-103860334D02*
X121215569Y-103860334D01*
X121691759Y-103860334D02*
X122453664Y-103860334D01*
X124406044Y-103193668D02*
X123548902Y-104479382D01*
X125501283Y-104146048D02*
X125548902Y-104193668D01*
X125548902Y-104193668D02*
X125501283Y-104241287D01*
X125501283Y-104241287D02*
X125453664Y-104193668D01*
X125453664Y-104193668D02*
X125501283Y-104146048D01*
X125501283Y-104146048D02*
X125501283Y-104241287D01*
X125977473Y-104146048D02*
X126025092Y-104193668D01*
X126025092Y-104193668D02*
X125977473Y-104241287D01*
X125977473Y-104241287D02*
X125929854Y-104193668D01*
X125929854Y-104193668D02*
X125977473Y-104146048D01*
X125977473Y-104146048D02*
X125977473Y-104241287D01*
X126453663Y-103860334D02*
X127215568Y-103860334D01*
X127691758Y-103860334D02*
X128453663Y-103860334D01*
X128929853Y-103860334D02*
X129691758Y-103860334D01*
X114120331Y-105851231D02*
X114120331Y-104851231D01*
X114120331Y-104851231D02*
X114453664Y-105565516D01*
X114453664Y-105565516D02*
X114786997Y-104851231D01*
X114786997Y-104851231D02*
X114786997Y-105851231D01*
X115691759Y-105851231D02*
X115691759Y-105327421D01*
X115691759Y-105327421D02*
X115644140Y-105232183D01*
X115644140Y-105232183D02*
X115548902Y-105184564D01*
X115548902Y-105184564D02*
X115358426Y-105184564D01*
X115358426Y-105184564D02*
X115263188Y-105232183D01*
X115691759Y-105803612D02*
X115596521Y-105851231D01*
X115596521Y-105851231D02*
X115358426Y-105851231D01*
X115358426Y-105851231D02*
X115263188Y-105803612D01*
X115263188Y-105803612D02*
X115215569Y-105708373D01*
X115215569Y-105708373D02*
X115215569Y-105613135D01*
X115215569Y-105613135D02*
X115263188Y-105517897D01*
X115263188Y-105517897D02*
X115358426Y-105470278D01*
X115358426Y-105470278D02*
X115596521Y-105470278D01*
X115596521Y-105470278D02*
X115691759Y-105422659D01*
X116596521Y-105851231D02*
X116596521Y-104851231D01*
X116596521Y-105803612D02*
X116501283Y-105851231D01*
X116501283Y-105851231D02*
X116310807Y-105851231D01*
X116310807Y-105851231D02*
X116215569Y-105803612D01*
X116215569Y-105803612D02*
X116167950Y-105755992D01*
X116167950Y-105755992D02*
X116120331Y-105660754D01*
X116120331Y-105660754D02*
X116120331Y-105375040D01*
X116120331Y-105375040D02*
X116167950Y-105279802D01*
X116167950Y-105279802D02*
X116215569Y-105232183D01*
X116215569Y-105232183D02*
X116310807Y-105184564D01*
X116310807Y-105184564D02*
X116501283Y-105184564D01*
X116501283Y-105184564D02*
X116596521Y-105232183D01*
X117453664Y-105803612D02*
X117358426Y-105851231D01*
X117358426Y-105851231D02*
X117167950Y-105851231D01*
X117167950Y-105851231D02*
X117072712Y-105803612D01*
X117072712Y-105803612D02*
X117025093Y-105708373D01*
X117025093Y-105708373D02*
X117025093Y-105327421D01*
X117025093Y-105327421D02*
X117072712Y-105232183D01*
X117072712Y-105232183D02*
X117167950Y-105184564D01*
X117167950Y-105184564D02*
X117358426Y-105184564D01*
X117358426Y-105184564D02*
X117453664Y-105232183D01*
X117453664Y-105232183D02*
X117501283Y-105327421D01*
X117501283Y-105327421D02*
X117501283Y-105422659D01*
X117501283Y-105422659D02*
X117025093Y-105517897D01*
X119025093Y-105327421D02*
X119167950Y-105375040D01*
X119167950Y-105375040D02*
X119215569Y-105422659D01*
X119215569Y-105422659D02*
X119263188Y-105517897D01*
X119263188Y-105517897D02*
X119263188Y-105660754D01*
X119263188Y-105660754D02*
X119215569Y-105755992D01*
X119215569Y-105755992D02*
X119167950Y-105803612D01*
X119167950Y-105803612D02*
X119072712Y-105851231D01*
X119072712Y-105851231D02*
X118691760Y-105851231D01*
X118691760Y-105851231D02*
X118691760Y-104851231D01*
X118691760Y-104851231D02*
X119025093Y-104851231D01*
X119025093Y-104851231D02*
X119120331Y-104898850D01*
X119120331Y-104898850D02*
X119167950Y-104946469D01*
X119167950Y-104946469D02*
X119215569Y-105041707D01*
X119215569Y-105041707D02*
X119215569Y-105136945D01*
X119215569Y-105136945D02*
X119167950Y-105232183D01*
X119167950Y-105232183D02*
X119120331Y-105279802D01*
X119120331Y-105279802D02*
X119025093Y-105327421D01*
X119025093Y-105327421D02*
X118691760Y-105327421D01*
X119596522Y-105184564D02*
X119834617Y-105851231D01*
X120072712Y-105184564D02*
X119834617Y-105851231D01*
X119834617Y-105851231D02*
X119739379Y-106089326D01*
X119739379Y-106089326D02*
X119691760Y-106136945D01*
X119691760Y-106136945D02*
X119596522Y-106184564D01*
X114025093Y-106461175D02*
X114263188Y-107461175D01*
X114263188Y-107461175D02*
X114453664Y-106746889D01*
X114453664Y-106746889D02*
X114644140Y-107461175D01*
X114644140Y-107461175D02*
X114882236Y-106461175D01*
X115406045Y-107461175D02*
X115310807Y-107413556D01*
X115310807Y-107413556D02*
X115263188Y-107365936D01*
X115263188Y-107365936D02*
X115215569Y-107270698D01*
X115215569Y-107270698D02*
X115215569Y-106984984D01*
X115215569Y-106984984D02*
X115263188Y-106889746D01*
X115263188Y-106889746D02*
X115310807Y-106842127D01*
X115310807Y-106842127D02*
X115406045Y-106794508D01*
X115406045Y-106794508D02*
X115548902Y-106794508D01*
X115548902Y-106794508D02*
X115644140Y-106842127D01*
X115644140Y-106842127D02*
X115691759Y-106889746D01*
X115691759Y-106889746D02*
X115739378Y-106984984D01*
X115739378Y-106984984D02*
X115739378Y-107270698D01*
X115739378Y-107270698D02*
X115691759Y-107365936D01*
X115691759Y-107365936D02*
X115644140Y-107413556D01*
X115644140Y-107413556D02*
X115548902Y-107461175D01*
X115548902Y-107461175D02*
X115406045Y-107461175D01*
X116167950Y-106794508D02*
X116167950Y-107651651D01*
X116167950Y-107651651D02*
X116120331Y-107746889D01*
X116120331Y-107746889D02*
X116025093Y-107794508D01*
X116025093Y-107794508D02*
X115977474Y-107794508D01*
X116167950Y-106461175D02*
X116120331Y-106508794D01*
X116120331Y-106508794D02*
X116167950Y-106556413D01*
X116167950Y-106556413D02*
X116215569Y-106508794D01*
X116215569Y-106508794D02*
X116167950Y-106461175D01*
X116167950Y-106461175D02*
X116167950Y-106556413D01*
X117072711Y-107413556D02*
X116977473Y-107461175D01*
X116977473Y-107461175D02*
X116786997Y-107461175D01*
X116786997Y-107461175D02*
X116691759Y-107413556D01*
X116691759Y-107413556D02*
X116644140Y-107365936D01*
X116644140Y-107365936D02*
X116596521Y-107270698D01*
X116596521Y-107270698D02*
X116596521Y-106984984D01*
X116596521Y-106984984D02*
X116644140Y-106889746D01*
X116644140Y-106889746D02*
X116691759Y-106842127D01*
X116691759Y-106842127D02*
X116786997Y-106794508D01*
X116786997Y-106794508D02*
X116977473Y-106794508D01*
X116977473Y-106794508D02*
X117072711Y-106842127D01*
X117501283Y-107461175D02*
X117501283Y-106794508D01*
X117501283Y-106461175D02*
X117453664Y-106508794D01*
X117453664Y-106508794D02*
X117501283Y-106556413D01*
X117501283Y-106556413D02*
X117548902Y-106508794D01*
X117548902Y-106508794D02*
X117501283Y-106461175D01*
X117501283Y-106461175D02*
X117501283Y-106556413D01*
X118358425Y-107413556D02*
X118263187Y-107461175D01*
X118263187Y-107461175D02*
X118072711Y-107461175D01*
X118072711Y-107461175D02*
X117977473Y-107413556D01*
X117977473Y-107413556D02*
X117929854Y-107318317D01*
X117929854Y-107318317D02*
X117929854Y-106937365D01*
X117929854Y-106937365D02*
X117977473Y-106842127D01*
X117977473Y-106842127D02*
X118072711Y-106794508D01*
X118072711Y-106794508D02*
X118263187Y-106794508D01*
X118263187Y-106794508D02*
X118358425Y-106842127D01*
X118358425Y-106842127D02*
X118406044Y-106937365D01*
X118406044Y-106937365D02*
X118406044Y-107032603D01*
X118406044Y-107032603D02*
X117929854Y-107127841D01*
X119263187Y-107413556D02*
X119167949Y-107461175D01*
X119167949Y-107461175D02*
X118977473Y-107461175D01*
X118977473Y-107461175D02*
X118882235Y-107413556D01*
X118882235Y-107413556D02*
X118834616Y-107365936D01*
X118834616Y-107365936D02*
X118786997Y-107270698D01*
X118786997Y-107270698D02*
X118786997Y-106984984D01*
X118786997Y-106984984D02*
X118834616Y-106889746D01*
X118834616Y-106889746D02*
X118882235Y-106842127D01*
X118882235Y-106842127D02*
X118977473Y-106794508D01*
X118977473Y-106794508D02*
X119167949Y-106794508D01*
X119167949Y-106794508D02*
X119263187Y-106842127D01*
X119691759Y-107461175D02*
X119691759Y-106461175D01*
X120120330Y-107461175D02*
X120120330Y-106937365D01*
X120120330Y-106937365D02*
X120072711Y-106842127D01*
X120072711Y-106842127D02*
X119977473Y-106794508D01*
X119977473Y-106794508D02*
X119834616Y-106794508D01*
X119834616Y-106794508D02*
X119739378Y-106842127D01*
X119739378Y-106842127D02*
X119691759Y-106889746D01*
X121310807Y-107413556D02*
X121453664Y-107461175D01*
X121453664Y-107461175D02*
X121691759Y-107461175D01*
X121691759Y-107461175D02*
X121786997Y-107413556D01*
X121786997Y-107413556D02*
X121834616Y-107365936D01*
X121834616Y-107365936D02*
X121882235Y-107270698D01*
X121882235Y-107270698D02*
X121882235Y-107175460D01*
X121882235Y-107175460D02*
X121834616Y-107080222D01*
X121834616Y-107080222D02*
X121786997Y-107032603D01*
X121786997Y-107032603D02*
X121691759Y-106984984D01*
X121691759Y-106984984D02*
X121501283Y-106937365D01*
X121501283Y-106937365D02*
X121406045Y-106889746D01*
X121406045Y-106889746D02*
X121358426Y-106842127D01*
X121358426Y-106842127D02*
X121310807Y-106746889D01*
X121310807Y-106746889D02*
X121310807Y-106651651D01*
X121310807Y-106651651D02*
X121358426Y-106556413D01*
X121358426Y-106556413D02*
X121406045Y-106508794D01*
X121406045Y-106508794D02*
X121501283Y-106461175D01*
X121501283Y-106461175D02*
X121739378Y-106461175D01*
X121739378Y-106461175D02*
X121882235Y-106508794D01*
X122215569Y-106794508D02*
X122739378Y-106794508D01*
X122739378Y-106794508D02*
X122215569Y-107461175D01*
X122215569Y-107461175D02*
X122739378Y-107461175D01*
X123548902Y-107461175D02*
X123548902Y-106937365D01*
X123548902Y-106937365D02*
X123501283Y-106842127D01*
X123501283Y-106842127D02*
X123406045Y-106794508D01*
X123406045Y-106794508D02*
X123215569Y-106794508D01*
X123215569Y-106794508D02*
X123120331Y-106842127D01*
X123548902Y-107413556D02*
X123453664Y-107461175D01*
X123453664Y-107461175D02*
X123215569Y-107461175D01*
X123215569Y-107461175D02*
X123120331Y-107413556D01*
X123120331Y-107413556D02*
X123072712Y-107318317D01*
X123072712Y-107318317D02*
X123072712Y-107223079D01*
X123072712Y-107223079D02*
X123120331Y-107127841D01*
X123120331Y-107127841D02*
X123215569Y-107080222D01*
X123215569Y-107080222D02*
X123453664Y-107080222D01*
X123453664Y-107080222D02*
X123548902Y-107032603D01*
X123882236Y-106794508D02*
X124263188Y-106794508D01*
X124025093Y-107461175D02*
X124025093Y-106604032D01*
X124025093Y-106604032D02*
X124072712Y-106508794D01*
X124072712Y-106508794D02*
X124167950Y-106461175D01*
X124167950Y-106461175D02*
X124263188Y-106461175D01*
X124596522Y-107461175D02*
X124596522Y-106794508D01*
X124596522Y-106984984D02*
X124644141Y-106889746D01*
X124644141Y-106889746D02*
X124691760Y-106842127D01*
X124691760Y-106842127D02*
X124786998Y-106794508D01*
X124786998Y-106794508D02*
X124882236Y-106794508D01*
X125644141Y-107461175D02*
X125644141Y-106937365D01*
X125644141Y-106937365D02*
X125596522Y-106842127D01*
X125596522Y-106842127D02*
X125501284Y-106794508D01*
X125501284Y-106794508D02*
X125310808Y-106794508D01*
X125310808Y-106794508D02*
X125215570Y-106842127D01*
X125644141Y-107413556D02*
X125548903Y-107461175D01*
X125548903Y-107461175D02*
X125310808Y-107461175D01*
X125310808Y-107461175D02*
X125215570Y-107413556D01*
X125215570Y-107413556D02*
X125167951Y-107318317D01*
X125167951Y-107318317D02*
X125167951Y-107223079D01*
X125167951Y-107223079D02*
X125215570Y-107127841D01*
X125215570Y-107127841D02*
X125310808Y-107080222D01*
X125310808Y-107080222D02*
X125548903Y-107080222D01*
X125548903Y-107080222D02*
X125644141Y-107032603D01*
X126120332Y-106794508D02*
X126120332Y-107461175D01*
X126120332Y-106889746D02*
X126167951Y-106842127D01*
X126167951Y-106842127D02*
X126263189Y-106794508D01*
X126263189Y-106794508D02*
X126406046Y-106794508D01*
X126406046Y-106794508D02*
X126501284Y-106842127D01*
X126501284Y-106842127D02*
X126548903Y-106937365D01*
X126548903Y-106937365D02*
X126548903Y-107461175D01*
X126406046Y-106413556D02*
X126263189Y-106556413D01*
X126977475Y-107413556D02*
X127072713Y-107461175D01*
X127072713Y-107461175D02*
X127263189Y-107461175D01*
X127263189Y-107461175D02*
X127358427Y-107413556D01*
X127358427Y-107413556D02*
X127406046Y-107318317D01*
X127406046Y-107318317D02*
X127406046Y-107270698D01*
X127406046Y-107270698D02*
X127358427Y-107175460D01*
X127358427Y-107175460D02*
X127263189Y-107127841D01*
X127263189Y-107127841D02*
X127120332Y-107127841D01*
X127120332Y-107127841D02*
X127025094Y-107080222D01*
X127025094Y-107080222D02*
X126977475Y-106984984D01*
X126977475Y-106984984D02*
X126977475Y-106937365D01*
X126977475Y-106937365D02*
X127025094Y-106842127D01*
X127025094Y-106842127D02*
X127120332Y-106794508D01*
X127120332Y-106794508D02*
X127263189Y-106794508D01*
X127263189Y-106794508D02*
X127358427Y-106842127D01*
X127834618Y-107461175D02*
X127834618Y-106461175D01*
X127929856Y-107080222D02*
X128215570Y-107461175D01*
X128215570Y-106794508D02*
X127834618Y-107175460D01*
X128644142Y-107461175D02*
X128644142Y-106794508D01*
X128644142Y-106461175D02*
X128596523Y-106508794D01*
X128596523Y-106508794D02*
X128644142Y-106556413D01*
X128644142Y-106556413D02*
X128691761Y-106508794D01*
X128691761Y-106508794D02*
X128644142Y-106461175D01*
X128644142Y-106461175D02*
X128644142Y-106556413D01*
X114406045Y-109452071D02*
X114358426Y-109404452D01*
X114358426Y-109404452D02*
X114263188Y-109261595D01*
X114263188Y-109261595D02*
X114215569Y-109166357D01*
X114215569Y-109166357D02*
X114167950Y-109023500D01*
X114167950Y-109023500D02*
X114120331Y-108785404D01*
X114120331Y-108785404D02*
X114120331Y-108594928D01*
X114120331Y-108594928D02*
X114167950Y-108356833D01*
X114167950Y-108356833D02*
X114215569Y-108213976D01*
X114215569Y-108213976D02*
X114263188Y-108118738D01*
X114263188Y-108118738D02*
X114358426Y-107975880D01*
X114358426Y-107975880D02*
X114406045Y-107928261D01*
X114786998Y-109071119D02*
X114786998Y-108071119D01*
X114786998Y-108071119D02*
X115025093Y-108071119D01*
X115025093Y-108071119D02*
X115167950Y-108118738D01*
X115167950Y-108118738D02*
X115263188Y-108213976D01*
X115263188Y-108213976D02*
X115310807Y-108309214D01*
X115310807Y-108309214D02*
X115358426Y-108499690D01*
X115358426Y-108499690D02*
X115358426Y-108642547D01*
X115358426Y-108642547D02*
X115310807Y-108833023D01*
X115310807Y-108833023D02*
X115263188Y-108928261D01*
X115263188Y-108928261D02*
X115167950Y-109023500D01*
X115167950Y-109023500D02*
X115025093Y-109071119D01*
X115025093Y-109071119D02*
X114786998Y-109071119D01*
X115977474Y-108071119D02*
X116167950Y-108071119D01*
X116167950Y-108071119D02*
X116263188Y-108118738D01*
X116263188Y-108118738D02*
X116358426Y-108213976D01*
X116358426Y-108213976D02*
X116406045Y-108404452D01*
X116406045Y-108404452D02*
X116406045Y-108737785D01*
X116406045Y-108737785D02*
X116358426Y-108928261D01*
X116358426Y-108928261D02*
X116263188Y-109023500D01*
X116263188Y-109023500D02*
X116167950Y-109071119D01*
X116167950Y-109071119D02*
X115977474Y-109071119D01*
X115977474Y-109071119D02*
X115882236Y-109023500D01*
X115882236Y-109023500D02*
X115786998Y-108928261D01*
X115786998Y-108928261D02*
X115739379Y-108737785D01*
X115739379Y-108737785D02*
X115739379Y-108404452D01*
X115739379Y-108404452D02*
X115786998Y-108213976D01*
X115786998Y-108213976D02*
X115882236Y-108118738D01*
X115882236Y-108118738D02*
X115977474Y-108071119D01*
X116834617Y-109071119D02*
X116834617Y-108071119D01*
X116834617Y-108071119D02*
X117406045Y-109071119D01*
X117406045Y-109071119D02*
X117406045Y-108071119D01*
X117739379Y-108071119D02*
X118310807Y-108071119D01*
X118025093Y-109071119D02*
X118025093Y-108071119D01*
X119358427Y-109023500D02*
X119501284Y-109071119D01*
X119501284Y-109071119D02*
X119739379Y-109071119D01*
X119739379Y-109071119D02*
X119834617Y-109023500D01*
X119834617Y-109023500D02*
X119882236Y-108975880D01*
X119882236Y-108975880D02*
X119929855Y-108880642D01*
X119929855Y-108880642D02*
X119929855Y-108785404D01*
X119929855Y-108785404D02*
X119882236Y-108690166D01*
X119882236Y-108690166D02*
X119834617Y-108642547D01*
X119834617Y-108642547D02*
X119739379Y-108594928D01*
X119739379Y-108594928D02*
X119548903Y-108547309D01*
X119548903Y-108547309D02*
X119453665Y-108499690D01*
X119453665Y-108499690D02*
X119406046Y-108452071D01*
X119406046Y-108452071D02*
X119358427Y-108356833D01*
X119358427Y-108356833D02*
X119358427Y-108261595D01*
X119358427Y-108261595D02*
X119406046Y-108166357D01*
X119406046Y-108166357D02*
X119453665Y-108118738D01*
X119453665Y-108118738D02*
X119548903Y-108071119D01*
X119548903Y-108071119D02*
X119786998Y-108071119D01*
X119786998Y-108071119D02*
X119929855Y-108118738D01*
X120358427Y-108071119D02*
X120358427Y-108880642D01*
X120358427Y-108880642D02*
X120406046Y-108975880D01*
X120406046Y-108975880D02*
X120453665Y-109023500D01*
X120453665Y-109023500D02*
X120548903Y-109071119D01*
X120548903Y-109071119D02*
X120739379Y-109071119D01*
X120739379Y-109071119D02*
X120834617Y-109023500D01*
X120834617Y-109023500D02*
X120882236Y-108975880D01*
X120882236Y-108975880D02*
X120929855Y-108880642D01*
X120929855Y-108880642D02*
X120929855Y-108071119D01*
X121406046Y-108547309D02*
X121739379Y-108547309D01*
X121882236Y-109071119D02*
X121406046Y-109071119D01*
X121406046Y-109071119D02*
X121406046Y-108071119D01*
X121406046Y-108071119D02*
X121882236Y-108071119D01*
X123072713Y-109071119D02*
X123072713Y-108071119D01*
X123072713Y-108071119D02*
X123406046Y-108785404D01*
X123406046Y-108785404D02*
X123739379Y-108071119D01*
X123739379Y-108071119D02*
X123739379Y-109071119D01*
X124215570Y-108547309D02*
X124548903Y-108547309D01*
X124691760Y-109071119D02*
X124215570Y-109071119D01*
X124215570Y-109071119D02*
X124215570Y-108071119D01*
X124215570Y-108071119D02*
X124691760Y-108071119D01*
X125025094Y-109452071D02*
X125072713Y-109404452D01*
X125072713Y-109404452D02*
X125167951Y-109261595D01*
X125167951Y-109261595D02*
X125215570Y-109166357D01*
X125215570Y-109166357D02*
X125263189Y-109023500D01*
X125263189Y-109023500D02*
X125310808Y-108785404D01*
X125310808Y-108785404D02*
X125310808Y-108594928D01*
X125310808Y-108594928D02*
X125263189Y-108356833D01*
X125263189Y-108356833D02*
X125215570Y-108213976D01*
X125215570Y-108213976D02*
X125167951Y-108118738D01*
X125167951Y-108118738D02*
X125072713Y-107975880D01*
X125072713Y-107975880D02*
X125025094Y-107928261D01*
D11*
X85600000Y-130600000D02*
X86300000Y-125700000D01*
X86300000Y-125700000D02*
X99200000Y-124900000D01*
D12*
X156300000Y-102000000D02*
X155800000Y-102600000D01*
X156300000Y-102000000D02*
X156300000Y-103800000D01*
X156300000Y-102000000D02*
X156700000Y-102600000D01*
D11*
X170650000Y-124650000D02*
X156950000Y-124150000D01*
D13*
X155738095Y-104202438D02*
X155642857Y-104154819D01*
X155642857Y-104154819D02*
X155500000Y-104154819D01*
X155500000Y-104154819D02*
X155357143Y-104202438D01*
X155357143Y-104202438D02*
X155261905Y-104297676D01*
X155261905Y-104297676D02*
X155214286Y-104392914D01*
X155214286Y-104392914D02*
X155166667Y-104583390D01*
X155166667Y-104583390D02*
X155166667Y-104726247D01*
X155166667Y-104726247D02*
X155214286Y-104916723D01*
X155214286Y-104916723D02*
X155261905Y-105011961D01*
X155261905Y-105011961D02*
X155357143Y-105107200D01*
X155357143Y-105107200D02*
X155500000Y-105154819D01*
X155500000Y-105154819D02*
X155595238Y-105154819D01*
X155595238Y-105154819D02*
X155738095Y-105107200D01*
X155738095Y-105107200D02*
X155785714Y-105059580D01*
X155785714Y-105059580D02*
X155785714Y-104726247D01*
X155785714Y-104726247D02*
X155595238Y-104726247D01*
X156214286Y-105154819D02*
X156214286Y-104154819D01*
X156214286Y-104154819D02*
X156785714Y-105154819D01*
X156785714Y-105154819D02*
X156785714Y-104154819D01*
X157261905Y-105154819D02*
X157261905Y-104154819D01*
X157261905Y-104154819D02*
X157500000Y-104154819D01*
X157500000Y-104154819D02*
X157642857Y-104202438D01*
X157642857Y-104202438D02*
X157738095Y-104297676D01*
X157738095Y-104297676D02*
X157785714Y-104392914D01*
X157785714Y-104392914D02*
X157833333Y-104583390D01*
X157833333Y-104583390D02*
X157833333Y-104726247D01*
X157833333Y-104726247D02*
X157785714Y-104916723D01*
X157785714Y-104916723D02*
X157738095Y-105011961D01*
X157738095Y-105011961D02*
X157642857Y-105107200D01*
X157642857Y-105107200D02*
X157500000Y-105154819D01*
X157500000Y-105154819D02*
X157261905Y-105154819D01*
X170057200Y-97600000D02*
X170104819Y-97457143D01*
X170104819Y-97457143D02*
X170104819Y-97219048D01*
X170104819Y-97219048D02*
X170057200Y-97123810D01*
X170057200Y-97123810D02*
X170009580Y-97076191D01*
X170009580Y-97076191D02*
X169914342Y-97028572D01*
X169914342Y-97028572D02*
X169819104Y-97028572D01*
X169819104Y-97028572D02*
X169723866Y-97076191D01*
X169723866Y-97076191D02*
X169676247Y-97123810D01*
X169676247Y-97123810D02*
X169628628Y-97219048D01*
X169628628Y-97219048D02*
X169581009Y-97409524D01*
X169581009Y-97409524D02*
X169533390Y-97504762D01*
X169533390Y-97504762D02*
X169485771Y-97552381D01*
X169485771Y-97552381D02*
X169390533Y-97600000D01*
X169390533Y-97600000D02*
X169295295Y-97600000D01*
X169295295Y-97600000D02*
X169200057Y-97552381D01*
X169200057Y-97552381D02*
X169152438Y-97504762D01*
X169152438Y-97504762D02*
X169104819Y-97409524D01*
X169104819Y-97409524D02*
X169104819Y-97171429D01*
X169104819Y-97171429D02*
X169152438Y-97028572D01*
X170057200Y-96219048D02*
X170104819Y-96314286D01*
X170104819Y-96314286D02*
X170104819Y-96504762D01*
X170104819Y-96504762D02*
X170057200Y-96600000D01*
X170057200Y-96600000D02*
X169961961Y-96647619D01*
X169961961Y-96647619D02*
X169581009Y-96647619D01*
X169581009Y-96647619D02*
X169485771Y-96600000D01*
X169485771Y-96600000D02*
X169438152Y-96504762D01*
X169438152Y-96504762D02*
X169438152Y-96314286D01*
X169438152Y-96314286D02*
X169485771Y-96219048D01*
X169485771Y-96219048D02*
X169581009Y-96171429D01*
X169581009Y-96171429D02*
X169676247Y-96171429D01*
X169676247Y-96171429D02*
X169771485Y-96647619D01*
X170104819Y-95600000D02*
X170057200Y-95695238D01*
X170057200Y-95695238D02*
X169961961Y-95742857D01*
X169961961Y-95742857D02*
X169104819Y-95742857D01*
X170057200Y-94838095D02*
X170104819Y-94933333D01*
X170104819Y-94933333D02*
X170104819Y-95123809D01*
X170104819Y-95123809D02*
X170057200Y-95219047D01*
X170057200Y-95219047D02*
X169961961Y-95266666D01*
X169961961Y-95266666D02*
X169581009Y-95266666D01*
X169581009Y-95266666D02*
X169485771Y-95219047D01*
X169485771Y-95219047D02*
X169438152Y-95123809D01*
X169438152Y-95123809D02*
X169438152Y-94933333D01*
X169438152Y-94933333D02*
X169485771Y-94838095D01*
X169485771Y-94838095D02*
X169581009Y-94790476D01*
X169581009Y-94790476D02*
X169676247Y-94790476D01*
X169676247Y-94790476D02*
X169771485Y-95266666D01*
X170057200Y-93933333D02*
X170104819Y-94028571D01*
X170104819Y-94028571D02*
X170104819Y-94219047D01*
X170104819Y-94219047D02*
X170057200Y-94314285D01*
X170057200Y-94314285D02*
X170009580Y-94361904D01*
X170009580Y-94361904D02*
X169914342Y-94409523D01*
X169914342Y-94409523D02*
X169628628Y-94409523D01*
X169628628Y-94409523D02*
X169533390Y-94361904D01*
X169533390Y-94361904D02*
X169485771Y-94314285D01*
X169485771Y-94314285D02*
X169438152Y-94219047D01*
X169438152Y-94219047D02*
X169438152Y-94028571D01*
X169438152Y-94028571D02*
X169485771Y-93933333D01*
X169438152Y-93647618D02*
X169438152Y-93266666D01*
X169104819Y-93504761D02*
X169961961Y-93504761D01*
X169961961Y-93504761D02*
X170057200Y-93457142D01*
X170057200Y-93457142D02*
X170104819Y-93361904D01*
X170104819Y-93361904D02*
X170104819Y-93266666D01*
X170057200Y-92552380D02*
X170104819Y-92647618D01*
X170104819Y-92647618D02*
X170104819Y-92838094D01*
X170104819Y-92838094D02*
X170057200Y-92933332D01*
X170057200Y-92933332D02*
X169961961Y-92980951D01*
X169961961Y-92980951D02*
X169581009Y-92980951D01*
X169581009Y-92980951D02*
X169485771Y-92933332D01*
X169485771Y-92933332D02*
X169438152Y-92838094D01*
X169438152Y-92838094D02*
X169438152Y-92647618D01*
X169438152Y-92647618D02*
X169485771Y-92552380D01*
X169485771Y-92552380D02*
X169581009Y-92504761D01*
X169581009Y-92504761D02*
X169676247Y-92504761D01*
X169676247Y-92504761D02*
X169771485Y-92980951D01*
X170104819Y-91647618D02*
X169104819Y-91647618D01*
X170057200Y-91647618D02*
X170104819Y-91742856D01*
X170104819Y-91742856D02*
X170104819Y-91933332D01*
X170104819Y-91933332D02*
X170057200Y-92028570D01*
X170057200Y-92028570D02*
X170009580Y-92076189D01*
X170009580Y-92076189D02*
X169914342Y-92123808D01*
X169914342Y-92123808D02*
X169628628Y-92123808D01*
X169628628Y-92123808D02*
X169533390Y-92076189D01*
X169533390Y-92076189D02*
X169485771Y-92028570D01*
X169485771Y-92028570D02*
X169438152Y-91933332D01*
X169438152Y-91933332D02*
X169438152Y-91742856D01*
X169438152Y-91742856D02*
X169485771Y-91647618D01*
D14*
X86674435Y-128273409D02*
X87531578Y-128273409D01*
X86503006Y-128844838D02*
X87103006Y-126844838D01*
X87103006Y-126844838D02*
X87703006Y-128844838D01*
X88303006Y-128844838D02*
X88303006Y-126844838D01*
X88303006Y-126844838D02*
X88731577Y-126844838D01*
X88731577Y-126844838D02*
X88988720Y-126940076D01*
X88988720Y-126940076D02*
X89160149Y-127130552D01*
X89160149Y-127130552D02*
X89245863Y-127321028D01*
X89245863Y-127321028D02*
X89331577Y-127701980D01*
X89331577Y-127701980D02*
X89331577Y-127987695D01*
X89331577Y-127987695D02*
X89245863Y-128368647D01*
X89245863Y-128368647D02*
X89160149Y-128559123D01*
X89160149Y-128559123D02*
X88988720Y-128749600D01*
X88988720Y-128749600D02*
X88731577Y-128844838D01*
X88731577Y-128844838D02*
X88303006Y-128844838D01*
X91131577Y-128654361D02*
X91045863Y-128749600D01*
X91045863Y-128749600D02*
X90788720Y-128844838D01*
X90788720Y-128844838D02*
X90617292Y-128844838D01*
X90617292Y-128844838D02*
X90360149Y-128749600D01*
X90360149Y-128749600D02*
X90188720Y-128559123D01*
X90188720Y-128559123D02*
X90103006Y-128368647D01*
X90103006Y-128368647D02*
X90017292Y-127987695D01*
X90017292Y-127987695D02*
X90017292Y-127701980D01*
X90017292Y-127701980D02*
X90103006Y-127321028D01*
X90103006Y-127321028D02*
X90188720Y-127130552D01*
X90188720Y-127130552D02*
X90360149Y-126940076D01*
X90360149Y-126940076D02*
X90617292Y-126844838D01*
X90617292Y-126844838D02*
X90788720Y-126844838D01*
X90788720Y-126844838D02*
X91045863Y-126940076D01*
X91045863Y-126940076D02*
X91131577Y-127035314D01*
D11*
X88647503Y-122987257D02*
X88647503Y-119987257D01*
X88647503Y-119987257D02*
X89790360Y-119987257D01*
X89790360Y-119987257D02*
X90076075Y-120130114D01*
X90076075Y-120130114D02*
X90218932Y-120272971D01*
X90218932Y-120272971D02*
X90361789Y-120558685D01*
X90361789Y-120558685D02*
X90361789Y-120987257D01*
X90361789Y-120987257D02*
X90218932Y-121272971D01*
X90218932Y-121272971D02*
X90076075Y-121415828D01*
X90076075Y-121415828D02*
X89790360Y-121558685D01*
X89790360Y-121558685D02*
X88647503Y-121558685D01*
X91647503Y-122987257D02*
X91647503Y-119987257D01*
X93076074Y-122987257D02*
X93076074Y-119987257D01*
X93076074Y-119987257D02*
X94790360Y-122987257D01*
X94790360Y-122987257D02*
X94790360Y-119987257D01*
X98218931Y-119987257D02*
X100076074Y-119987257D01*
X100076074Y-119987257D02*
X99076074Y-121130114D01*
X99076074Y-121130114D02*
X99504645Y-121130114D01*
X99504645Y-121130114D02*
X99790360Y-121272971D01*
X99790360Y-121272971D02*
X99933217Y-121415828D01*
X99933217Y-121415828D02*
X100076074Y-121701542D01*
X100076074Y-121701542D02*
X100076074Y-122415828D01*
X100076074Y-122415828D02*
X99933217Y-122701542D01*
X99933217Y-122701542D02*
X99790360Y-122844400D01*
X99790360Y-122844400D02*
X99504645Y-122987257D01*
X99504645Y-122987257D02*
X98647502Y-122987257D01*
X98647502Y-122987257D02*
X98361788Y-122844400D01*
X98361788Y-122844400D02*
X98218931Y-122701542D01*
X88571663Y-115842257D02*
X88571663Y-112842257D01*
X88571663Y-112842257D02*
X89714520Y-112842257D01*
X89714520Y-112842257D02*
X90000235Y-112985114D01*
X90000235Y-112985114D02*
X90143092Y-113127971D01*
X90143092Y-113127971D02*
X90285949Y-113413685D01*
X90285949Y-113413685D02*
X90285949Y-113842257D01*
X90285949Y-113842257D02*
X90143092Y-114127971D01*
X90143092Y-114127971D02*
X90000235Y-114270828D01*
X90000235Y-114270828D02*
X89714520Y-114413685D01*
X89714520Y-114413685D02*
X88571663Y-114413685D01*
X91571663Y-115842257D02*
X91571663Y-112842257D01*
X93000234Y-115842257D02*
X93000234Y-112842257D01*
X93000234Y-112842257D02*
X94714520Y-115842257D01*
X94714520Y-115842257D02*
X94714520Y-112842257D01*
X98285948Y-113127971D02*
X98428805Y-112985114D01*
X98428805Y-112985114D02*
X98714520Y-112842257D01*
X98714520Y-112842257D02*
X99428805Y-112842257D01*
X99428805Y-112842257D02*
X99714520Y-112985114D01*
X99714520Y-112985114D02*
X99857377Y-113127971D01*
X99857377Y-113127971D02*
X100000234Y-113413685D01*
X100000234Y-113413685D02*
X100000234Y-113699400D01*
X100000234Y-113699400D02*
X99857377Y-114127971D01*
X99857377Y-114127971D02*
X98143091Y-115842257D01*
X98143091Y-115842257D02*
X100000234Y-115842257D01*
X89511653Y-100417257D02*
X89511653Y-97417257D01*
X89511653Y-97417257D02*
X90654510Y-97417257D01*
X90654510Y-97417257D02*
X90940225Y-97560114D01*
X90940225Y-97560114D02*
X91083082Y-97702971D01*
X91083082Y-97702971D02*
X91225939Y-97988685D01*
X91225939Y-97988685D02*
X91225939Y-98417257D01*
X91225939Y-98417257D02*
X91083082Y-98702971D01*
X91083082Y-98702971D02*
X90940225Y-98845828D01*
X90940225Y-98845828D02*
X90654510Y-98988685D01*
X90654510Y-98988685D02*
X89511653Y-98988685D01*
X92511653Y-100417257D02*
X92511653Y-97417257D01*
X93940224Y-100417257D02*
X93940224Y-97417257D01*
X93940224Y-97417257D02*
X95654510Y-100417257D01*
X95654510Y-100417257D02*
X95654510Y-97417257D01*
X100940224Y-100417257D02*
X99225938Y-100417257D01*
X100083081Y-100417257D02*
X100083081Y-97417257D01*
X100083081Y-97417257D02*
X99797367Y-97845828D01*
X99797367Y-97845828D02*
X99511652Y-98131542D01*
X99511652Y-98131542D02*
X99225938Y-98274400D01*
X122511653Y-127517257D02*
X122511653Y-124517257D01*
X122511653Y-124517257D02*
X123654510Y-124517257D01*
X123654510Y-124517257D02*
X123940225Y-124660114D01*
X123940225Y-124660114D02*
X124083082Y-124802971D01*
X124083082Y-124802971D02*
X124225939Y-125088685D01*
X124225939Y-125088685D02*
X124225939Y-125517257D01*
X124225939Y-125517257D02*
X124083082Y-125802971D01*
X124083082Y-125802971D02*
X123940225Y-125945828D01*
X123940225Y-125945828D02*
X123654510Y-126088685D01*
X123654510Y-126088685D02*
X122511653Y-126088685D01*
X125511653Y-127517257D02*
X125511653Y-124517257D01*
X126940224Y-127517257D02*
X126940224Y-124517257D01*
X126940224Y-124517257D02*
X128654510Y-127517257D01*
X128654510Y-127517257D02*
X128654510Y-124517257D01*
X132083081Y-124517257D02*
X134083081Y-124517257D01*
X134083081Y-124517257D02*
X132797367Y-127517257D01*
X155811653Y-109017257D02*
X155811653Y-106017257D01*
X155811653Y-106017257D02*
X156954510Y-106017257D01*
X156954510Y-106017257D02*
X157240225Y-106160114D01*
X157240225Y-106160114D02*
X157383082Y-106302971D01*
X157383082Y-106302971D02*
X157525939Y-106588685D01*
X157525939Y-106588685D02*
X157525939Y-107017257D01*
X157525939Y-107017257D02*
X157383082Y-107302971D01*
X157383082Y-107302971D02*
X157240225Y-107445828D01*
X157240225Y-107445828D02*
X156954510Y-107588685D01*
X156954510Y-107588685D02*
X155811653Y-107588685D01*
X158811653Y-109017257D02*
X158811653Y-106017257D01*
X160240224Y-109017257D02*
X160240224Y-106017257D01*
X160240224Y-106017257D02*
X161954510Y-109017257D01*
X161954510Y-109017257D02*
X161954510Y-106017257D01*
X167240224Y-109017257D02*
X165525938Y-109017257D01*
X166383081Y-109017257D02*
X166383081Y-106017257D01*
X166383081Y-106017257D02*
X166097367Y-106445828D01*
X166097367Y-106445828D02*
X165811652Y-106731542D01*
X165811652Y-106731542D02*
X165525938Y-106874400D01*
X168240224Y-106017257D02*
X170097367Y-106017257D01*
X170097367Y-106017257D02*
X169097367Y-107160114D01*
X169097367Y-107160114D02*
X169525938Y-107160114D01*
X169525938Y-107160114D02*
X169811653Y-107302971D01*
X169811653Y-107302971D02*
X169954510Y-107445828D01*
X169954510Y-107445828D02*
X170097367Y-107731542D01*
X170097367Y-107731542D02*
X170097367Y-108445828D01*
X170097367Y-108445828D02*
X169954510Y-108731542D01*
X169954510Y-108731542D02*
X169811653Y-108874400D01*
X169811653Y-108874400D02*
X169525938Y-109017257D01*
X169525938Y-109017257D02*
X168668795Y-109017257D01*
X168668795Y-109017257D02*
X168383081Y-108874400D01*
X168383081Y-108874400D02*
X168240224Y-108731542D01*
X154711653Y-127817257D02*
X154711653Y-124817257D01*
X154711653Y-124817257D02*
X155854510Y-124817257D01*
X155854510Y-124817257D02*
X156140225Y-124960114D01*
X156140225Y-124960114D02*
X156283082Y-125102971D01*
X156283082Y-125102971D02*
X156425939Y-125388685D01*
X156425939Y-125388685D02*
X156425939Y-125817257D01*
X156425939Y-125817257D02*
X156283082Y-126102971D01*
X156283082Y-126102971D02*
X156140225Y-126245828D01*
X156140225Y-126245828D02*
X155854510Y-126388685D01*
X155854510Y-126388685D02*
X154711653Y-126388685D01*
X157711653Y-127817257D02*
X157711653Y-124817257D01*
X159140224Y-127817257D02*
X159140224Y-124817257D01*
X159140224Y-124817257D02*
X160854510Y-127817257D01*
X160854510Y-127817257D02*
X160854510Y-124817257D01*
X166140224Y-127817257D02*
X164425938Y-127817257D01*
X165283081Y-127817257D02*
X165283081Y-124817257D01*
X165283081Y-124817257D02*
X164997367Y-125245828D01*
X164997367Y-125245828D02*
X164711652Y-125531542D01*
X164711652Y-125531542D02*
X164425938Y-125674400D01*
X167997367Y-124817257D02*
X168283081Y-124817257D01*
X168283081Y-124817257D02*
X168568795Y-124960114D01*
X168568795Y-124960114D02*
X168711653Y-125102971D01*
X168711653Y-125102971D02*
X168854510Y-125388685D01*
X168854510Y-125388685D02*
X168997367Y-125960114D01*
X168997367Y-125960114D02*
X168997367Y-126674400D01*
X168997367Y-126674400D02*
X168854510Y-127245828D01*
X168854510Y-127245828D02*
X168711653Y-127531542D01*
X168711653Y-127531542D02*
X168568795Y-127674400D01*
X168568795Y-127674400D02*
X168283081Y-127817257D01*
X168283081Y-127817257D02*
X167997367Y-127817257D01*
X167997367Y-127817257D02*
X167711653Y-127674400D01*
X167711653Y-127674400D02*
X167568795Y-127531542D01*
X167568795Y-127531542D02*
X167425938Y-127245828D01*
X167425938Y-127245828D02*
X167283081Y-126674400D01*
X167283081Y-126674400D02*
X167283081Y-125960114D01*
X167283081Y-125960114D02*
X167425938Y-125388685D01*
X167425938Y-125388685D02*
X167568795Y-125102971D01*
X167568795Y-125102971D02*
X167711653Y-124960114D01*
X167711653Y-124960114D02*
X167997367Y-124817257D01*
X155111653Y-115017257D02*
X155111653Y-112017257D01*
X155111653Y-112017257D02*
X156254510Y-112017257D01*
X156254510Y-112017257D02*
X156540225Y-112160114D01*
X156540225Y-112160114D02*
X156683082Y-112302971D01*
X156683082Y-112302971D02*
X156825939Y-112588685D01*
X156825939Y-112588685D02*
X156825939Y-113017257D01*
X156825939Y-113017257D02*
X156683082Y-113302971D01*
X156683082Y-113302971D02*
X156540225Y-113445828D01*
X156540225Y-113445828D02*
X156254510Y-113588685D01*
X156254510Y-113588685D02*
X155111653Y-113588685D01*
X158111653Y-115017257D02*
X158111653Y-112017257D01*
X159540224Y-115017257D02*
X159540224Y-112017257D01*
X159540224Y-112017257D02*
X161254510Y-115017257D01*
X161254510Y-115017257D02*
X161254510Y-112017257D01*
X166540224Y-115017257D02*
X164825938Y-115017257D01*
X165683081Y-115017257D02*
X165683081Y-112017257D01*
X165683081Y-112017257D02*
X165397367Y-112445828D01*
X165397367Y-112445828D02*
X165111652Y-112731542D01*
X165111652Y-112731542D02*
X164825938Y-112874400D01*
X167683081Y-112302971D02*
X167825938Y-112160114D01*
X167825938Y-112160114D02*
X168111653Y-112017257D01*
X168111653Y-112017257D02*
X168825938Y-112017257D01*
X168825938Y-112017257D02*
X169111653Y-112160114D01*
X169111653Y-112160114D02*
X169254510Y-112302971D01*
X169254510Y-112302971D02*
X169397367Y-112588685D01*
X169397367Y-112588685D02*
X169397367Y-112874400D01*
X169397367Y-112874400D02*
X169254510Y-113302971D01*
X169254510Y-113302971D02*
X167540224Y-115017257D01*
X167540224Y-115017257D02*
X169397367Y-115017257D01*
X156511653Y-122217257D02*
X156511653Y-119217257D01*
X156511653Y-119217257D02*
X157654510Y-119217257D01*
X157654510Y-119217257D02*
X157940225Y-119360114D01*
X157940225Y-119360114D02*
X158083082Y-119502971D01*
X158083082Y-119502971D02*
X158225939Y-119788685D01*
X158225939Y-119788685D02*
X158225939Y-120217257D01*
X158225939Y-120217257D02*
X158083082Y-120502971D01*
X158083082Y-120502971D02*
X157940225Y-120645828D01*
X157940225Y-120645828D02*
X157654510Y-120788685D01*
X157654510Y-120788685D02*
X156511653Y-120788685D01*
X159511653Y-122217257D02*
X159511653Y-119217257D01*
X160940224Y-122217257D02*
X160940224Y-119217257D01*
X160940224Y-119217257D02*
X162654510Y-122217257D01*
X162654510Y-122217257D02*
X162654510Y-119217257D01*
X167940224Y-122217257D02*
X166225938Y-122217257D01*
X167083081Y-122217257D02*
X167083081Y-119217257D01*
X167083081Y-119217257D02*
X166797367Y-119645828D01*
X166797367Y-119645828D02*
X166511652Y-119931542D01*
X166511652Y-119931542D02*
X166225938Y-120074400D01*
X170797367Y-122217257D02*
X169083081Y-122217257D01*
X169940224Y-122217257D02*
X169940224Y-119217257D01*
X169940224Y-119217257D02*
X169654510Y-119645828D01*
X169654510Y-119645828D02*
X169368795Y-119931542D01*
X169368795Y-119931542D02*
X169083081Y-120074400D01*
X105917257Y-128088346D02*
X102917257Y-128088346D01*
X102917257Y-128088346D02*
X102917257Y-126945489D01*
X102917257Y-126945489D02*
X103060114Y-126659774D01*
X103060114Y-126659774D02*
X103202971Y-126516917D01*
X103202971Y-126516917D02*
X103488685Y-126374060D01*
X103488685Y-126374060D02*
X103917257Y-126374060D01*
X103917257Y-126374060D02*
X104202971Y-126516917D01*
X104202971Y-126516917D02*
X104345828Y-126659774D01*
X104345828Y-126659774D02*
X104488685Y-126945489D01*
X104488685Y-126945489D02*
X104488685Y-128088346D01*
X105917257Y-125088346D02*
X102917257Y-125088346D01*
X105917257Y-123659775D02*
X102917257Y-123659775D01*
X102917257Y-123659775D02*
X105917257Y-121945489D01*
X105917257Y-121945489D02*
X102917257Y-121945489D01*
X102917257Y-116802632D02*
X102917257Y-118231204D01*
X102917257Y-118231204D02*
X104345828Y-118374061D01*
X104345828Y-118374061D02*
X104202971Y-118231204D01*
X104202971Y-118231204D02*
X104060114Y-117945490D01*
X104060114Y-117945490D02*
X104060114Y-117231204D01*
X104060114Y-117231204D02*
X104202971Y-116945490D01*
X104202971Y-116945490D02*
X104345828Y-116802632D01*
X104345828Y-116802632D02*
X104631542Y-116659775D01*
X104631542Y-116659775D02*
X105345828Y-116659775D01*
X105345828Y-116659775D02*
X105631542Y-116802632D01*
X105631542Y-116802632D02*
X105774400Y-116945490D01*
X105774400Y-116945490D02*
X105917257Y-117231204D01*
X105917257Y-117231204D02*
X105917257Y-117945490D01*
X105917257Y-117945490D02*
X105774400Y-118231204D01*
X105774400Y-118231204D02*
X105631542Y-118374061D01*
X116817257Y-127888346D02*
X113817257Y-127888346D01*
X113817257Y-127888346D02*
X113817257Y-126745489D01*
X113817257Y-126745489D02*
X113960114Y-126459774D01*
X113960114Y-126459774D02*
X114102971Y-126316917D01*
X114102971Y-126316917D02*
X114388685Y-126174060D01*
X114388685Y-126174060D02*
X114817257Y-126174060D01*
X114817257Y-126174060D02*
X115102971Y-126316917D01*
X115102971Y-126316917D02*
X115245828Y-126459774D01*
X115245828Y-126459774D02*
X115388685Y-126745489D01*
X115388685Y-126745489D02*
X115388685Y-127888346D01*
X116817257Y-124888346D02*
X113817257Y-124888346D01*
X116817257Y-123459775D02*
X113817257Y-123459775D01*
X113817257Y-123459775D02*
X116817257Y-121745489D01*
X116817257Y-121745489D02*
X113817257Y-121745489D01*
X113817257Y-116745490D02*
X113817257Y-117316918D01*
X113817257Y-117316918D02*
X113960114Y-117602632D01*
X113960114Y-117602632D02*
X114102971Y-117745490D01*
X114102971Y-117745490D02*
X114531542Y-118031204D01*
X114531542Y-118031204D02*
X115102971Y-118174061D01*
X115102971Y-118174061D02*
X116245828Y-118174061D01*
X116245828Y-118174061D02*
X116531542Y-118031204D01*
X116531542Y-118031204D02*
X116674400Y-117888347D01*
X116674400Y-117888347D02*
X116817257Y-117602632D01*
X116817257Y-117602632D02*
X116817257Y-117031204D01*
X116817257Y-117031204D02*
X116674400Y-116745490D01*
X116674400Y-116745490D02*
X116531542Y-116602632D01*
X116531542Y-116602632D02*
X116245828Y-116459775D01*
X116245828Y-116459775D02*
X115531542Y-116459775D01*
X115531542Y-116459775D02*
X115245828Y-116602632D01*
X115245828Y-116602632D02*
X115102971Y-116745490D01*
X115102971Y-116745490D02*
X114960114Y-117031204D01*
X114960114Y-117031204D02*
X114960114Y-117602632D01*
X114960114Y-117602632D02*
X115102971Y-117888347D01*
X115102971Y-117888347D02*
X115245828Y-118031204D01*
X115245828Y-118031204D02*
X115531542Y-118174061D01*
X141017257Y-127488346D02*
X138017257Y-127488346D01*
X138017257Y-127488346D02*
X138017257Y-126345489D01*
X138017257Y-126345489D02*
X138160114Y-126059774D01*
X138160114Y-126059774D02*
X138302971Y-125916917D01*
X138302971Y-125916917D02*
X138588685Y-125774060D01*
X138588685Y-125774060D02*
X139017257Y-125774060D01*
X139017257Y-125774060D02*
X139302971Y-125916917D01*
X139302971Y-125916917D02*
X139445828Y-126059774D01*
X139445828Y-126059774D02*
X139588685Y-126345489D01*
X139588685Y-126345489D02*
X139588685Y-127488346D01*
X141017257Y-124488346D02*
X138017257Y-124488346D01*
X141017257Y-123059775D02*
X138017257Y-123059775D01*
X138017257Y-123059775D02*
X141017257Y-121345489D01*
X141017257Y-121345489D02*
X138017257Y-121345489D01*
X139302971Y-117202632D02*
X139160114Y-117488347D01*
X139160114Y-117488347D02*
X139017257Y-117631204D01*
X139017257Y-117631204D02*
X138731542Y-117774061D01*
X138731542Y-117774061D02*
X138588685Y-117774061D01*
X138588685Y-117774061D02*
X138302971Y-117631204D01*
X138302971Y-117631204D02*
X138160114Y-117488347D01*
X138160114Y-117488347D02*
X138017257Y-117202632D01*
X138017257Y-117202632D02*
X138017257Y-116631204D01*
X138017257Y-116631204D02*
X138160114Y-116345490D01*
X138160114Y-116345490D02*
X138302971Y-116202632D01*
X138302971Y-116202632D02*
X138588685Y-116059775D01*
X138588685Y-116059775D02*
X138731542Y-116059775D01*
X138731542Y-116059775D02*
X139017257Y-116202632D01*
X139017257Y-116202632D02*
X139160114Y-116345490D01*
X139160114Y-116345490D02*
X139302971Y-116631204D01*
X139302971Y-116631204D02*
X139302971Y-117202632D01*
X139302971Y-117202632D02*
X139445828Y-117488347D01*
X139445828Y-117488347D02*
X139588685Y-117631204D01*
X139588685Y-117631204D02*
X139874400Y-117774061D01*
X139874400Y-117774061D02*
X140445828Y-117774061D01*
X140445828Y-117774061D02*
X140731542Y-117631204D01*
X140731542Y-117631204D02*
X140874400Y-117488347D01*
X140874400Y-117488347D02*
X141017257Y-117202632D01*
X141017257Y-117202632D02*
X141017257Y-116631204D01*
X141017257Y-116631204D02*
X140874400Y-116345490D01*
X140874400Y-116345490D02*
X140731542Y-116202632D01*
X140731542Y-116202632D02*
X140445828Y-116059775D01*
X140445828Y-116059775D02*
X139874400Y-116059775D01*
X139874400Y-116059775D02*
X139588685Y-116202632D01*
X139588685Y-116202632D02*
X139445828Y-116345490D01*
X139445828Y-116345490D02*
X139302971Y-116631204D01*
X152617257Y-127088346D02*
X149617257Y-127088346D01*
X149617257Y-127088346D02*
X149617257Y-125945489D01*
X149617257Y-125945489D02*
X149760114Y-125659774D01*
X149760114Y-125659774D02*
X149902971Y-125516917D01*
X149902971Y-125516917D02*
X150188685Y-125374060D01*
X150188685Y-125374060D02*
X150617257Y-125374060D01*
X150617257Y-125374060D02*
X150902971Y-125516917D01*
X150902971Y-125516917D02*
X151045828Y-125659774D01*
X151045828Y-125659774D02*
X151188685Y-125945489D01*
X151188685Y-125945489D02*
X151188685Y-127088346D01*
X152617257Y-124088346D02*
X149617257Y-124088346D01*
X152617257Y-122659775D02*
X149617257Y-122659775D01*
X149617257Y-122659775D02*
X152617257Y-120945489D01*
X152617257Y-120945489D02*
X149617257Y-120945489D01*
X152617257Y-117088347D02*
X152617257Y-116516918D01*
X152617257Y-116516918D02*
X152474400Y-116231204D01*
X152474400Y-116231204D02*
X152331542Y-116088347D01*
X152331542Y-116088347D02*
X151902971Y-115802632D01*
X151902971Y-115802632D02*
X151331542Y-115659775D01*
X151331542Y-115659775D02*
X150188685Y-115659775D01*
X150188685Y-115659775D02*
X149902971Y-115802632D01*
X149902971Y-115802632D02*
X149760114Y-115945490D01*
X149760114Y-115945490D02*
X149617257Y-116231204D01*
X149617257Y-116231204D02*
X149617257Y-116802632D01*
X149617257Y-116802632D02*
X149760114Y-117088347D01*
X149760114Y-117088347D02*
X149902971Y-117231204D01*
X149902971Y-117231204D02*
X150188685Y-117374061D01*
X150188685Y-117374061D02*
X150902971Y-117374061D01*
X150902971Y-117374061D02*
X151188685Y-117231204D01*
X151188685Y-117231204D02*
X151331542Y-117088347D01*
X151331542Y-117088347D02*
X151474400Y-116802632D01*
X151474400Y-116802632D02*
X151474400Y-116231204D01*
X151474400Y-116231204D02*
X151331542Y-115945490D01*
X151331542Y-115945490D02*
X151188685Y-115802632D01*
X151188685Y-115802632D02*
X150902971Y-115659775D01*
D13*
X134277819Y-117961904D02*
X135087342Y-117961904D01*
X135087342Y-117961904D02*
X135182580Y-117914285D01*
X135182580Y-117914285D02*
X135230200Y-117866666D01*
X135230200Y-117866666D02*
X135277819Y-117771428D01*
X135277819Y-117771428D02*
X135277819Y-117580952D01*
X135277819Y-117580952D02*
X135230200Y-117485714D01*
X135230200Y-117485714D02*
X135182580Y-117438095D01*
X135182580Y-117438095D02*
X135087342Y-117390476D01*
X135087342Y-117390476D02*
X134277819Y-117390476D01*
X134277819Y-117009523D02*
X134277819Y-116342857D01*
X134277819Y-116342857D02*
X135277819Y-116771428D01*
X97404819Y-128361904D02*
X98214342Y-128361904D01*
X98214342Y-128361904D02*
X98309580Y-128314285D01*
X98309580Y-128314285D02*
X98357200Y-128266666D01*
X98357200Y-128266666D02*
X98404819Y-128171428D01*
X98404819Y-128171428D02*
X98404819Y-127980952D01*
X98404819Y-127980952D02*
X98357200Y-127885714D01*
X98357200Y-127885714D02*
X98309580Y-127838095D01*
X98309580Y-127838095D02*
X98214342Y-127790476D01*
X98214342Y-127790476D02*
X97404819Y-127790476D01*
X97404819Y-126885714D02*
X97404819Y-127076190D01*
X97404819Y-127076190D02*
X97452438Y-127171428D01*
X97452438Y-127171428D02*
X97500057Y-127219047D01*
X97500057Y-127219047D02*
X97642914Y-127314285D01*
X97642914Y-127314285D02*
X97833390Y-127361904D01*
X97833390Y-127361904D02*
X98214342Y-127361904D01*
X98214342Y-127361904D02*
X98309580Y-127314285D01*
X98309580Y-127314285D02*
X98357200Y-127266666D01*
X98357200Y-127266666D02*
X98404819Y-127171428D01*
X98404819Y-127171428D02*
X98404819Y-126980952D01*
X98404819Y-126980952D02*
X98357200Y-126885714D01*
X98357200Y-126885714D02*
X98309580Y-126838095D01*
X98309580Y-126838095D02*
X98214342Y-126790476D01*
X98214342Y-126790476D02*
X97976247Y-126790476D01*
X97976247Y-126790476D02*
X97881009Y-126838095D01*
X97881009Y-126838095D02*
X97833390Y-126885714D01*
X97833390Y-126885714D02*
X97785771Y-126980952D01*
X97785771Y-126980952D02*
X97785771Y-127171428D01*
X97785771Y-127171428D02*
X97833390Y-127266666D01*
X97833390Y-127266666D02*
X97881009Y-127314285D01*
X97881009Y-127314285D02*
X97976247Y-127361904D01*
X149238095Y-102554819D02*
X149238095Y-103364342D01*
X149238095Y-103364342D02*
X149285714Y-103459580D01*
X149285714Y-103459580D02*
X149333333Y-103507200D01*
X149333333Y-103507200D02*
X149428571Y-103554819D01*
X149428571Y-103554819D02*
X149619047Y-103554819D01*
X149619047Y-103554819D02*
X149714285Y-103507200D01*
X149714285Y-103507200D02*
X149761904Y-103459580D01*
X149761904Y-103459580D02*
X149809523Y-103364342D01*
X149809523Y-103364342D02*
X149809523Y-102554819D01*
X150809523Y-103554819D02*
X150238095Y-103554819D01*
X150523809Y-103554819D02*
X150523809Y-102554819D01*
X150523809Y-102554819D02*
X150428571Y-102697676D01*
X150428571Y-102697676D02*
X150333333Y-102792914D01*
X150333333Y-102792914D02*
X150238095Y-102840533D01*
X85609819Y-101333333D02*
X86324104Y-101333333D01*
X86324104Y-101333333D02*
X86466961Y-101380952D01*
X86466961Y-101380952D02*
X86562200Y-101476190D01*
X86562200Y-101476190D02*
X86609819Y-101619047D01*
X86609819Y-101619047D02*
X86609819Y-101714285D01*
X85943152Y-100428571D02*
X86609819Y-100428571D01*
X85562200Y-100666666D02*
X86276485Y-100904761D01*
X86276485Y-100904761D02*
X86276485Y-100285714D01*
X150066666Y-96854819D02*
X150066666Y-97569104D01*
X150066666Y-97569104D02*
X150019047Y-97711961D01*
X150019047Y-97711961D02*
X149923809Y-97807200D01*
X149923809Y-97807200D02*
X149780952Y-97854819D01*
X149780952Y-97854819D02*
X149685714Y-97854819D01*
X150447619Y-96854819D02*
X151066666Y-96854819D01*
X151066666Y-96854819D02*
X150733333Y-97235771D01*
X150733333Y-97235771D02*
X150876190Y-97235771D01*
X150876190Y-97235771D02*
X150971428Y-97283390D01*
X150971428Y-97283390D02*
X151019047Y-97331009D01*
X151019047Y-97331009D02*
X151066666Y-97426247D01*
X151066666Y-97426247D02*
X151066666Y-97664342D01*
X151066666Y-97664342D02*
X151019047Y-97759580D01*
X151019047Y-97759580D02*
X150971428Y-97807200D01*
X150971428Y-97807200D02*
X150876190Y-97854819D01*
X150876190Y-97854819D02*
X150590476Y-97854819D01*
X150590476Y-97854819D02*
X150495238Y-97807200D01*
X150495238Y-97807200D02*
X150447619Y-97759580D01*
%TO.C,D9*%
X171330000Y-111910000D02*
X169870000Y-111910000D01*
X169870000Y-111910000D02*
X169870000Y-114200000D01*
X171330000Y-114200000D02*
X171330000Y-111910000D01*
%TO.C,D5*%
X165890000Y-130130000D02*
X165890000Y-128670000D01*
X165890000Y-128670000D02*
X163600000Y-128670000D01*
X163600000Y-130130000D02*
X165890000Y-130130000D01*
%TO.C,D11*%
X120700000Y-130530000D02*
X120700000Y-129070000D01*
X120700000Y-129070000D02*
X118410000Y-129070000D01*
X118410000Y-130530000D02*
X120700000Y-130530000D01*
%TO.C,D6*%
X154080000Y-130130000D02*
X154080000Y-128670000D01*
X154080000Y-128670000D02*
X151790000Y-128670000D01*
X151790000Y-130130000D02*
X154080000Y-130130000D01*
%TO.C,D15*%
X87230000Y-98890000D02*
X87230000Y-96600000D01*
X85770000Y-96600000D02*
X85770000Y-98890000D01*
X87230000Y-96600000D02*
X85770000Y-96600000D01*
%TO.C,D10*%
X170070000Y-127480000D02*
X171530000Y-127480000D01*
X171530000Y-127480000D02*
X171530000Y-125190000D01*
X170070000Y-125190000D02*
X170070000Y-127480000D01*
%TO.C,D12*%
X102400000Y-128770000D02*
X102400000Y-130230000D01*
X102400000Y-130230000D02*
X104690000Y-130230000D01*
X104690000Y-128770000D02*
X102400000Y-128770000D01*
%TO.C,D13*%
X87030000Y-120400000D02*
X85570000Y-120400000D01*
X85570000Y-120400000D02*
X85570000Y-122690000D01*
X87030000Y-122690000D02*
X87030000Y-120400000D01*
%TO.C,D4*%
X142100000Y-129930000D02*
X142100000Y-128470000D01*
X142100000Y-128470000D02*
X139810000Y-128470000D01*
X139810000Y-129930000D02*
X142100000Y-129930000D01*
%TO.C,D14*%
X87330000Y-111720000D02*
X85870000Y-111720000D01*
X85870000Y-111720000D02*
X85870000Y-114010000D01*
X87330000Y-114010000D02*
X87330000Y-111720000D01*
%TO.C,D3*%
X130480000Y-130130000D02*
X130480000Y-128670000D01*
X130480000Y-128670000D02*
X128190000Y-128670000D01*
X128190000Y-130130000D02*
X130480000Y-130130000D01*
%TO.C,D8*%
X170500000Y-105230000D02*
X170500000Y-103770000D01*
X170500000Y-103770000D02*
X168210000Y-103770000D01*
X168210000Y-105230000D02*
X170500000Y-105230000D01*
%TO.C,U7*%
D15*
X129700000Y-113310000D02*
X129700000Y-121140000D01*
X129550000Y-113310000D02*
X129700000Y-113310000D01*
X128280000Y-113310000D02*
X129550000Y-113310000D01*
X126050000Y-113310000D02*
X127320000Y-113310000D01*
X126050000Y-113310000D02*
X125900000Y-113310000D01*
X125900000Y-113310000D02*
X125900000Y-121140000D01*
X129700000Y-121140000D02*
X125900000Y-121140000D01*
X128260000Y-113310000D02*
G75*
G02*
X127320000Y-113310000I-470000J0D01*
G01*
D16*
X124640000Y-113300000D02*
G75*
G02*
X124580000Y-113300000I-30000J0D01*
G01*
X124580000Y-113300000D02*
G75*
G02*
X124640000Y-113300000I30000J0D01*
G01*
D17*
%TO.C,U6*%
D15*
X94550000Y-126700000D02*
X94550000Y-128500000D01*
X91450000Y-126700000D02*
X91450000Y-128500000D01*
D16*
X91580000Y-129000000D02*
G75*
G02*
X91520000Y-129000000I-30000J0D01*
G01*
X91520000Y-129000000D02*
G75*
G02*
X91580000Y-129000000I30000J0D01*
G01*
D15*
X91470000Y-129000000D02*
G75*
G02*
X91230000Y-129000000I-120000J0D01*
G01*
X91230000Y-129000000D02*
G75*
G02*
X91470000Y-129000000I120000J0D01*
G01*
%TO.C,D2*%
D13*
X167270000Y-96480000D02*
X168730000Y-96480000D01*
X168730000Y-96480000D02*
X168730000Y-94190000D01*
X167270000Y-94190000D02*
X167270000Y-96480000D01*
%TO.C,U1*%
D18*
X140265000Y-104200000D02*
X140265000Y-102000000D01*
X140265000Y-104200000D02*
X140265000Y-106400000D01*
X148335000Y-104200000D02*
X148335000Y-102000000D01*
X148335000Y-104200000D02*
X148335000Y-106400000D01*
X147875000Y-100340000D02*
X147635000Y-100010000D01*
X148115000Y-100010000D01*
X147875000Y-100340000D01*
G36*
X147875000Y-100340000D02*
G01*
X147635000Y-100010000D01*
X148115000Y-100010000D01*
X147875000Y-100340000D01*
G37*
%TO.C,J6*%
X73135000Y-119840000D02*
X84855000Y-119840000D01*
X73135000Y-124900000D02*
X73135000Y-119840000D01*
X73135000Y-124900000D02*
X73135000Y-129960000D01*
X73135000Y-129960000D02*
X84855000Y-129960000D01*
X73745000Y-122150000D02*
X73745000Y-122650000D01*
X73745000Y-122650000D02*
X79245000Y-122650000D01*
X73745000Y-124650000D02*
X73745000Y-125150000D01*
X73745000Y-125150000D02*
X79245000Y-125150000D01*
X73745000Y-127150000D02*
X73745000Y-127650000D01*
X73745000Y-127650000D02*
X79245000Y-127650000D01*
X79245000Y-122150000D02*
X73745000Y-122150000D01*
X79245000Y-122650000D02*
X79245000Y-122150000D01*
X79245000Y-124650000D02*
X73745000Y-124650000D01*
X79245000Y-125150000D02*
X79245000Y-124650000D01*
X79245000Y-127150000D02*
X73745000Y-127150000D01*
X79245000Y-127650000D02*
X79245000Y-127150000D01*
X80355000Y-121260000D02*
X80355000Y-124900000D01*
X80355000Y-128540000D02*
X80355000Y-124900000D01*
X83945000Y-122400000D02*
X84545000Y-122100000D01*
X84545000Y-122100000D02*
X84545000Y-122700000D01*
X84545000Y-122700000D02*
X83945000Y-122400000D01*
X84855000Y-119840000D02*
X84855000Y-121260000D01*
X84855000Y-121260000D02*
X80355000Y-121260000D01*
X84855000Y-128540000D02*
X80355000Y-128540000D01*
X84855000Y-129960000D02*
X84855000Y-128540000D01*
%TO.C,J14*%
X172145000Y-119840000D02*
X172145000Y-121260000D01*
X172145000Y-121260000D02*
X176645000Y-121260000D01*
X172145000Y-128540000D02*
X176645000Y-128540000D01*
X172145000Y-129960000D02*
X172145000Y-128540000D01*
X172455000Y-127100000D02*
X173055000Y-127400000D01*
X172455000Y-127700000D02*
X172455000Y-127100000D01*
X173055000Y-127400000D02*
X172455000Y-127700000D01*
X176645000Y-121260000D02*
X176645000Y-124900000D01*
X176645000Y-128540000D02*
X176645000Y-124900000D01*
X177755000Y-122150000D02*
X177755000Y-122650000D01*
X177755000Y-122650000D02*
X183255000Y-122650000D01*
X177755000Y-124650000D02*
X177755000Y-125150000D01*
X177755000Y-125150000D02*
X183255000Y-125150000D01*
X177755000Y-127150000D02*
X177755000Y-127650000D01*
X177755000Y-127650000D02*
X183255000Y-127650000D01*
X183255000Y-122150000D02*
X177755000Y-122150000D01*
X183255000Y-122650000D02*
X183255000Y-122150000D01*
X183255000Y-124650000D02*
X177755000Y-124650000D01*
X183255000Y-125150000D02*
X183255000Y-124650000D01*
X183255000Y-127150000D02*
X177755000Y-127150000D01*
X183255000Y-127650000D02*
X183255000Y-127150000D01*
X183865000Y-119840000D02*
X172145000Y-119840000D01*
X183865000Y-124900000D02*
X183865000Y-119840000D01*
X183865000Y-124900000D02*
X183865000Y-129960000D01*
X183865000Y-129960000D02*
X172145000Y-129960000D01*
%TO.C,J11*%
X135090000Y-131145000D02*
X136510000Y-131145000D01*
X135090000Y-142865000D02*
X135090000Y-131145000D01*
X136510000Y-131145000D02*
X136510000Y-135645000D01*
X136510000Y-135645000D02*
X140150000Y-135645000D01*
X137350000Y-131455000D02*
X137950000Y-131455000D01*
X137400000Y-136755000D02*
X137400000Y-142255000D01*
X137400000Y-142255000D02*
X137900000Y-142255000D01*
X137650000Y-132055000D02*
X137350000Y-131455000D01*
X137900000Y-136755000D02*
X137400000Y-136755000D01*
X137900000Y-142255000D02*
X137900000Y-136755000D01*
X137950000Y-131455000D02*
X137650000Y-132055000D01*
X139900000Y-136755000D02*
X139900000Y-142255000D01*
X139900000Y-142255000D02*
X140400000Y-142255000D01*
X140150000Y-142865000D02*
X135090000Y-142865000D01*
X140150000Y-142865000D02*
X145210000Y-142865000D01*
X140400000Y-136755000D02*
X139900000Y-136755000D01*
X140400000Y-142255000D02*
X140400000Y-136755000D01*
X142400000Y-136755000D02*
X142400000Y-142255000D01*
X142400000Y-142255000D02*
X142900000Y-142255000D01*
X142900000Y-136755000D02*
X142400000Y-136755000D01*
X142900000Y-142255000D02*
X142900000Y-136755000D01*
X143790000Y-131145000D02*
X143790000Y-135645000D01*
X143790000Y-135645000D02*
X140150000Y-135645000D01*
X145210000Y-131145000D02*
X143790000Y-131145000D01*
X145210000Y-142865000D02*
X145210000Y-131145000D01*
%TO.C,J4*%
X73335000Y-95940000D02*
X85055000Y-95940000D01*
X73335000Y-101000000D02*
X73335000Y-95940000D01*
X73335000Y-101000000D02*
X73335000Y-106060000D01*
X73335000Y-106060000D02*
X85055000Y-106060000D01*
X73945000Y-98250000D02*
X73945000Y-98750000D01*
X73945000Y-98750000D02*
X79445000Y-98750000D01*
X73945000Y-100750000D02*
X73945000Y-101250000D01*
X73945000Y-101250000D02*
X79445000Y-101250000D01*
X73945000Y-103250000D02*
X73945000Y-103750000D01*
X73945000Y-103750000D02*
X79445000Y-103750000D01*
X79445000Y-98250000D02*
X73945000Y-98250000D01*
X79445000Y-98750000D02*
X79445000Y-98250000D01*
X79445000Y-100750000D02*
X73945000Y-100750000D01*
X79445000Y-101250000D02*
X79445000Y-100750000D01*
X79445000Y-103250000D02*
X73945000Y-103250000D01*
X79445000Y-103750000D02*
X79445000Y-103250000D01*
X80555000Y-97360000D02*
X80555000Y-101000000D01*
X80555000Y-104640000D02*
X80555000Y-101000000D01*
X84145000Y-98500000D02*
X84745000Y-98200000D01*
X84745000Y-98200000D02*
X84745000Y-98800000D01*
X84745000Y-98800000D02*
X84145000Y-98500000D01*
X85055000Y-95940000D02*
X85055000Y-97360000D01*
X85055000Y-97360000D02*
X80555000Y-97360000D01*
X85055000Y-104640000D02*
X80555000Y-104640000D01*
X85055000Y-106060000D02*
X85055000Y-104640000D01*
%TO.C,J2*%
X107620000Y-92958272D02*
X108190000Y-92958272D01*
X107620000Y-98158272D02*
X107620000Y-92958272D01*
X107620000Y-98158272D02*
X108190000Y-98158272D01*
X108190000Y-92958272D02*
X108190000Y-91598272D01*
X109710000Y-92958272D02*
X110730000Y-92958272D01*
X109710000Y-98158272D02*
X110730000Y-98158272D01*
X112250000Y-92958272D02*
X113270000Y-92958272D01*
X112250000Y-98158272D02*
X113270000Y-98158272D01*
X114790000Y-92958272D02*
X115810000Y-92958272D01*
X114790000Y-98158272D02*
X115810000Y-98158272D01*
X117330000Y-92958272D02*
X118350000Y-92958272D01*
X117330000Y-98158272D02*
X118350000Y-98158272D01*
X119870000Y-92958272D02*
X120890000Y-92958272D01*
X119870000Y-98158272D02*
X120890000Y-98158272D01*
X122410000Y-92958272D02*
X123430000Y-92958272D01*
X122410000Y-98158272D02*
X123430000Y-98158272D01*
X124950000Y-92958272D02*
X125970000Y-92958272D01*
X124950000Y-98158272D02*
X125970000Y-98158272D01*
X127490000Y-92958272D02*
X128510000Y-92958272D01*
X127490000Y-98158272D02*
X128510000Y-98158272D01*
X130030000Y-92958272D02*
X131050000Y-92958272D01*
X130030000Y-98158272D02*
X131050000Y-98158272D01*
X132570000Y-92958272D02*
X133590000Y-92958272D01*
X132570000Y-98158272D02*
X133590000Y-98158272D01*
X135110000Y-92958272D02*
X136130000Y-92958272D01*
X135110000Y-98158272D02*
X136130000Y-98158272D01*
X137650000Y-92958272D02*
X138670000Y-92958272D01*
X137650000Y-98158272D02*
X138670000Y-98158272D01*
X140190000Y-92958272D02*
X141210000Y-92958272D01*
X140190000Y-98158272D02*
X141210000Y-98158272D01*
X142730000Y-92958272D02*
X143750000Y-92958272D01*
X142730000Y-98158272D02*
X143750000Y-98158272D01*
X145270000Y-92958272D02*
X146290000Y-92958272D01*
X145270000Y-98158272D02*
X146290000Y-98158272D01*
X147810000Y-92958272D02*
X148380000Y-92958272D01*
X147810000Y-98158272D02*
X148380000Y-98158272D01*
X148380000Y-98158272D02*
X148380000Y-92958272D01*
%TO.C,J3*%
X149790000Y-101380000D02*
X149790000Y-100000000D01*
X151170000Y-101380000D02*
X149790000Y-101380000D01*
X152440000Y-98620000D02*
X160170000Y-98620000D01*
X152440000Y-101380000D02*
X152440000Y-98620000D01*
X152440000Y-101380000D02*
X160170000Y-101380000D01*
X160170000Y-101380000D02*
X160170000Y-98620000D01*
%TO.C,U2*%
D13*
X164090000Y-98250000D02*
X164090000Y-98340000D01*
X164090000Y-98250000D02*
X167910000Y-98250000D01*
X164090000Y-103250000D02*
X164090000Y-103160000D01*
X167910000Y-98250000D02*
X167910000Y-98340000D01*
X167910000Y-103250000D02*
X164090000Y-103250000D01*
X167910000Y-103250000D02*
X167910000Y-103160000D01*
X168280000Y-103250000D02*
G75*
G02*
X168220000Y-103250000I-30000J0D01*
G01*
X168220000Y-103250000D02*
G75*
G02*
X168280000Y-103250000I30000J0D01*
G01*
%TO.C,J13*%
D18*
X158990000Y-131145000D02*
X160410000Y-131145000D01*
X158990000Y-142865000D02*
X158990000Y-131145000D01*
X160410000Y-131145000D02*
X160410000Y-135645000D01*
X160410000Y-135645000D02*
X164050000Y-135645000D01*
X161250000Y-131455000D02*
X161850000Y-131455000D01*
X161300000Y-136755000D02*
X161300000Y-142255000D01*
X161300000Y-142255000D02*
X161800000Y-142255000D01*
X161550000Y-132055000D02*
X161250000Y-131455000D01*
X161800000Y-136755000D02*
X161300000Y-136755000D01*
X161800000Y-142255000D02*
X161800000Y-136755000D01*
X161850000Y-131455000D02*
X161550000Y-132055000D01*
X163800000Y-136755000D02*
X163800000Y-142255000D01*
X163800000Y-142255000D02*
X164300000Y-142255000D01*
X164050000Y-142865000D02*
X158990000Y-142865000D01*
X164050000Y-142865000D02*
X169110000Y-142865000D01*
X164300000Y-136755000D02*
X163800000Y-136755000D01*
X164300000Y-142255000D02*
X164300000Y-136755000D01*
X166300000Y-136755000D02*
X166300000Y-142255000D01*
X166300000Y-142255000D02*
X166800000Y-142255000D01*
X166800000Y-136755000D02*
X166300000Y-136755000D01*
X166800000Y-142255000D02*
X166800000Y-136755000D01*
X167690000Y-131145000D02*
X167690000Y-135645000D01*
X167690000Y-135645000D02*
X164050000Y-135645000D01*
X169110000Y-131145000D02*
X167690000Y-131145000D01*
X169110000Y-142865000D02*
X169110000Y-131145000D01*
%TO.C,J15*%
X172145000Y-107890000D02*
X172145000Y-109310000D01*
X172145000Y-109310000D02*
X176645000Y-109310000D01*
X172145000Y-116590000D02*
X176645000Y-116590000D01*
X172145000Y-118010000D02*
X172145000Y-116590000D01*
X172455000Y-115150000D02*
X173055000Y-115450000D01*
X172455000Y-115750000D02*
X172455000Y-115150000D01*
X173055000Y-115450000D02*
X172455000Y-115750000D01*
X176645000Y-109310000D02*
X176645000Y-112950000D01*
X176645000Y-116590000D02*
X176645000Y-112950000D01*
X177755000Y-110200000D02*
X177755000Y-110700000D01*
X177755000Y-110700000D02*
X183255000Y-110700000D01*
X177755000Y-112700000D02*
X177755000Y-113200000D01*
X177755000Y-113200000D02*
X183255000Y-113200000D01*
X177755000Y-115200000D02*
X177755000Y-115700000D01*
X177755000Y-115700000D02*
X183255000Y-115700000D01*
X183255000Y-110200000D02*
X177755000Y-110200000D01*
X183255000Y-110700000D02*
X183255000Y-110200000D01*
X183255000Y-112700000D02*
X177755000Y-112700000D01*
X183255000Y-113200000D02*
X183255000Y-112700000D01*
X183255000Y-115200000D02*
X177755000Y-115200000D01*
X183255000Y-115700000D02*
X183255000Y-115200000D01*
X183865000Y-107890000D02*
X172145000Y-107890000D01*
X183865000Y-112950000D02*
X183865000Y-107890000D01*
X183865000Y-112950000D02*
X183865000Y-118010000D01*
X183865000Y-118010000D02*
X172145000Y-118010000D01*
%TO.C,U3*%
D13*
X101430000Y-106670000D02*
X104370000Y-106670000D01*
X101430000Y-113330000D02*
X101430000Y-106670000D01*
X104370000Y-106670000D02*
X104370000Y-113330000D01*
X104370000Y-113330000D02*
X101430000Y-113330000D01*
X104780000Y-113000000D02*
G75*
G02*
X104720000Y-113000000I-30000J0D01*
G01*
X104720000Y-113000000D02*
G75*
G02*
X104780000Y-113000000I30000J0D01*
G01*
%TO.C,J12*%
D18*
X147040000Y-131145000D02*
X148460000Y-131145000D01*
X147040000Y-142865000D02*
X147040000Y-131145000D01*
X148460000Y-131145000D02*
X148460000Y-135645000D01*
X148460000Y-135645000D02*
X152100000Y-135645000D01*
X149300000Y-131455000D02*
X149900000Y-131455000D01*
X149350000Y-136755000D02*
X149350000Y-142255000D01*
X149350000Y-142255000D02*
X149850000Y-142255000D01*
X149600000Y-132055000D02*
X149300000Y-131455000D01*
X149850000Y-136755000D02*
X149350000Y-136755000D01*
X149850000Y-142255000D02*
X149850000Y-136755000D01*
X149900000Y-131455000D02*
X149600000Y-132055000D01*
X151850000Y-136755000D02*
X151850000Y-142255000D01*
X151850000Y-142255000D02*
X152350000Y-142255000D01*
X152100000Y-142865000D02*
X147040000Y-142865000D01*
X152100000Y-142865000D02*
X157160000Y-142865000D01*
X152350000Y-136755000D02*
X151850000Y-136755000D01*
X152350000Y-142255000D02*
X152350000Y-136755000D01*
X154350000Y-136755000D02*
X154350000Y-142255000D01*
X154350000Y-142255000D02*
X154850000Y-142255000D01*
X154850000Y-136755000D02*
X154350000Y-136755000D01*
X154850000Y-142255000D02*
X154850000Y-136755000D01*
X155740000Y-131145000D02*
X155740000Y-135645000D01*
X155740000Y-135645000D02*
X152100000Y-135645000D01*
X157160000Y-131145000D02*
X155740000Y-131145000D01*
X157160000Y-142865000D02*
X157160000Y-131145000D01*
%TO.C,J7*%
X86990000Y-131145000D02*
X88410000Y-131145000D01*
X86990000Y-142865000D02*
X86990000Y-131145000D01*
X88410000Y-131145000D02*
X88410000Y-135645000D01*
X88410000Y-135645000D02*
X92050000Y-135645000D01*
X89250000Y-131455000D02*
X89850000Y-131455000D01*
X89300000Y-136755000D02*
X89300000Y-142255000D01*
X89300000Y-142255000D02*
X89800000Y-142255000D01*
X89550000Y-132055000D02*
X89250000Y-131455000D01*
X89800000Y-136755000D02*
X89300000Y-136755000D01*
X89800000Y-142255000D02*
X89800000Y-136755000D01*
X89850000Y-131455000D02*
X89550000Y-132055000D01*
X91800000Y-136755000D02*
X91800000Y-142255000D01*
X91800000Y-142255000D02*
X92300000Y-142255000D01*
X92050000Y-142865000D02*
X86990000Y-142865000D01*
X92050000Y-142865000D02*
X97110000Y-142865000D01*
X92300000Y-136755000D02*
X91800000Y-136755000D01*
X92300000Y-142255000D02*
X92300000Y-136755000D01*
X94300000Y-136755000D02*
X94300000Y-142255000D01*
X94300000Y-142255000D02*
X94800000Y-142255000D01*
X94800000Y-136755000D02*
X94300000Y-136755000D01*
X94800000Y-142255000D02*
X94800000Y-136755000D01*
X95690000Y-131145000D02*
X95690000Y-135645000D01*
X95690000Y-135645000D02*
X92050000Y-135645000D01*
X97110000Y-131145000D02*
X95690000Y-131145000D01*
X97110000Y-142865000D02*
X97110000Y-131145000D01*
%TO.C,J9*%
X111190000Y-131145000D02*
X112610000Y-131145000D01*
X111190000Y-142865000D02*
X111190000Y-131145000D01*
X112610000Y-131145000D02*
X112610000Y-135645000D01*
X112610000Y-135645000D02*
X116250000Y-135645000D01*
X113450000Y-131455000D02*
X114050000Y-131455000D01*
X113500000Y-136755000D02*
X113500000Y-142255000D01*
X113500000Y-142255000D02*
X114000000Y-142255000D01*
X113750000Y-132055000D02*
X113450000Y-131455000D01*
X114000000Y-136755000D02*
X113500000Y-136755000D01*
X114000000Y-142255000D02*
X114000000Y-136755000D01*
X114050000Y-131455000D02*
X113750000Y-132055000D01*
X116000000Y-136755000D02*
X116000000Y-142255000D01*
X116000000Y-142255000D02*
X116500000Y-142255000D01*
X116250000Y-142865000D02*
X111190000Y-142865000D01*
X116250000Y-142865000D02*
X121310000Y-142865000D01*
X116500000Y-136755000D02*
X116000000Y-136755000D01*
X116500000Y-142255000D02*
X116500000Y-136755000D01*
X118500000Y-136755000D02*
X118500000Y-142255000D01*
X118500000Y-142255000D02*
X119000000Y-142255000D01*
X119000000Y-136755000D02*
X118500000Y-136755000D01*
X119000000Y-142255000D02*
X119000000Y-136755000D01*
X119890000Y-131145000D02*
X119890000Y-135645000D01*
X119890000Y-135645000D02*
X116250000Y-135645000D01*
X121310000Y-131145000D02*
X119890000Y-131145000D01*
X121310000Y-142865000D02*
X121310000Y-131145000D01*
%TO.C,J10*%
X123140000Y-131145000D02*
X124560000Y-131145000D01*
X123140000Y-142865000D02*
X123140000Y-131145000D01*
X124560000Y-131145000D02*
X124560000Y-135645000D01*
X124560000Y-135645000D02*
X128200000Y-135645000D01*
X125400000Y-131455000D02*
X126000000Y-131455000D01*
X125450000Y-136755000D02*
X125450000Y-142255000D01*
X125450000Y-142255000D02*
X125950000Y-142255000D01*
X125700000Y-132055000D02*
X125400000Y-131455000D01*
X125950000Y-136755000D02*
X125450000Y-136755000D01*
X125950000Y-142255000D02*
X125950000Y-136755000D01*
X126000000Y-131455000D02*
X125700000Y-132055000D01*
X127950000Y-136755000D02*
X127950000Y-142255000D01*
X127950000Y-142255000D02*
X128450000Y-142255000D01*
X128200000Y-142865000D02*
X123140000Y-142865000D01*
X128200000Y-142865000D02*
X133260000Y-142865000D01*
X128450000Y-136755000D02*
X127950000Y-136755000D01*
X128450000Y-142255000D02*
X128450000Y-136755000D01*
X130450000Y-136755000D02*
X130450000Y-142255000D01*
X130450000Y-142255000D02*
X130950000Y-142255000D01*
X130950000Y-136755000D02*
X130450000Y-136755000D01*
X130950000Y-142255000D02*
X130950000Y-136755000D01*
X131840000Y-131145000D02*
X131840000Y-135645000D01*
X131840000Y-135645000D02*
X128200000Y-135645000D01*
X133260000Y-131145000D02*
X131840000Y-131145000D01*
X133260000Y-142865000D02*
X133260000Y-131145000D01*
%TO.C,J5*%
X73135000Y-107890000D02*
X84855000Y-107890000D01*
X73135000Y-112950000D02*
X73135000Y-107890000D01*
X73135000Y-112950000D02*
X73135000Y-118010000D01*
X73135000Y-118010000D02*
X84855000Y-118010000D01*
X73745000Y-110200000D02*
X73745000Y-110700000D01*
X73745000Y-110700000D02*
X79245000Y-110700000D01*
X73745000Y-112700000D02*
X73745000Y-113200000D01*
X73745000Y-113200000D02*
X79245000Y-113200000D01*
X73745000Y-115200000D02*
X73745000Y-115700000D01*
X73745000Y-115700000D02*
X79245000Y-115700000D01*
X79245000Y-110200000D02*
X73745000Y-110200000D01*
X79245000Y-110700000D02*
X79245000Y-110200000D01*
X79245000Y-112700000D02*
X73745000Y-112700000D01*
X79245000Y-113200000D02*
X79245000Y-112700000D01*
X79245000Y-115200000D02*
X73745000Y-115200000D01*
X79245000Y-115700000D02*
X79245000Y-115200000D01*
X80355000Y-109310000D02*
X80355000Y-112950000D01*
X80355000Y-116590000D02*
X80355000Y-112950000D01*
X83945000Y-110450000D02*
X84545000Y-110150000D01*
X84545000Y-110150000D02*
X84545000Y-110750000D01*
X84545000Y-110750000D02*
X83945000Y-110450000D01*
X84855000Y-107890000D02*
X84855000Y-109310000D01*
X84855000Y-109310000D02*
X80355000Y-109310000D01*
X84855000Y-116590000D02*
X80355000Y-116590000D01*
X84855000Y-118010000D02*
X84855000Y-116590000D01*
%TO.C,J8*%
X98940000Y-131145000D02*
X100360000Y-131145000D01*
X98940000Y-142865000D02*
X98940000Y-131145000D01*
X100360000Y-131145000D02*
X100360000Y-135645000D01*
X100360000Y-135645000D02*
X104000000Y-135645000D01*
X101200000Y-131455000D02*
X101800000Y-131455000D01*
X101250000Y-136755000D02*
X101250000Y-142255000D01*
X101250000Y-142255000D02*
X101750000Y-142255000D01*
X101500000Y-132055000D02*
X101200000Y-131455000D01*
X101750000Y-136755000D02*
X101250000Y-136755000D01*
X101750000Y-142255000D02*
X101750000Y-136755000D01*
X101800000Y-131455000D02*
X101500000Y-132055000D01*
X103750000Y-136755000D02*
X103750000Y-142255000D01*
X103750000Y-142255000D02*
X104250000Y-142255000D01*
X104000000Y-142865000D02*
X98940000Y-142865000D01*
X104000000Y-142865000D02*
X109060000Y-142865000D01*
X104250000Y-136755000D02*
X103750000Y-136755000D01*
X104250000Y-142255000D02*
X104250000Y-136755000D01*
X106250000Y-136755000D02*
X106250000Y-142255000D01*
X106250000Y-142255000D02*
X106750000Y-142255000D01*
X106750000Y-136755000D02*
X106250000Y-136755000D01*
X106750000Y-142255000D02*
X106750000Y-136755000D01*
X107640000Y-131145000D02*
X107640000Y-135645000D01*
X107640000Y-135645000D02*
X104000000Y-135645000D01*
X109060000Y-131145000D02*
X107640000Y-131145000D01*
X109060000Y-142865000D02*
X109060000Y-131145000D01*
%TO.C,J16*%
X172145000Y-95940000D02*
X172145000Y-97360000D01*
X172145000Y-97360000D02*
X176645000Y-97360000D01*
X172145000Y-104640000D02*
X176645000Y-104640000D01*
X172145000Y-106060000D02*
X172145000Y-104640000D01*
X172455000Y-103200000D02*
X173055000Y-103500000D01*
X172455000Y-103800000D02*
X172455000Y-103200000D01*
X173055000Y-103500000D02*
X172455000Y-103800000D01*
X176645000Y-97360000D02*
X176645000Y-101000000D01*
X176645000Y-104640000D02*
X176645000Y-101000000D01*
X177755000Y-98250000D02*
X177755000Y-98750000D01*
X177755000Y-98750000D02*
X183255000Y-98750000D01*
X177755000Y-100750000D02*
X177755000Y-101250000D01*
X177755000Y-101250000D02*
X183255000Y-101250000D01*
X177755000Y-103250000D02*
X177755000Y-103750000D01*
X177755000Y-103750000D02*
X183255000Y-103750000D01*
X183255000Y-98250000D02*
X177755000Y-98250000D01*
X183255000Y-98750000D02*
X183255000Y-98250000D01*
X183255000Y-100750000D02*
X177755000Y-100750000D01*
X183255000Y-101250000D02*
X183255000Y-100750000D01*
X183255000Y-103250000D02*
X177755000Y-103250000D01*
X183255000Y-103750000D02*
X183255000Y-103250000D01*
X183865000Y-95940000D02*
X172145000Y-95940000D01*
X183865000Y-101000000D02*
X183865000Y-95940000D01*
X183865000Y-101000000D02*
X183865000Y-106060000D01*
X183865000Y-106060000D02*
X172145000Y-106060000D01*
%TD*%
%LPC*%
D19*
%TO.C,D9*%
X170600000Y-112610000D03*
X170600000Y-114190000D03*
%TD*%
D20*
%TO.C,D5*%
X165190000Y-129400000D03*
X163610000Y-129400000D03*
%TD*%
%TO.C,D11*%
X120000000Y-129800000D03*
X118420000Y-129800000D03*
%TD*%
%TO.C,D6*%
X153380000Y-129400000D03*
X151800000Y-129400000D03*
%TD*%
D19*
%TO.C,D15*%
X86500000Y-98880000D03*
X86500000Y-97300000D03*
%TD*%
D21*
%TO.C,D10*%
X170800000Y-126780000D03*
X170800000Y-125200000D03*
%TD*%
D22*
%TO.C,D12*%
X103100000Y-129500000D03*
X104680000Y-129500000D03*
%TD*%
D19*
%TO.C,D13*%
X86300000Y-121100000D03*
X86300000Y-122680000D03*
%TD*%
D20*
%TO.C,D4*%
X141400000Y-129200000D03*
X139820000Y-129200000D03*
%TD*%
D19*
%TO.C,D14*%
X86600000Y-112420000D03*
X86600000Y-114000000D03*
%TD*%
D20*
%TO.C,D3*%
X129780000Y-129400000D03*
X128200000Y-129400000D03*
%TD*%
D23*
%TO.C,R10*%
X167100000Y-104600000D03*
X166100000Y-104600000D03*
%TD*%
D24*
%TO.C,R11*%
X170700000Y-116310000D03*
X170700000Y-115310000D03*
%TD*%
D23*
%TO.C,R8*%
X149680000Y-129500000D03*
X150680000Y-129500000D03*
%TD*%
%TO.C,R13*%
X116300000Y-129900000D03*
X117300000Y-129900000D03*
%TD*%
%TO.C,R7*%
X161490000Y-129500000D03*
X162490000Y-129500000D03*
%TD*%
D24*
%TO.C,R15*%
X86400000Y-124800000D03*
X86400000Y-123800000D03*
%TD*%
D25*
%TO.C,R12*%
X170700000Y-123080000D03*
X170700000Y-124080000D03*
%TD*%
D23*
%TO.C,R5*%
X126080000Y-129500000D03*
X127080000Y-129500000D03*
%TD*%
%TO.C,R6*%
X137700000Y-129300000D03*
X138700000Y-129300000D03*
%TD*%
D26*
%TO.C,R14*%
X106800000Y-129400000D03*
X105800000Y-129400000D03*
%TD*%
D24*
%TO.C,R17*%
X86600000Y-101000000D03*
X86600000Y-100000000D03*
%TD*%
D20*
%TO.C,D8*%
X169800000Y-104500000D03*
X168220000Y-104500000D03*
%TD*%
D24*
%TO.C,R16*%
X86700000Y-116120000D03*
X86700000Y-115120000D03*
%TD*%
D27*
%TO.C,U7*%
X124780000Y-113630000D03*
X124780000Y-114280000D03*
X124780000Y-114930000D03*
X124780000Y-115580000D03*
X124780000Y-116230000D03*
X124780000Y-116880000D03*
X124780000Y-117520000D03*
X124780000Y-118180000D03*
X124780000Y-118830000D03*
X124780000Y-119480000D03*
X124780000Y-120130000D03*
X124780000Y-120770000D03*
X130820000Y-120770000D03*
X130820000Y-120130000D03*
X130820000Y-119480000D03*
X130820000Y-118830000D03*
X130820000Y-118180000D03*
X130820000Y-117520000D03*
X130820000Y-116880000D03*
X130820000Y-116230000D03*
X130820000Y-115580000D03*
X130820000Y-114930000D03*
X130820000Y-114280000D03*
X130820000Y-113630000D03*
%TD*%
D28*
%TO.C,U6*%
X93950000Y-128950000D03*
X93000000Y-128950000D03*
X92050000Y-128950000D03*
X92050000Y-126250000D03*
X93000000Y-126250000D03*
X93950000Y-126250000D03*
%TD*%
D21*
%TO.C,D2*%
X168000000Y-95780000D03*
X168000000Y-94200000D03*
%TD*%
D29*
%TO.C,C7*%
X93420000Y-123600000D03*
X94980000Y-123600000D03*
%TD*%
D30*
%TO.C,C6*%
X131000000Y-112380000D03*
X131000000Y-110820000D03*
%TD*%
D31*
%TO.C,U1*%
X147875000Y-101337500D03*
X147225000Y-101337500D03*
X146575000Y-101337500D03*
X145925000Y-101337500D03*
X145275000Y-101337500D03*
X144625000Y-101337500D03*
X143975000Y-101337500D03*
X143325000Y-101337500D03*
X142675000Y-101337500D03*
X142025000Y-101337500D03*
X141375000Y-101337500D03*
X140725000Y-101337500D03*
X140725000Y-107062500D03*
X141375000Y-107062500D03*
X142025000Y-107062500D03*
X142675000Y-107062500D03*
X143325000Y-107062500D03*
X143975000Y-107062500D03*
X144625000Y-107062500D03*
X145275000Y-107062500D03*
X145925000Y-107062500D03*
X146575000Y-107062500D03*
X147225000Y-107062500D03*
X147875000Y-107062500D03*
%TD*%
D32*
%TO.C,H1*%
X82000000Y-92000000D03*
D33*
X82000000Y-92000000D03*
%TD*%
D34*
%TO.C,C5*%
X108600000Y-110120000D03*
X108600000Y-111680000D03*
%TD*%
D35*
%TO.C,J6*%
X82445000Y-122400000D03*
D36*
X82445000Y-124900000D03*
X82445000Y-127400000D03*
%TD*%
D37*
%TO.C,J14*%
X174555000Y-127400000D03*
D36*
X174555000Y-124900000D03*
X174555000Y-122400000D03*
%TD*%
D38*
%TO.C,J11*%
X137650000Y-133555000D03*
D39*
X140150000Y-133555000D03*
X142650000Y-133555000D03*
%TD*%
D35*
%TO.C,J4*%
X82645000Y-98500000D03*
D36*
X82645000Y-101000000D03*
X82645000Y-103500000D03*
%TD*%
D25*
%TO.C,R2*%
X157500000Y-96400000D03*
X157500000Y-97400000D03*
%TD*%
D40*
%TO.C,J2*%
X108950000Y-93038272D03*
X108950000Y-98078272D03*
X111490000Y-93038272D03*
X111490000Y-98078272D03*
X114030000Y-93038272D03*
X114030000Y-98078272D03*
X116570000Y-93038272D03*
X116570000Y-98078272D03*
X119110000Y-93038272D03*
X119110000Y-98078272D03*
X121650000Y-93038272D03*
X121650000Y-98078272D03*
X124190000Y-93038272D03*
X124190000Y-98078272D03*
X126730000Y-93038272D03*
X126730000Y-98078272D03*
X129270000Y-93038272D03*
X129270000Y-98078272D03*
X131810000Y-93038272D03*
X131810000Y-98078272D03*
X134350000Y-93038272D03*
X134350000Y-98078272D03*
X136890000Y-93038272D03*
X136890000Y-98078272D03*
X139430000Y-93038272D03*
X139430000Y-98078272D03*
X141970000Y-93038272D03*
X141970000Y-98078272D03*
X144510000Y-93038272D03*
X144510000Y-98078272D03*
X147050000Y-93038272D03*
X147050000Y-98078272D03*
%TD*%
D41*
%TO.C,H8*%
X169700000Y-90300000D03*
%TD*%
D42*
%TO.C,J3*%
X151170000Y-100000000D03*
D43*
X153710000Y-100000000D03*
X156250000Y-100000000D03*
X158790000Y-100000000D03*
%TD*%
D41*
%TO.C,H7*%
X79000000Y-137000000D03*
%TD*%
D29*
%TO.C,C3*%
X107000000Y-106000000D03*
X108560000Y-106000000D03*
%TD*%
D44*
%TO.C,U2*%
X168710000Y-102660000D03*
X168710000Y-101390000D03*
X168710000Y-100110000D03*
X168710000Y-98840000D03*
X163290000Y-98840000D03*
X163290000Y-100110000D03*
X163290000Y-101390000D03*
X163290000Y-102660000D03*
%TD*%
D38*
%TO.C,J13*%
X161550000Y-133555000D03*
D39*
X164050000Y-133555000D03*
X166550000Y-133555000D03*
%TD*%
D34*
%TO.C,C4*%
X110300000Y-110120000D03*
X110300000Y-111680000D03*
%TD*%
D45*
%TO.C,H6*%
X153000000Y-94000000D03*
%TD*%
D37*
%TO.C,J15*%
X174555000Y-115450000D03*
D36*
X174555000Y-112950000D03*
X174555000Y-110450000D03*
%TD*%
D34*
%TO.C,C2*%
X161450000Y-102670000D03*
X161450000Y-104230000D03*
%TD*%
D24*
%TO.C,R1*%
X166250000Y-95200000D03*
X166250000Y-94200000D03*
%TD*%
D46*
%TO.C,U3*%
X105970000Y-112300000D03*
X105970000Y-110000000D03*
X105970000Y-107700000D03*
D47*
X100000000Y-109000000D03*
X100000000Y-110000000D03*
D48*
X100000000Y-110000000D03*
D47*
X100000000Y-111000000D03*
%TD*%
D45*
%TO.C,H5*%
X103000000Y-94000000D03*
%TD*%
D38*
%TO.C,J12*%
X149600000Y-133555000D03*
D39*
X152100000Y-133555000D03*
X154600000Y-133555000D03*
%TD*%
D45*
%TO.C,H2*%
X174000000Y-134000000D03*
%TD*%
D30*
%TO.C,C1*%
X149050000Y-106980000D03*
X149050000Y-105420000D03*
%TD*%
D45*
%TO.C,H4*%
X174000000Y-92000000D03*
%TD*%
D38*
%TO.C,J7*%
X89550000Y-133555000D03*
D39*
X92050000Y-133555000D03*
X94550000Y-133555000D03*
%TD*%
D38*
%TO.C,J9*%
X113750000Y-133555000D03*
D39*
X116250000Y-133555000D03*
X118750000Y-133555000D03*
%TD*%
D38*
%TO.C,J10*%
X125700000Y-133555000D03*
D39*
X128200000Y-133555000D03*
X130700000Y-133555000D03*
%TD*%
D41*
%TO.C,H9*%
X85337849Y-89057177D03*
%TD*%
D25*
%TO.C,R3*%
X158600000Y-96400000D03*
X158600000Y-97400000D03*
%TD*%
D23*
%TO.C,R4*%
X153000000Y-103000000D03*
X154000000Y-103000000D03*
%TD*%
D35*
%TO.C,J5*%
X82445000Y-110450000D03*
D36*
X82445000Y-112950000D03*
X82445000Y-115450000D03*
%TD*%
D45*
%TO.C,H3*%
X82000000Y-134000000D03*
%TD*%
D38*
%TO.C,J8*%
X101500000Y-133555000D03*
D39*
X104000000Y-133555000D03*
X106500000Y-133555000D03*
%TD*%
D37*
%TO.C,J16*%
X174555000Y-103500000D03*
D36*
X174555000Y-101000000D03*
X174555000Y-98500000D03*
%TD*%
%LPD*%
M02*
