M48
; DRILL file KiCad 10.0.1 date 2026-04-18T08:52:42
; FORMAT={-:-/ absolute / inch / decimal}
; #@! TF.CreationDate,2026-04-18T08:52:42+02:00
; #@! TF.GenerationSoftware,Kicad,Pcbnew,10.0.1
; #@! TF.FileFunction,Plated,1,2,PTH
FMAT,2
INCH
; #@! TA.AperFunction,Plated,PTH,ViaDrill
T1C0.0118
; #@! TA.AperFunction,Plated,PTH,ComponentDrill
T2C0.0118
; #@! TA.AperFunction,Plated,PTH,ComponentDrill
T3C0.0374
; #@! TA.AperFunction,Plated,PTH,ComponentDrill
T4C0.0394
; #@! TA.AperFunction,Plated,PTH,ComponentDrill
T5C0.1063
%
G90
G05
T1
X3.4173Y-4.3858
X3.4567Y-3.8189
X3.4567Y-4.7638
X3.5472Y-4.1457
X3.626Y-4.9252
X3.6654Y-5.1299
X3.7362Y-4.811
X3.9921Y-5.0945
X4.1417Y-4.4843
X4.1732Y-4.4882
X4.2047Y-4.4843
X4.3307Y-4.1732
X4.3346Y-3.6201
X4.3346Y-3.6594
X4.3346Y-3.7008
X4.3406Y-3.8583
X4.439Y-3.6555
X4.439Y-3.685
X4.439Y-3.7126
X4.439Y-3.8583
X4.5374Y-3.8583
X4.5531Y-3.6122
X4.5531Y-3.6516
X4.5531Y-3.6929
X4.5945Y-4.685
X4.6299Y-4.6457
X4.6358Y-3.8583
X4.7087Y-5.0472
X4.7343Y-3.8583
X4.7382Y-3.6181
X4.7382Y-3.6575
X4.7382Y-3.6969
X4.8386Y-3.6201
X4.8386Y-3.6594
X4.8386Y-3.6988
X4.845Y-3.8608
X4.939Y-3.6201
X4.939Y-3.6594
X4.939Y-3.6988
X4.9434Y-3.8608
X4.9646Y-4.7559
X4.9685Y-4.5236
X4.9724Y-4.4961
X5.0394Y-4.5
X5.063Y-4.5236
X5.0827Y-4.5512
X5.1299Y-3.8622
X5.1378Y-3.6201
X5.1378Y-3.6594
X5.1378Y-3.7008
X5.1654Y-5.0945
X5.2047Y-4.3622
X5.2303Y-3.8602
X5.2382Y-3.624
X5.2382Y-3.6634
X5.2382Y-3.7047
X5.3307Y-3.8602
X5.3386Y-3.622
X5.3386Y-3.6614
X5.3386Y-3.7028
X5.4272Y-3.8602
X5.4331Y-4.3701
X5.5Y-3.9862
X5.5118Y-4.2205
X5.5295Y-3.8583
X5.5591Y-4.1535
X5.5984Y-4.1575
X5.6142Y-5.0866
X5.6299Y-3.8583
X5.6457Y-3.6634
X5.6535Y-4.2717
X5.6654Y-4.1693
X5.6929Y-4.2677
X5.7343Y-3.8563
X5.7874Y-4.3701
X5.8327Y-3.6201
X5.8327Y-3.6594
X5.8327Y-3.7008
X5.8346Y-3.8602
X5.8622Y-4.248
X5.9075Y-4.1496
X5.9075Y-4.2126
X6.0Y-4.0197
X6.0945Y-5.1024
X6.1614Y-3.8268
X6.2835Y-3.7953
X6.3976Y-4.1043
X6.4488Y-3.8031
X6.5512Y-5.0945
X6.7126Y-3.9902
X6.7126Y-4.0433
X6.7146Y-3.8898
X6.7165Y-3.9429
X6.7165Y-4.3858
X6.7244Y-4.0787
X6.7323Y-5.0472
T2
X3.937Y-4.2913
X3.937Y-4.3307
X3.937Y-4.3701
T3
X3.2459Y-4.3484
X3.2459Y-4.4469
X3.2459Y-4.5453
X3.2459Y-4.8189
X3.2459Y-4.9173
X3.2459Y-5.0157
X3.2537Y-3.878
X3.2537Y-3.9764
X3.2537Y-4.0748
X3.5256Y-5.2581
X3.624Y-5.2581
X3.7224Y-5.2581
X3.9961Y-5.2581
X4.0945Y-5.2581
X4.1929Y-5.2581
X4.4783Y-5.2581
X4.5768Y-5.2581
X4.6752Y-5.2581
X4.9488Y-5.2581
X5.0472Y-5.2581
X5.1457Y-5.2581
X5.4193Y-5.2581
X5.5177Y-5.2581
X5.6161Y-5.2581
X5.8898Y-5.2581
X5.9882Y-5.2581
X6.0866Y-5.2581
X6.3602Y-5.2581
X6.4587Y-5.2581
X6.5571Y-5.2581
X6.8722Y-3.878
X6.8722Y-3.9764
X6.8722Y-4.0748
X6.8722Y-4.3484
X6.8722Y-4.4469
X6.8722Y-4.5453
X6.8722Y-4.8189
X6.8722Y-4.9173
X6.8722Y-5.0157
T4
X5.9516Y-3.937
X6.0516Y-3.937
X6.1516Y-3.937
X6.2516Y-3.937
T5
X3.2283Y-3.622
M30
