%TF.GenerationSoftware,KiCad,Pcbnew,9.0.2*%
%TF.CreationDate,2026-03-01T21:53:40+01:00*%
%TF.ProjectId,MMS3_hat_GPIO_board_basic,4d4d5333-5f68-4617-945f-4750494f5f62,R0*%
%TF.SameCoordinates,Original*%
%TF.FileFunction,Soldermask,Top*%
%TF.FilePolarity,Negative*%
%FSLAX46Y46*%
G04 Gerber Fmt 4.6, Leading zero omitted, Abs format (unit mm)*
G04 Created by KiCad (PCBNEW 9.0.2) date 2026-03-01 21:53:40*
%MOMM*%
%LPD*%
G01*
G04 APERTURE LIST*
G04 Aperture macros list*
%AMRoundRect*
0 Rectangle with rounded corners*
0 $1 Rounding radius*
0 $2 $3 $4 $5 $6 $7 $8 $9 X,Y pos of 4 corners*
0 Add a 4 corners polygon primitive as box body*
4,1,4,$2,$3,$4,$5,$6,$7,$8,$9,$2,$3,0*
0 Add four circle primitives for the rounded corners*
1,1,$1+$1,$2,$3*
1,1,$1+$1,$4,$5*
1,1,$1+$1,$6,$7*
1,1,$1+$1,$8,$9*
0 Add four rect primitives between the rounded corners*
20,1,$1+$1,$2,$3,$4,$5,0*
20,1,$1+$1,$4,$5,$6,$7,0*
20,1,$1+$1,$6,$7,$8,$9,0*
20,1,$1+$1,$8,$9,$2,$3,0*%
G04 Aperture macros list end*
%ADD10RoundRect,0.100000X-0.100000X0.637500X-0.100000X-0.637500X0.100000X-0.637500X0.100000X0.637500X0*%
%ADD11C,3.100000*%
%ADD12C,4.700000*%
%ADD13RoundRect,0.244000X-0.269000X0.244000X-0.269000X-0.244000X0.269000X-0.244000X0.269000X0.244000X0*%
%ADD14RoundRect,0.250000X-0.725000X0.600000X-0.725000X-0.600000X0.725000X-0.600000X0.725000X0.600000X0*%
%ADD15O,1.950000X1.700000*%
%ADD16RoundRect,0.250000X0.725000X-0.600000X0.725000X0.600000X-0.725000X0.600000X-0.725000X-0.600000X0*%
%ADD17RoundRect,0.250000X-0.600000X-0.725000X0.600000X-0.725000X0.600000X0.725000X-0.600000X0.725000X0*%
%ADD18O,1.700000X1.950000*%
%ADD19RoundRect,0.159000X-0.189000X0.159000X-0.189000X-0.159000X0.189000X-0.159000X0.189000X0.159000X0*%
%ADD20R,1.000000X3.000000*%
%ADD21C,1.296000*%
%ADD22R,1.700000X1.700000*%
%ADD23C,1.700000*%
%ADD24RoundRect,0.244000X-0.244000X-0.269000X0.244000X-0.269000X0.244000X0.269000X-0.244000X0.269000X0*%
%ADD25O,1.950000X0.570000*%
%ADD26RoundRect,0.159000X0.189000X-0.159000X0.189000X0.159000X-0.189000X0.159000X-0.189000X-0.159000X0*%
%ADD27RoundRect,0.250000X-1.000000X-0.300000X1.000000X-0.300000X1.000000X0.300000X-1.000000X0.300000X0*%
%ADD28C,0.500000*%
%ADD29RoundRect,0.250000X-0.920000X-1.550000X0.920000X-1.550000X0.920000X1.550000X-0.920000X1.550000X0*%
%ADD30RoundRect,0.218750X0.256250X-0.218750X0.256250X0.218750X-0.256250X0.218750X-0.256250X-0.218750X0*%
%ADD31RoundRect,0.244000X0.269000X-0.244000X0.269000X0.244000X-0.269000X0.244000X-0.269000X-0.244000X0*%
%ADD32RoundRect,0.159000X-0.159000X-0.189000X0.159000X-0.189000X0.159000X0.189000X-0.159000X0.189000X0*%
%ADD33RoundRect,0.100000X-0.637500X-0.100000X0.637500X-0.100000X0.637500X0.100000X-0.637500X0.100000X0*%
G04 APERTURE END LIST*
D10*
%TO.C,U1*%
X147875000Y-101337500D03*
X147225000Y-101337500D03*
X146575000Y-101337500D03*
X145925000Y-101337500D03*
X145275000Y-101337500D03*
X144625000Y-101337500D03*
X143975000Y-101337500D03*
X143325000Y-101337500D03*
X142675000Y-101337500D03*
X142025000Y-101337500D03*
X141375000Y-101337500D03*
X140725000Y-101337500D03*
X140725000Y-107062500D03*
X141375000Y-107062500D03*
X142025000Y-107062500D03*
X142675000Y-107062500D03*
X143325000Y-107062500D03*
X143975000Y-107062500D03*
X144625000Y-107062500D03*
X145275000Y-107062500D03*
X145925000Y-107062500D03*
X146575000Y-107062500D03*
X147225000Y-107062500D03*
X147875000Y-107062500D03*
%TD*%
D11*
%TO.C,H1*%
X82000000Y-92000000D03*
D12*
X82000000Y-92000000D03*
%TD*%
D13*
%TO.C,C5*%
X108600000Y-110120000D03*
X108600000Y-111680000D03*
%TD*%
D14*
%TO.C,J6*%
X82445000Y-122400000D03*
D15*
X82445000Y-124900000D03*
X82445000Y-127400000D03*
%TD*%
D16*
%TO.C,J14*%
X174555000Y-127400000D03*
D15*
X174555000Y-124900000D03*
X174555000Y-122400000D03*
%TD*%
D17*
%TO.C,J11*%
X137650000Y-133555000D03*
D18*
X140150000Y-133555000D03*
X142650000Y-133555000D03*
%TD*%
D19*
%TO.C,R2*%
X157500000Y-96400000D03*
X157500000Y-97400000D03*
%TD*%
D20*
%TO.C,J2*%
X108950000Y-93038272D03*
X108950000Y-98078272D03*
X111490000Y-93038272D03*
X111490000Y-98078272D03*
X114030000Y-93038272D03*
X114030000Y-98078272D03*
X116570000Y-93038272D03*
X116570000Y-98078272D03*
X119110000Y-93038272D03*
X119110000Y-98078272D03*
X121650000Y-93038272D03*
X121650000Y-98078272D03*
X124190000Y-93038272D03*
X124190000Y-98078272D03*
X126730000Y-93038272D03*
X126730000Y-98078272D03*
X129270000Y-93038272D03*
X129270000Y-98078272D03*
X131810000Y-93038272D03*
X131810000Y-98078272D03*
X134350000Y-93038272D03*
X134350000Y-98078272D03*
X136890000Y-93038272D03*
X136890000Y-98078272D03*
X139430000Y-93038272D03*
X139430000Y-98078272D03*
X141970000Y-93038272D03*
X141970000Y-98078272D03*
X144510000Y-93038272D03*
X144510000Y-98078272D03*
X147050000Y-93038272D03*
X147050000Y-98078272D03*
%TD*%
D21*
%TO.C,H8*%
X169700000Y-90300000D03*
%TD*%
D22*
%TO.C,J3*%
X151170000Y-100000000D03*
D23*
X153710000Y-100000000D03*
X156250000Y-100000000D03*
X158790000Y-100000000D03*
%TD*%
D21*
%TO.C,H7*%
X79000000Y-137000000D03*
%TD*%
D24*
%TO.C,C3*%
X107000000Y-106000000D03*
X108560000Y-106000000D03*
%TD*%
D25*
%TO.C,U2*%
X168710000Y-102660000D03*
X168710000Y-101390000D03*
X168710000Y-100110000D03*
X168710000Y-98840000D03*
X163290000Y-98840000D03*
X163290000Y-100110000D03*
X163290000Y-101390000D03*
X163290000Y-102660000D03*
%TD*%
D17*
%TO.C,J13*%
X161550000Y-133555000D03*
D18*
X164050000Y-133555000D03*
X166550000Y-133555000D03*
%TD*%
D13*
%TO.C,C4*%
X110300000Y-110120000D03*
X110300000Y-111680000D03*
%TD*%
D16*
%TO.C,J15*%
X174555000Y-115450000D03*
D15*
X174555000Y-112950000D03*
X174555000Y-110450000D03*
%TD*%
D13*
%TO.C,C2*%
X161450000Y-102670000D03*
X161450000Y-104230000D03*
%TD*%
D26*
%TO.C,R1*%
X166250000Y-95200000D03*
X166250000Y-94200000D03*
%TD*%
D27*
%TO.C,U3*%
X105970000Y-112300000D03*
X105970000Y-110000000D03*
X105970000Y-107700000D03*
D28*
X100000000Y-109000000D03*
X100000000Y-110000000D03*
D29*
X100000000Y-110000000D03*
D28*
X100000000Y-111000000D03*
%TD*%
D30*
%TO.C,D1*%
X168000000Y-95787500D03*
X168000000Y-94212500D03*
%TD*%
D17*
%TO.C,J12*%
X149600000Y-133555000D03*
D18*
X152100000Y-133555000D03*
X154600000Y-133555000D03*
%TD*%
D31*
%TO.C,C1*%
X149050000Y-106980000D03*
X149050000Y-105420000D03*
%TD*%
D14*
%TO.C,PIN 1*%
X82445000Y-98500000D03*
D15*
X82445000Y-101000000D03*
X82445000Y-103500000D03*
%TD*%
D17*
%TO.C,J7*%
X89550000Y-133555000D03*
D18*
X92050000Y-133555000D03*
X94550000Y-133555000D03*
%TD*%
D17*
%TO.C,J9*%
X113750000Y-133555000D03*
D18*
X116250000Y-133555000D03*
X118750000Y-133555000D03*
%TD*%
D17*
%TO.C,J10*%
X125700000Y-133555000D03*
D18*
X128200000Y-133555000D03*
X130700000Y-133555000D03*
%TD*%
D21*
%TO.C,H9*%
X85337849Y-89057177D03*
%TD*%
D19*
%TO.C,R3*%
X158600000Y-96400000D03*
X158600000Y-97400000D03*
%TD*%
D32*
%TO.C,R4*%
X153000000Y-103000000D03*
X154000000Y-103000000D03*
%TD*%
D14*
%TO.C,J5*%
X82445000Y-110450000D03*
D15*
X82445000Y-112950000D03*
X82445000Y-115450000D03*
%TD*%
D31*
%TO.C,C6*%
X131042358Y-112308798D03*
X131042358Y-110748798D03*
%TD*%
D33*
%TO.C,U4*%
X124837500Y-113625000D03*
X124837500Y-114275000D03*
X124837500Y-114925000D03*
X124837500Y-115575000D03*
X124837500Y-116225000D03*
X124837500Y-116875000D03*
X124837500Y-117525000D03*
X124837500Y-118175000D03*
X124837500Y-118825000D03*
X124837500Y-119475000D03*
X124837500Y-120125000D03*
X124837500Y-120775000D03*
X130562500Y-120775000D03*
X130562500Y-120125000D03*
X130562500Y-119475000D03*
X130562500Y-118825000D03*
X130562500Y-118175000D03*
X130562500Y-117525000D03*
X130562500Y-116875000D03*
X130562500Y-116225000D03*
X130562500Y-115575000D03*
X130562500Y-114925000D03*
X130562500Y-114275000D03*
X130562500Y-113625000D03*
%TD*%
D17*
%TO.C,J8*%
X101500000Y-133555000D03*
D18*
X104000000Y-133555000D03*
X106500000Y-133555000D03*
%TD*%
D16*
%TO.C,J16*%
X174555000Y-103500000D03*
D15*
X174555000Y-101000000D03*
X174555000Y-98500000D03*
%TD*%
M02*
