%TF.GenerationSoftware,KiCad,Pcbnew,10.0.1*%
%TF.CreationDate,2026-04-17T15:02:28+02:00*%
%TF.ProjectId,MMS3_hat_GPIO_board_basic,4d4d5333-5f68-4617-945f-4750494f5f62,R0*%
%TF.SameCoordinates,Original*%
%TF.FileFunction,Soldermask,Top*%
%TF.FilePolarity,Negative*%
%FSLAX46Y46*%
G04 Gerber Fmt 4.6, Leading zero omitted, Abs format (unit mm)*
G04 Created by KiCad (PCBNEW 10.0.1) date 2026-04-17 15:02:28*
%MOMM*%
%LPD*%
G01*
G04 APERTURE LIST*
G04 Aperture macros list*
%AMRoundRect*
0 Rectangle with rounded corners*
0 $1 Rounding radius*
0 $2 $3 $4 $5 $6 $7 $8 $9 X,Y pos of 4 corners*
0 Add a 4 corners polygon primitive as box body*
4,1,4,$2,$3,$4,$5,$6,$7,$8,$9,$2,$3,0*
0 Add four circle primitives for the rounded corners*
1,1,$1+$1,$2,$3*
1,1,$1+$1,$4,$5*
1,1,$1+$1,$6,$7*
1,1,$1+$1,$8,$9*
0 Add four rect primitives between the rounded corners*
20,1,$1+$1,$2,$3,$4,$5,0*
20,1,$1+$1,$4,$5,$6,$7,0*
20,1,$1+$1,$6,$7,$8,$9,0*
20,1,$1+$1,$8,$9,$2,$3,0*%
G04 Aperture macros list end*
%ADD10RoundRect,0.239000X-0.274000X0.239000X-0.274000X-0.239000X0.274000X-0.239000X0.274000X0.239000X0*%
%ADD11RoundRect,0.239000X0.239000X0.274000X-0.239000X0.274000X-0.239000X-0.274000X0.239000X-0.274000X0*%
%ADD12RoundRect,0.239000X0.274000X-0.239000X0.274000X0.239000X-0.274000X0.239000X-0.274000X-0.239000X0*%
%ADD13RoundRect,0.239000X-0.239000X-0.274000X0.239000X-0.274000X0.239000X0.274000X-0.239000X0.274000X0*%
%ADD14RoundRect,0.159000X-0.159000X-0.189000X0.159000X-0.189000X0.159000X0.189000X-0.159000X0.189000X0*%
%ADD15RoundRect,0.159000X0.189000X-0.159000X0.189000X0.159000X-0.189000X0.159000X-0.189000X-0.159000X0*%
%ADD16RoundRect,0.159000X-0.189000X0.159000X-0.189000X-0.159000X0.189000X-0.159000X0.189000X0.159000X0*%
%ADD17RoundRect,0.159000X0.159000X0.189000X-0.159000X0.189000X-0.159000X-0.189000X0.159000X-0.189000X0*%
%ADD18R,1.650000X0.400000*%
%ADD19R,0.600000X1.100000*%
%ADD20RoundRect,0.244000X-0.244000X-0.269000X0.244000X-0.269000X0.244000X0.269000X-0.244000X0.269000X0*%
%ADD21RoundRect,0.244000X0.269000X-0.244000X0.269000X0.244000X-0.269000X0.244000X-0.269000X-0.244000X0*%
%ADD22RoundRect,0.100000X-0.100000X0.637500X-0.100000X-0.637500X0.100000X-0.637500X0.100000X0.637500X0*%
%ADD23C,3.100000*%
%ADD24C,4.700000*%
%ADD25RoundRect,0.244000X-0.269000X0.244000X-0.269000X-0.244000X0.269000X-0.244000X0.269000X0.244000X0*%
%ADD26RoundRect,0.250000X-0.725000X0.600000X-0.725000X-0.600000X0.725000X-0.600000X0.725000X0.600000X0*%
%ADD27O,1.950000X1.700000*%
%ADD28RoundRect,0.250000X0.725000X-0.600000X0.725000X0.600000X-0.725000X0.600000X-0.725000X-0.600000X0*%
%ADD29RoundRect,0.250000X-0.600000X-0.725000X0.600000X-0.725000X0.600000X0.725000X-0.600000X0.725000X0*%
%ADD30O,1.700000X1.950000*%
%ADD31R,1.000000X3.000000*%
%ADD32C,1.296000*%
%ADD33R,1.700000X1.700000*%
%ADD34C,1.700000*%
%ADD35O,1.950000X0.570000*%
%ADD36RoundRect,0.250000X-1.000000X-0.300000X1.000000X-0.300000X1.000000X0.300000X-1.000000X0.300000X0*%
%ADD37C,0.500000*%
%ADD38RoundRect,0.250000X-0.920000X-1.550000X0.920000X-1.550000X0.920000X1.550000X-0.920000X1.550000X0*%
G04 APERTURE END LIST*
D10*
%TO.C,D9*%
X170600000Y-112610000D03*
X170600000Y-114190000D03*
%TD*%
D11*
%TO.C,D5*%
X165190000Y-129400000D03*
X163610000Y-129400000D03*
%TD*%
%TO.C,D11*%
X120000000Y-129800000D03*
X118420000Y-129800000D03*
%TD*%
%TO.C,D6*%
X153380000Y-129400000D03*
X151800000Y-129400000D03*
%TD*%
D10*
%TO.C,D15*%
X86500000Y-98880000D03*
X86500000Y-97300000D03*
%TD*%
D12*
%TO.C,D10*%
X170800000Y-126780000D03*
X170800000Y-125200000D03*
%TD*%
D13*
%TO.C,D12*%
X103100000Y-129500000D03*
X104680000Y-129500000D03*
%TD*%
D10*
%TO.C,D13*%
X86300000Y-121100000D03*
X86300000Y-122680000D03*
%TD*%
D11*
%TO.C,D4*%
X141400000Y-129200000D03*
X139820000Y-129200000D03*
%TD*%
D10*
%TO.C,D14*%
X86600000Y-112420000D03*
X86600000Y-114000000D03*
%TD*%
D11*
%TO.C,D3*%
X129780000Y-129400000D03*
X128200000Y-129400000D03*
%TD*%
D14*
%TO.C,R10*%
X167100000Y-104600000D03*
X166100000Y-104600000D03*
%TD*%
D15*
%TO.C,R11*%
X170700000Y-116310000D03*
X170700000Y-115310000D03*
%TD*%
D14*
%TO.C,R8*%
X149680000Y-129500000D03*
X150680000Y-129500000D03*
%TD*%
%TO.C,R13*%
X116300000Y-129900000D03*
X117300000Y-129900000D03*
%TD*%
%TO.C,R7*%
X161490000Y-129500000D03*
X162490000Y-129500000D03*
%TD*%
D15*
%TO.C,R15*%
X86400000Y-124800000D03*
X86400000Y-123800000D03*
%TD*%
D16*
%TO.C,R12*%
X170700000Y-123080000D03*
X170700000Y-124080000D03*
%TD*%
D14*
%TO.C,R5*%
X126080000Y-129500000D03*
X127080000Y-129500000D03*
%TD*%
%TO.C,R6*%
X137700000Y-129300000D03*
X138700000Y-129300000D03*
%TD*%
D17*
%TO.C,R14*%
X106800000Y-129400000D03*
X105800000Y-129400000D03*
%TD*%
D15*
%TO.C,R17*%
X86600000Y-101000000D03*
X86600000Y-100000000D03*
%TD*%
D11*
%TO.C,D8*%
X169800000Y-104500000D03*
X168220000Y-104500000D03*
%TD*%
D15*
%TO.C,R16*%
X86700000Y-116120000D03*
X86700000Y-115120000D03*
%TD*%
D18*
%TO.C,U7*%
X124780000Y-113630000D03*
X124780000Y-114280000D03*
X124780000Y-114930000D03*
X124780000Y-115580000D03*
X124780000Y-116230000D03*
X124780000Y-116880000D03*
X124780000Y-117520000D03*
X124780000Y-118180000D03*
X124780000Y-118830000D03*
X124780000Y-119480000D03*
X124780000Y-120130000D03*
X124780000Y-120770000D03*
X130820000Y-120770000D03*
X130820000Y-120130000D03*
X130820000Y-119480000D03*
X130820000Y-118830000D03*
X130820000Y-118180000D03*
X130820000Y-117520000D03*
X130820000Y-116880000D03*
X130820000Y-116230000D03*
X130820000Y-115580000D03*
X130820000Y-114930000D03*
X130820000Y-114280000D03*
X130820000Y-113630000D03*
%TD*%
D19*
%TO.C,U6*%
X93950000Y-128950000D03*
X93000000Y-128950000D03*
X92050000Y-128950000D03*
X92050000Y-126250000D03*
X93000000Y-126250000D03*
X93950000Y-126250000D03*
%TD*%
D12*
%TO.C,D2*%
X168000000Y-95780000D03*
X168000000Y-94200000D03*
%TD*%
D20*
%TO.C,C7*%
X93420000Y-123600000D03*
X94980000Y-123600000D03*
%TD*%
D21*
%TO.C,C6*%
X131000000Y-112380000D03*
X131000000Y-110820000D03*
%TD*%
D22*
%TO.C,U1*%
X147875000Y-101337500D03*
X147225000Y-101337500D03*
X146575000Y-101337500D03*
X145925000Y-101337500D03*
X145275000Y-101337500D03*
X144625000Y-101337500D03*
X143975000Y-101337500D03*
X143325000Y-101337500D03*
X142675000Y-101337500D03*
X142025000Y-101337500D03*
X141375000Y-101337500D03*
X140725000Y-101337500D03*
X140725000Y-107062500D03*
X141375000Y-107062500D03*
X142025000Y-107062500D03*
X142675000Y-107062500D03*
X143325000Y-107062500D03*
X143975000Y-107062500D03*
X144625000Y-107062500D03*
X145275000Y-107062500D03*
X145925000Y-107062500D03*
X146575000Y-107062500D03*
X147225000Y-107062500D03*
X147875000Y-107062500D03*
%TD*%
D23*
%TO.C,H1*%
X82000000Y-92000000D03*
D24*
X82000000Y-92000000D03*
%TD*%
D25*
%TO.C,C5*%
X108600000Y-110120000D03*
X108600000Y-111680000D03*
%TD*%
D26*
%TO.C,J6*%
X82445000Y-122400000D03*
D27*
X82445000Y-124900000D03*
X82445000Y-127400000D03*
%TD*%
D28*
%TO.C,J14*%
X174555000Y-127400000D03*
D27*
X174555000Y-124900000D03*
X174555000Y-122400000D03*
%TD*%
D29*
%TO.C,J11*%
X137650000Y-133555000D03*
D30*
X140150000Y-133555000D03*
X142650000Y-133555000D03*
%TD*%
D26*
%TO.C,J4*%
X82645000Y-98500000D03*
D27*
X82645000Y-101000000D03*
X82645000Y-103500000D03*
%TD*%
D16*
%TO.C,R2*%
X157500000Y-96400000D03*
X157500000Y-97400000D03*
%TD*%
D31*
%TO.C,J2*%
X108950000Y-93038272D03*
X108950000Y-98078272D03*
X111490000Y-93038272D03*
X111490000Y-98078272D03*
X114030000Y-93038272D03*
X114030000Y-98078272D03*
X116570000Y-93038272D03*
X116570000Y-98078272D03*
X119110000Y-93038272D03*
X119110000Y-98078272D03*
X121650000Y-93038272D03*
X121650000Y-98078272D03*
X124190000Y-93038272D03*
X124190000Y-98078272D03*
X126730000Y-93038272D03*
X126730000Y-98078272D03*
X129270000Y-93038272D03*
X129270000Y-98078272D03*
X131810000Y-93038272D03*
X131810000Y-98078272D03*
X134350000Y-93038272D03*
X134350000Y-98078272D03*
X136890000Y-93038272D03*
X136890000Y-98078272D03*
X139430000Y-93038272D03*
X139430000Y-98078272D03*
X141970000Y-93038272D03*
X141970000Y-98078272D03*
X144510000Y-93038272D03*
X144510000Y-98078272D03*
X147050000Y-93038272D03*
X147050000Y-98078272D03*
%TD*%
D32*
%TO.C,H8*%
X169700000Y-90300000D03*
%TD*%
D33*
%TO.C,J3*%
X151170000Y-100000000D03*
D34*
X153710000Y-100000000D03*
X156250000Y-100000000D03*
X158790000Y-100000000D03*
%TD*%
D32*
%TO.C,H7*%
X79000000Y-137000000D03*
%TD*%
D20*
%TO.C,C3*%
X107000000Y-106000000D03*
X108560000Y-106000000D03*
%TD*%
D35*
%TO.C,U2*%
X168710000Y-102660000D03*
X168710000Y-101390000D03*
X168710000Y-100110000D03*
X168710000Y-98840000D03*
X163290000Y-98840000D03*
X163290000Y-100110000D03*
X163290000Y-101390000D03*
X163290000Y-102660000D03*
%TD*%
D29*
%TO.C,J13*%
X161550000Y-133555000D03*
D30*
X164050000Y-133555000D03*
X166550000Y-133555000D03*
%TD*%
D25*
%TO.C,C4*%
X110300000Y-110120000D03*
X110300000Y-111680000D03*
%TD*%
D28*
%TO.C,J15*%
X174555000Y-115450000D03*
D27*
X174555000Y-112950000D03*
X174555000Y-110450000D03*
%TD*%
D25*
%TO.C,C2*%
X161450000Y-102670000D03*
X161450000Y-104230000D03*
%TD*%
D15*
%TO.C,R1*%
X166250000Y-95200000D03*
X166250000Y-94200000D03*
%TD*%
D36*
%TO.C,U3*%
X105970000Y-112300000D03*
X105970000Y-110000000D03*
X105970000Y-107700000D03*
D37*
X100000000Y-109000000D03*
X100000000Y-110000000D03*
D38*
X100000000Y-110000000D03*
D37*
X100000000Y-111000000D03*
%TD*%
D29*
%TO.C,J12*%
X149600000Y-133555000D03*
D30*
X152100000Y-133555000D03*
X154600000Y-133555000D03*
%TD*%
D21*
%TO.C,C1*%
X149050000Y-106980000D03*
X149050000Y-105420000D03*
%TD*%
D29*
%TO.C,J7*%
X89550000Y-133555000D03*
D30*
X92050000Y-133555000D03*
X94550000Y-133555000D03*
%TD*%
D29*
%TO.C,J9*%
X113750000Y-133555000D03*
D30*
X116250000Y-133555000D03*
X118750000Y-133555000D03*
%TD*%
D29*
%TO.C,J10*%
X125700000Y-133555000D03*
D30*
X128200000Y-133555000D03*
X130700000Y-133555000D03*
%TD*%
D32*
%TO.C,H9*%
X85337849Y-89057177D03*
%TD*%
D16*
%TO.C,R3*%
X158600000Y-96400000D03*
X158600000Y-97400000D03*
%TD*%
D14*
%TO.C,R4*%
X153000000Y-103000000D03*
X154000000Y-103000000D03*
%TD*%
D26*
%TO.C,J5*%
X82445000Y-110450000D03*
D27*
X82445000Y-112950000D03*
X82445000Y-115450000D03*
%TD*%
D29*
%TO.C,J8*%
X101500000Y-133555000D03*
D30*
X104000000Y-133555000D03*
X106500000Y-133555000D03*
%TD*%
D28*
%TO.C,J16*%
X174555000Y-103500000D03*
D27*
X174555000Y-101000000D03*
X174555000Y-98500000D03*
%TD*%
M02*
